<?xml version="1.0" encoding="utf-8"?>
<!-- Generator: Adobe Illustrator 27.2.0, SVG Export Plug-In . SVG Version: 6.00 Build 0)  -->
<svg version="1.1" id="Layer_1" xmlns="http://www.w3.org/2000/svg" xmlns:xlink="http://www.w3.org/1999/xlink" x="0px" y="0px"
	 viewBox="0 0 570 570" style="enable-background:new 0 0 570 570;" xml:space="preserve">
<style type="text/css">
	.st0{fill:url(#SVGID_1_);}
	.st1{fill:#FFFFFF;}
	.st2{fill:#F2F7F8;}
	.st3{fill:#CEEAF0;}
	.st4{fill:#E9F4F6;}
	.st5{fill:#004A26;}
	.st6{fill:#006A2F;}
	.st7{fill:#39863E;}
	.st8{fill:none;stroke:#000000;stroke-width:20;stroke-miterlimit:10;}
	.st9{fill:#ECEFF1;}
</style>
<g>
	
		<linearGradient id="SVGID_1_" gradientUnits="userSpaceOnUse" x1="301.7287" y1="459.2411" x2="301.7287" y2="81.0433" gradientTransform="matrix(0.952 -0.0213 0.0204 0.9525 -4.6106 23.399)">
		<stop  offset="0" style="stop-color:#001910"/>
		<stop  offset="1" style="stop-color:#14007F"/>
	</linearGradient>
	<polygon class="st0" points="390.73,452.18 185.36,452.28 82.76,274.37 185.53,96.38 390.9,96.28 493.5,274.18 	"/>
	<g>
		<g>
			<g>
				<path class="st1" d="M401.54,200.8c-2.31,0.55-2.72,1-3.22,3.56c-0.5-2.56-0.91-3.01-3.22-3.56c2.31-0.55,2.72-1,3.22-3.56
					C398.83,199.79,399.23,200.24,401.54,200.8z"/>
				<path class="st1" d="M404.33,203.98c-1.46,0.35-1.72,0.64-2.04,2.26c-0.32-1.62-0.58-1.91-2.04-2.26
					c1.46-0.35,1.72-0.64,2.04-2.26C402.61,203.34,402.86,203.63,404.33,203.98z"/>
			</g>
			<g>
				<path class="st1" d="M357.14,258.07c-2.31,0.55-2.71,1-3.22,3.56c-0.5-2.56-0.91-3.01-3.22-3.56c2.31-0.55,2.71-1,3.22-3.56
					C354.43,257.07,354.83,257.52,357.14,258.07z"/>
				<path class="st1" d="M359.93,261.26c-1.46,0.35-1.72,0.64-2.04,2.26c-0.32-1.62-0.58-1.91-2.04-2.26
					c1.46-0.35,1.72-0.64,2.04-2.26C358.21,260.62,358.47,260.9,359.93,261.26z"/>
			</g>
			<g>
				<path class="st1" d="M357.67,122.59c-2.31,0.55-2.71,1-3.22,3.56c-0.5-2.56-0.91-3.01-3.22-3.56c2.31-0.55,2.71-1,3.22-3.56
					C354.96,121.58,355.36,122.03,357.67,122.59z"/>
				<path class="st1" d="M360.46,125.77c-1.46,0.35-1.72,0.64-2.04,2.26c-0.32-1.62-0.58-1.91-2.04-2.26
					c1.46-0.35,1.72-0.64,2.04-2.26C358.74,125.13,359,125.42,360.46,125.77z"/>
			</g>
			<g>
				<path class="st1" d="M225.75,127.09c-2.31,0.55-2.72,1-3.22,3.56c-0.5-2.56-0.91-3.01-3.22-3.56c2.31-0.55,2.71-1,3.22-3.56
					C223.04,126.08,223.44,126.53,225.75,127.09z"/>
				<path class="st1" d="M228.54,130.27c-1.46,0.35-1.72,0.64-2.04,2.26c-0.32-1.62-0.58-1.91-2.04-2.26
					c1.46-0.35,1.72-0.64,2.04-2.26C226.82,129.63,227.08,129.92,228.54,130.27z"/>
			</g>
			<g>
				<path class="st1" d="M144.01,254.57c-2.31,0.55-2.72,1-3.22,3.56c-0.5-2.56-0.91-3.01-3.22-3.56c2.31-0.55,2.71-1,3.22-3.56
					C141.29,253.57,141.7,254.02,144.01,254.57z"/>
				<path class="st1" d="M146.8,257.76c-1.46,0.35-1.72,0.64-2.04,2.26c-0.32-1.62-0.58-1.91-2.04-2.26
					c1.46-0.35,1.72-0.64,2.04-2.26C145.07,257.12,145.33,257.4,146.8,257.76z"/>
			</g>
			<g>
				<path class="st1" d="M276.43,247.09c-2.31,0.55-2.72,1-3.22,3.56c-0.5-2.56-0.91-3.01-3.22-3.56c2.31-0.55,2.71-1,3.22-3.56
					C273.72,246.08,274.12,246.53,276.43,247.09z"/>
				<path class="st1" d="M279.22,250.27c-1.46,0.35-1.72,0.64-2.04,2.26c-0.32-1.62-0.58-1.91-2.04-2.26
					c1.46-0.35,1.72-0.64,2.04-2.26C277.5,249.63,277.76,249.92,279.22,250.27z"/>
			</g>
			<g>
				<path class="st1" d="M223.6,203.22c0.45-0.78,1.28-0.78,1.73,0c-0.45-0.78-0.03-1.5,0.86-1.5c-0.9,0-1.31-0.72-0.86-1.5
					c-0.45,0.78-1.28,0.78-1.73,0c0.45,0.78,0.03,1.5-0.86,1.5C223.63,201.72,224.05,202.44,223.6,203.22z"/>
			</g>
			<g>
				<path class="st1" d="M283.33,199.65c0.45-0.78,1.28-0.78,1.73,0c-0.45-0.78-0.03-1.5,0.86-1.5c-0.9,0-1.31-0.72-0.86-1.5
					c-0.45,0.78-1.28,0.78-1.73,0c0.45,0.78,0.03,1.5-0.86,1.5C283.37,198.15,283.78,198.87,283.33,199.65z"/>
			</g>
			<g>
				<path class="st1" d="M329.75,223.37c0.45-0.78,1.28-0.78,1.73,0c-0.45-0.78-0.03-1.5,0.86-1.5c-0.9,0-1.31-0.72-0.86-1.5
					c-0.45,0.78-1.28,0.78-1.73,0c0.45,0.78,0.03,1.5-0.86,1.5C329.78,221.87,330.2,222.59,329.75,223.37z"/>
			</g>
			<g>
				<path class="st1" d="M250.78,213.39c0.45-0.78,1.28-0.78,1.73,0c-0.45-0.78-0.03-1.5,0.86-1.5c-0.9,0-1.31-0.72-0.86-1.5
					c-0.45,0.78-1.28,0.78-1.73,0c0.45,0.78,0.03,1.5-0.86,1.5C250.81,211.89,251.22,212.61,250.78,213.39z"/>
			</g>
			<g>
				<path class="st1" d="M311.95,240.26c0.45-0.78,1.28-0.78,1.73,0c-0.45-0.78-0.03-1.5,0.86-1.5c-0.9,0-1.31-0.72-0.86-1.5
					c-0.45,0.78-1.28,0.78-1.73,0c0.45,0.78,0.03,1.5-0.86,1.5C311.98,238.77,312.4,239.49,311.95,240.26z"/>
			</g>
			<g>
				<path class="st1" d="M331.48,194.84c0.45-0.78,1.28-0.78,1.73,0c-0.45-0.78-0.03-1.5,0.86-1.5c-0.9,0-1.31-0.72-0.86-1.5
					c-0.45,0.78-1.28,0.78-1.73,0c0.45,0.78,0.03,1.5-0.86,1.5C331.51,193.34,331.93,194.06,331.48,194.84z"/>
			</g>
			<g>
				<path class="st1" d="M354.79,224.86c0.45-0.78,1.28-0.78,1.73,0c-0.45-0.78-0.03-1.5,0.86-1.5c-0.9,0-1.31-0.72-0.86-1.5
					c-0.45,0.78-1.28,0.78-1.73,0c0.45,0.78,0.03,1.5-0.86,1.5C354.82,223.37,355.24,224.09,354.79,224.86z"/>
			</g>
			<g>
				<path class="st1" d="M224.39,237.27c0.45-0.78,1.28-0.78,1.73,0c-0.45-0.78-0.03-1.5,0.86-1.5c-0.9,0-1.31-0.72-0.86-1.5
					c-0.45,0.78-1.28,0.78-1.73,0c0.45,0.78,0.03,1.5-0.86,1.5C224.42,235.78,224.84,236.5,224.39,237.27z"/>
			</g>
			<g>
				<path class="st1" d="M197.59,153.5c0.45-0.78,1.28-0.78,1.73,0c-0.45-0.78-0.03-1.5,0.86-1.5c-0.9,0-1.31-0.72-0.86-1.5
					c-0.45,0.78-1.28,0.78-1.73,0c0.45,0.78,0.03,1.5-0.86,1.5C197.63,152,198.04,152.72,197.59,153.5z"/>
			</g>
			<g>
				<path class="st1" d="M359.95,176.45c0.45-0.78,1.28-0.78,1.73,0c-0.45-0.78-0.03-1.5,0.86-1.5c-0.9,0-1.31-0.72-0.86-1.5
					c-0.45,0.78-1.28,0.78-1.73,0c0.45,0.78,0.03,1.5-0.86,1.5C359.98,174.96,360.4,175.68,359.95,176.45z"/>
			</g>
			<g>
				<path class="st1" d="M180.78,249.51c0.45-0.78,1.28-0.78,1.73,0c-0.45-0.78-0.03-1.5,0.86-1.5c-0.9,0-1.31-0.72-0.86-1.5
					c-0.45,0.78-1.28,0.78-1.73,0c0.45,0.78,0.03,1.5-0.86,1.5C180.81,248.01,181.23,248.73,180.78,249.51z"/>
			</g>
			<g>
				<path class="st1" d="M249.44,179.14c0.45-0.78,1.28-0.78,1.73,0c-0.45-0.78-0.03-1.5,0.86-1.5c-0.9,0-1.31-0.72-0.86-1.5
					c-0.45,0.78-1.28,0.78-1.73,0c0.45,0.78,0.03,1.5-0.86,1.5C249.48,177.65,249.89,178.37,249.44,179.14z"/>
			</g>
			<g>
				<path class="st1" d="M383.81,166.09c0.45-0.78,1.28-0.78,1.73,0c-0.45-0.78-0.03-1.5,0.86-1.5c-0.9,0-1.31-0.72-0.86-1.5
					c-0.45,0.78-1.28,0.78-1.73,0c0.45,0.78,0.03,1.5-0.86,1.5C383.84,164.59,384.25,165.31,383.81,166.09z"/>
			</g>
			<g>
				<path class="st1" d="M385.53,129.52c0.45-0.78,1.28-0.78,1.73,0c-0.45-0.78-0.03-1.5,0.86-1.5c-0.9,0-1.31-0.72-0.86-1.5
					c-0.45,0.78-1.28,0.78-1.73,0c0.45,0.78,0.03,1.5-0.86,1.5C385.56,128.03,385.98,128.75,385.53,129.52z"/>
			</g>
			<g>
				<path class="st1" d="M249.44,236.11c0.45-0.78,1.28-0.78,1.73,0c-0.45-0.78-0.03-1.5,0.86-1.5c-0.9,0-1.31-0.72-0.86-1.5
					c-0.45,0.78-1.28,0.78-1.73,0c0.45,0.78,0.03,1.5-0.86,1.5C249.48,234.62,249.89,235.34,249.44,236.11z"/>
			</g>
			<g>
				<path class="st1" d="M224.39,268.68c0.45-0.78,1.28-0.78,1.73,0c-0.45-0.78-0.03-1.5,0.86-1.5c-0.9,0-1.31-0.72-0.86-1.5
					c-0.45,0.78-1.28,0.78-1.73,0c0.45,0.78,0.03,1.5-0.86,1.5C224.42,267.19,224.84,267.91,224.39,268.68z"/>
			</g>
			<path class="st1" d="M242.81,248.78c0.16-0.08,0.4-0.12,0.77-0.15c-0.37-0.04-0.61-0.07-0.78-0.16c0.05-0.17,0.2-0.37,0.43-0.67
				c-0.28,0.24-0.48,0.39-0.65,0.44c-0.08-0.16-0.12-0.4-0.15-0.77c-0.04,0.37-0.07,0.61-0.16,0.78c-0.17-0.05-0.37-0.2-0.67-0.43
				c0.24,0.28,0.39,0.48,0.44,0.65c-0.16,0.08-0.4,0.12-0.77,0.15c0.37,0.04,0.61,0.07,0.78,0.16c-0.05,0.17-0.2,0.37-0.43,0.67
				c0.28-0.24,0.48-0.39,0.65-0.44c0.08,0.16,0.12,0.4,0.15,0.77c0.04-0.37,0.07-0.61,0.16-0.78c0.17,0.05,0.37,0.2,0.67,0.43
				C243.02,249.15,242.87,248.95,242.81,248.78z"/>
			<path class="st1" d="M232.23,245.12c0.16-0.08,0.4-0.12,0.77-0.15c-0.37-0.04-0.61-0.07-0.78-0.16c0.05-0.17,0.2-0.37,0.43-0.67
				c-0.28,0.24-0.48,0.39-0.65,0.44c-0.08-0.16-0.12-0.4-0.15-0.77c-0.04,0.37-0.07,0.61-0.16,0.78c-0.17-0.05-0.37-0.2-0.67-0.43
				c0.24,0.28,0.39,0.48,0.44,0.65c-0.16,0.08-0.4,0.12-0.77,0.15c0.37,0.04,0.61,0.07,0.78,0.16c-0.05,0.17-0.2,0.37-0.43,0.67
				c0.28-0.24,0.48-0.39,0.65-0.44c0.08,0.16,0.12,0.4,0.15,0.77c0.04-0.37,0.07-0.61,0.16-0.78c0.17,0.05,0.37,0.2,0.67,0.43
				C232.43,245.49,232.28,245.29,232.23,245.12z"/>
			<path class="st1" d="M195.28,262.18c0.16-0.08,0.4-0.12,0.77-0.15c-0.37-0.04-0.61-0.07-0.78-0.16c0.05-0.17,0.2-0.37,0.43-0.67
				c-0.28,0.24-0.48,0.39-0.65,0.44c-0.08-0.16-0.12-0.4-0.15-0.77c-0.04,0.37-0.07,0.61-0.16,0.78c-0.17-0.05-0.37-0.2-0.67-0.43
				c0.24,0.28,0.39,0.48,0.44,0.65c-0.16,0.08-0.4,0.12-0.77,0.15c0.37,0.04,0.61,0.07,0.78,0.16c-0.05,0.17-0.2,0.37-0.43,0.67
				c0.28-0.24,0.48-0.39,0.65-0.44c0.08,0.16,0.12,0.4,0.15,0.77c0.04-0.37,0.07-0.61,0.16-0.78c0.17,0.05,0.37,0.2,0.67,0.43
				C195.49,262.55,195.34,262.35,195.28,262.18z"/>
			<path class="st1" d="M173.7,215.5c0.16-0.08,0.4-0.12,0.77-0.15c-0.37-0.04-0.61-0.07-0.78-0.16c0.05-0.17,0.2-0.37,0.43-0.67
				c-0.28,0.24-0.48,0.39-0.65,0.44c-0.08-0.16-0.12-0.4-0.15-0.77c-0.04,0.37-0.07,0.61-0.16,0.78c-0.17-0.05-0.37-0.2-0.67-0.43
				c0.24,0.28,0.39,0.48,0.44,0.65c-0.16,0.08-0.4,0.12-0.77,0.15c0.37,0.04,0.61,0.07,0.78,0.16c-0.05,0.17-0.2,0.37-0.43,0.67
				c0.28-0.24,0.48-0.39,0.65-0.44c0.08,0.16,0.12,0.4,0.15,0.77c0.04-0.37,0.07-0.61,0.16-0.78c0.17,0.05,0.37,0.2,0.67,0.43
				C173.91,215.86,173.76,215.67,173.7,215.5z"/>
			<path class="st1" d="M144.25,238.92c0.16-0.08,0.4-0.12,0.77-0.15c-0.37-0.04-0.61-0.07-0.78-0.16c0.05-0.17,0.2-0.37,0.43-0.67
				c-0.28,0.24-0.48,0.39-0.65,0.44c-0.08-0.16-0.12-0.4-0.15-0.77c-0.04,0.37-0.07,0.61-0.16,0.78c-0.17-0.05-0.37-0.2-0.67-0.43
				c0.24,0.28,0.39,0.48,0.44,0.65c-0.16,0.08-0.4,0.12-0.77,0.15c0.37,0.04,0.61,0.07,0.78,0.16c-0.05,0.17-0.2,0.37-0.43,0.67
				c0.28-0.24,0.48-0.39,0.65-0.44c0.08,0.16,0.12,0.4,0.15,0.77c0.04-0.37,0.07-0.61,0.16-0.78c0.17,0.05,0.37,0.2,0.67,0.43
				C144.45,239.29,144.31,239.1,144.25,238.92z"/>
			<path class="st1" d="M197.35,201.88c0.16-0.08,0.4-0.12,0.77-0.15c-0.37-0.04-0.61-0.07-0.78-0.16c0.05-0.17,0.2-0.37,0.43-0.67
				c-0.28,0.24-0.48,0.39-0.65,0.44c-0.08-0.16-0.12-0.4-0.15-0.77c-0.04,0.37-0.07,0.61-0.16,0.78c-0.17-0.05-0.37-0.2-0.67-0.43
				c0.24,0.28,0.39,0.48,0.44,0.65c-0.16,0.08-0.4,0.12-0.77,0.15c0.37,0.04,0.61,0.07,0.78,0.16c-0.05,0.17-0.2,0.37-0.43,0.67
				c0.28-0.24,0.48-0.39,0.65-0.44c0.08,0.16,0.12,0.4,0.15,0.77c0.04-0.37,0.07-0.61,0.16-0.78c0.17,0.05,0.37,0.2,0.67,0.43
				C197.56,202.24,197.41,202.05,197.35,201.88z"/>
			<path class="st1" d="M146.55,199.46c0.16-0.08,0.4-0.12,0.77-0.15c-0.37-0.04-0.61-0.07-0.78-0.16c0.05-0.17,0.2-0.37,0.43-0.67
				c-0.28,0.24-0.48,0.39-0.65,0.44c-0.08-0.16-0.12-0.4-0.15-0.77c-0.04,0.37-0.07,0.61-0.16,0.78c-0.17-0.05-0.37-0.2-0.67-0.43
				c0.24,0.28,0.39,0.48,0.44,0.65c-0.16,0.08-0.4,0.12-0.77,0.15c0.37,0.04,0.61,0.07,0.78,0.16c-0.05,0.17-0.2,0.37-0.43,0.67
				c0.28-0.24,0.48-0.39,0.65-0.44c0.08,0.16,0.12,0.4,0.15,0.77c0.04-0.37,0.07-0.61,0.16-0.78c0.17,0.05,0.37,0.2,0.67,0.43
				C146.75,199.82,146.61,199.63,146.55,199.46z"/>
			<path class="st1" d="M188.15,222.56c0.16-0.08,0.4-0.12,0.77-0.15c-0.37-0.04-0.61-0.07-0.78-0.16c0.05-0.17,0.2-0.37,0.43-0.67
				c-0.28,0.24-0.48,0.39-0.65,0.44c-0.08-0.16-0.12-0.4-0.15-0.77c-0.04,0.37-0.07,0.61-0.16,0.78c-0.17-0.05-0.37-0.2-0.67-0.43
				c0.24,0.28,0.39,0.48,0.44,0.65c-0.16,0.08-0.4,0.12-0.77,0.15c0.37,0.04,0.61,0.07,0.78,0.16c-0.05,0.17-0.2,0.37-0.43,0.67
				c0.28-0.24,0.48-0.39,0.65-0.44c0.08,0.16,0.12,0.4,0.15,0.77c0.04-0.37,0.07-0.61,0.16-0.78c0.17,0.05,0.37,0.2,0.67,0.43
				C188.35,222.92,188.21,222.73,188.15,222.56z"/>
			<path class="st1" d="M208.51,220.53c0.16-0.08,0.4-0.12,0.77-0.15c-0.37-0.04-0.61-0.07-0.78-0.16c0.05-0.17,0.2-0.37,0.43-0.67
				c-0.28,0.24-0.48,0.39-0.65,0.44c-0.08-0.16-0.12-0.4-0.15-0.77c-0.04,0.37-0.07,0.61-0.16,0.78c-0.17-0.05-0.37-0.2-0.67-0.43
				c0.24,0.28,0.39,0.48,0.44,0.65c-0.16,0.08-0.4,0.12-0.77,0.15c0.37,0.04,0.61,0.07,0.78,0.16c-0.05,0.17-0.2,0.37-0.43,0.67
				c0.28-0.24,0.48-0.39,0.65-0.44c0.08,0.16,0.12,0.4,0.15,0.77c0.04-0.37,0.07-0.61,0.16-0.78c0.17,0.05,0.37,0.2,0.67,0.43
				C208.72,220.9,208.57,220.71,208.51,220.53z"/>
			<path class="st1" d="M278.71,246.67c0.16-0.08,0.4-0.12,0.77-0.15c-0.37-0.04-0.61-0.07-0.78-0.16c0.05-0.17,0.2-0.37,0.43-0.67
				c-0.28,0.24-0.48,0.39-0.65,0.44c-0.08-0.16-0.12-0.4-0.15-0.77c-0.04,0.37-0.07,0.61-0.16,0.78c-0.17-0.05-0.37-0.2-0.67-0.43
				c0.24,0.28,0.39,0.48,0.44,0.65c-0.16,0.08-0.4,0.12-0.77,0.15c0.37,0.04,0.61,0.07,0.78,0.16c-0.05,0.17-0.2,0.37-0.43,0.67
				c0.28-0.24,0.48-0.39,0.65-0.44c0.08,0.16,0.12,0.4,0.15,0.77c0.04-0.37,0.07-0.61,0.16-0.78c0.17,0.05,0.37,0.2,0.67,0.43
				C278.92,247.04,278.77,246.84,278.71,246.67z"/>
			<path class="st1" d="M271.53,253.83c0.16-0.08,0.4-0.12,0.77-0.15c-0.37-0.04-0.61-0.07-0.78-0.16c0.05-0.17,0.2-0.37,0.43-0.67
				c-0.28,0.24-0.48,0.39-0.65,0.44c-0.08-0.16-0.12-0.4-0.15-0.77c-0.04,0.37-0.07,0.61-0.16,0.78c-0.17-0.05-0.37-0.2-0.67-0.43
				c0.24,0.28,0.39,0.48,0.44,0.65c-0.16,0.08-0.4,0.12-0.77,0.15c0.37,0.04,0.61,0.07,0.78,0.16c-0.05,0.17-0.2,0.37-0.43,0.67
				c0.28-0.24,0.48-0.39,0.65-0.44c0.08,0.16,0.12,0.4,0.15,0.77c0.04-0.37,0.07-0.61,0.16-0.78c0.17,0.05,0.37,0.2,0.67,0.43
				C271.74,254.2,271.59,254.01,271.53,253.83z"/>
			<path class="st1" d="M307.28,232.12c0.16-0.08,0.4-0.12,0.77-0.15c-0.37-0.04-0.61-0.07-0.78-0.16c0.05-0.17,0.2-0.37,0.43-0.67
				c-0.28,0.24-0.48,0.39-0.65,0.44c-0.08-0.16-0.12-0.4-0.15-0.77c-0.04,0.37-0.07,0.61-0.16,0.78c-0.17-0.05-0.37-0.2-0.67-0.43
				c0.24,0.28,0.39,0.48,0.44,0.65c-0.16,0.08-0.4,0.12-0.77,0.15c0.37,0.04,0.61,0.07,0.78,0.16c-0.05,0.17-0.2,0.37-0.43,0.67
				c0.28-0.24,0.48-0.39,0.65-0.44c0.08,0.16,0.12,0.4,0.15,0.77c0.04-0.37,0.07-0.61,0.16-0.78c0.17,0.05,0.37,0.2,0.67,0.43
				C307.49,232.49,307.34,232.3,307.28,232.12z"/>
			<path class="st1" d="M208.51,267.34c0.16-0.08,0.4-0.12,0.77-0.15c-0.37-0.04-0.61-0.07-0.78-0.16c0.05-0.17,0.2-0.37,0.43-0.67
				c-0.28,0.24-0.48,0.39-0.65,0.44c-0.08-0.16-0.12-0.4-0.15-0.77c-0.04,0.37-0.07,0.61-0.16,0.78c-0.17-0.05-0.37-0.2-0.67-0.43
				c0.24,0.28,0.39,0.48,0.44,0.65c-0.16,0.08-0.4,0.12-0.77,0.15c0.37,0.04,0.61,0.07,0.78,0.16c-0.05,0.17-0.2,0.37-0.43,0.67
				c0.28-0.24,0.48-0.39,0.65-0.44c0.08,0.16,0.12,0.4,0.15,0.77c0.04-0.37,0.07-0.61,0.16-0.78c0.17,0.05,0.37,0.2,0.67,0.43
				C208.72,267.71,208.57,267.51,208.51,267.34z"/>
			<path class="st1" d="M158.27,263.33c0.16-0.08,0.4-0.12,0.77-0.15c-0.37-0.04-0.61-0.07-0.78-0.16c0.05-0.17,0.2-0.37,0.43-0.67
				c-0.28,0.24-0.48,0.39-0.65,0.44c-0.08-0.16-0.12-0.4-0.15-0.77c-0.04,0.37-0.07,0.61-0.16,0.78c-0.17-0.05-0.37-0.2-0.67-0.43
				c0.24,0.28,0.39,0.48,0.44,0.65c-0.16,0.08-0.4,0.12-0.77,0.15c0.37,0.04,0.61,0.07,0.78,0.16c-0.05,0.17-0.2,0.37-0.43,0.67
				c0.28-0.24,0.48-0.39,0.65-0.44c0.08,0.16,0.12,0.4,0.15,0.77c0.04-0.37,0.07-0.61,0.16-0.78c0.17,0.05,0.37,0.2,0.67,0.43
				C158.48,263.7,158.33,263.51,158.27,263.33z"/>
			<path class="st1" d="M270.38,217.8c0.16-0.08,0.4-0.12,0.77-0.15c-0.37-0.04-0.61-0.07-0.78-0.16c0.05-0.17,0.2-0.37,0.43-0.67
				c-0.28,0.24-0.48,0.39-0.65,0.44c-0.08-0.16-0.12-0.4-0.15-0.77c-0.04,0.37-0.07,0.61-0.16,0.78c-0.17-0.05-0.37-0.2-0.67-0.43
				c0.24,0.28,0.39,0.48,0.44,0.65c-0.16,0.08-0.4,0.12-0.77,0.15c0.37,0.04,0.61,0.07,0.78,0.16c-0.05,0.17-0.2,0.37-0.43,0.67
				c0.28-0.24,0.48-0.39,0.65-0.44c0.08,0.16,0.12,0.4,0.15,0.77c0.04-0.37,0.07-0.61,0.16-0.78c0.17,0.05,0.37,0.2,0.67,0.43
				C270.59,218.16,270.44,217.97,270.38,217.8z"/>
			<path class="st1" d="M172.55,222.03c0.16-0.08,0.4-0.12,0.77-0.15c-0.37-0.04-0.61-0.07-0.78-0.16c0.05-0.17,0.2-0.37,0.43-0.67
				c-0.28,0.24-0.48,0.39-0.65,0.44c-0.08-0.16-0.12-0.4-0.15-0.77c-0.04,0.37-0.07,0.61-0.16,0.78c-0.17-0.05-0.37-0.2-0.67-0.43
				c0.24,0.28,0.39,0.48,0.44,0.65c-0.16,0.08-0.4,0.12-0.77,0.15c0.37,0.04,0.61,0.07,0.78,0.16c-0.05,0.17-0.2,0.37-0.43,0.67
				c0.28-0.24,0.48-0.39,0.65-0.44c0.08,0.16,0.12,0.4,0.15,0.77c0.04-0.37,0.07-0.61,0.16-0.78c0.17,0.05,0.37,0.2,0.67,0.43
				C172.76,222.39,172.61,222.2,172.55,222.03z"/>
			<path class="st1" d="M355.65,245.12c0.16-0.08,0.4-0.12,0.77-0.15c-0.37-0.04-0.61-0.07-0.78-0.16c0.05-0.17,0.2-0.37,0.43-0.67
				c-0.28,0.24-0.48,0.39-0.65,0.44c-0.08-0.16-0.12-0.4-0.15-0.77c-0.04,0.37-0.07,0.61-0.16,0.78c-0.17-0.05-0.37-0.2-0.67-0.43
				c0.24,0.28,0.39,0.48,0.44,0.65c-0.16,0.08-0.4,0.12-0.77,0.15c0.37,0.04,0.61,0.07,0.78,0.16c-0.05,0.17-0.2,0.37-0.43,0.67
				c0.28-0.24,0.48-0.39,0.65-0.44c0.08,0.16,0.12,0.4,0.15,0.77c0.04-0.37,0.07-0.61,0.16-0.78c0.17,0.05,0.37,0.2,0.67,0.43
				C355.86,245.49,355.71,245.29,355.65,245.12z"/>
			<path class="st1" d="M398.7,233.27c0.16-0.08,0.4-0.12,0.77-0.15c-0.37-0.04-0.61-0.07-0.78-0.16c0.05-0.17,0.2-0.37,0.43-0.67
				c-0.28,0.24-0.48,0.39-0.65,0.44c-0.08-0.16-0.12-0.4-0.15-0.77c-0.04,0.37-0.07,0.61-0.16,0.78c-0.17-0.05-0.37-0.2-0.67-0.43
				c0.24,0.28,0.39,0.48,0.44,0.65c-0.16,0.08-0.4,0.12-0.77,0.15c0.37,0.04,0.61,0.07,0.78,0.16c-0.05,0.17-0.2,0.37-0.43,0.67
				c0.28-0.24,0.48-0.39,0.65-0.44c0.08,0.16,0.12,0.4,0.15,0.77c0.04-0.37,0.07-0.61,0.16-0.78c0.17,0.05,0.37,0.2,0.67,0.43
				C398.91,233.64,398.76,233.45,398.7,233.27z"/>
			<path class="st1" d="M399.86,208.68c0.16-0.08,0.4-0.12,0.77-0.15c-0.37-0.04-0.61-0.07-0.78-0.16c0.05-0.17,0.2-0.37,0.43-0.67
				c-0.28,0.24-0.48,0.39-0.65,0.44c-0.08-0.16-0.12-0.4-0.15-0.77c-0.04,0.37-0.07,0.61-0.16,0.78c-0.17-0.05-0.37-0.2-0.67-0.43
				c0.24,0.28,0.39,0.48,0.44,0.65c-0.16,0.08-0.4,0.12-0.77,0.15c0.37,0.04,0.61,0.07,0.78,0.16c-0.05,0.17-0.2,0.37-0.43,0.67
				c0.28-0.24,0.48-0.39,0.65-0.44c0.08,0.16,0.12,0.4,0.15,0.77c0.04-0.37,0.07-0.61,0.16-0.78c0.17,0.05,0.37,0.2,0.67,0.43
				C400.06,209.05,399.91,208.85,399.86,208.68z"/>
			<path class="st1" d="M399.86,260.35c0.16-0.08,0.4-0.12,0.77-0.15c-0.37-0.04-0.61-0.07-0.78-0.16c0.05-0.17,0.2-0.37,0.43-0.67
				c-0.28,0.24-0.48,0.39-0.65,0.44c-0.08-0.16-0.12-0.4-0.15-0.77c-0.04,0.37-0.07,0.61-0.16,0.78c-0.17-0.05-0.37-0.2-0.67-0.43
				c0.24,0.28,0.39,0.48,0.44,0.65c-0.16,0.08-0.4,0.12-0.77,0.15c0.37,0.04,0.61,0.07,0.78,0.16c-0.05,0.17-0.2,0.37-0.43,0.67
				c0.28-0.24,0.48-0.39,0.65-0.44c0.08,0.16,0.12,0.4,0.15,0.77c0.04-0.37,0.07-0.61,0.16-0.78c0.17,0.05,0.37,0.2,0.67,0.43
				C400.06,260.72,399.91,260.52,399.86,260.35z"/>
			<path class="st1" d="M282.85,257.99c0.16-0.08,0.4-0.12,0.77-0.15c-0.37-0.04-0.61-0.07-0.78-0.16c0.05-0.17,0.2-0.37,0.43-0.67
				c-0.28,0.24-0.48,0.39-0.65,0.44c-0.08-0.16-0.12-0.4-0.15-0.77c-0.04,0.37-0.07,0.61-0.16,0.78c-0.17-0.05-0.37-0.2-0.67-0.43
				c0.24,0.28,0.39,0.48,0.44,0.65c-0.16,0.08-0.4,0.12-0.77,0.15c0.37,0.04,0.61,0.07,0.78,0.16c-0.05,0.17-0.2,0.37-0.43,0.67
				c0.28-0.24,0.48-0.39,0.65-0.44c0.08,0.16,0.12,0.4,0.15,0.77c0.04-0.37,0.07-0.61,0.16-0.78c0.17,0.05,0.37,0.2,0.67,0.43
				C283.06,258.36,282.91,258.17,282.85,257.99z"/>
			<path class="st1" d="M336.78,271.94c0.16-0.08,0.4-0.12,0.77-0.15c-0.37-0.04-0.61-0.07-0.78-0.16c0.05-0.17,0.2-0.37,0.43-0.67
				c-0.28,0.24-0.48,0.39-0.65,0.44c-0.08-0.16-0.12-0.4-0.15-0.77c-0.04,0.37-0.07,0.61-0.16,0.78c-0.17-0.05-0.37-0.2-0.67-0.43
				c0.24,0.28,0.39,0.48,0.44,0.65c-0.16,0.08-0.4,0.12-0.77,0.15c0.37,0.04,0.61,0.07,0.78,0.16c-0.05,0.17-0.2,0.37-0.43,0.67
				c0.28-0.24,0.48-0.39,0.65-0.44c0.08,0.16,0.12,0.4,0.15,0.77c0.04-0.37,0.07-0.61,0.16-0.78c0.17,0.05,0.37,0.2,0.67,0.43
				C336.98,272.31,336.83,272.11,336.78,271.94z"/>
			<path class="st1" d="M313.77,206.39c0.16-0.08,0.4-0.12,0.77-0.15c-0.37-0.04-0.61-0.07-0.78-0.16c0.05-0.17,0.2-0.37,0.43-0.67
				c-0.28,0.24-0.48,0.39-0.65,0.44c-0.08-0.16-0.12-0.4-0.15-0.77c-0.04,0.37-0.07,0.61-0.16,0.78c-0.17-0.05-0.37-0.2-0.67-0.43
				c0.24,0.28,0.39,0.48,0.44,0.65c-0.16,0.08-0.4,0.12-0.77,0.15c0.37,0.04,0.61,0.07,0.78,0.16c-0.05,0.17-0.2,0.37-0.43,0.67
				c0.28-0.24,0.48-0.39,0.65-0.44c0.08,0.16,0.12,0.4,0.15,0.77c0.04-0.37,0.07-0.61,0.16-0.78c0.17,0.05,0.37,0.2,0.67,0.43
				C313.97,206.76,313.83,206.57,313.77,206.39z"/>
			<path class="st1" d="M369.13,193.5c0.16-0.08,0.4-0.12,0.77-0.15c-0.37-0.04-0.61-0.07-0.78-0.16c0.05-0.17,0.2-0.37,0.43-0.67
				c-0.28,0.24-0.48,0.39-0.65,0.44c-0.08-0.16-0.12-0.4-0.15-0.77c-0.04,0.37-0.07,0.61-0.16,0.78c-0.17-0.05-0.37-0.2-0.67-0.43
				c0.24,0.28,0.39,0.48,0.44,0.65c-0.16,0.08-0.4,0.12-0.77,0.15c0.37,0.04,0.61,0.07,0.78,0.16c-0.05,0.17-0.2,0.37-0.43,0.67
				c0.28-0.24,0.48-0.39,0.65-0.44c0.08,0.16,0.12,0.4,0.15,0.77c0.04-0.37,0.07-0.61,0.16-0.78c0.17,0.05,0.37,0.2,0.67,0.43
				C369.34,193.86,369.19,193.67,369.13,193.5z"/>
			<path class="st1" d="M411.38,213.03c0.16-0.08,0.4-0.12,0.77-0.15c-0.37-0.04-0.61-0.07-0.78-0.16c0.05-0.17,0.2-0.37,0.43-0.67
				c-0.28,0.24-0.48,0.39-0.65,0.44c-0.08-0.16-0.12-0.4-0.15-0.77c-0.04,0.37-0.07,0.61-0.16,0.78c-0.17-0.05-0.37-0.2-0.67-0.43
				c0.24,0.28,0.39,0.48,0.44,0.65c-0.16,0.08-0.4,0.12-0.77,0.15c0.37,0.04,0.61,0.07,0.78,0.16c-0.05,0.17-0.2,0.37-0.43,0.67
				c0.28-0.24,0.48-0.39,0.65-0.44c0.08,0.16,0.12,0.4,0.15,0.77c0.04-0.37,0.07-0.61,0.16-0.78c0.17,0.05,0.37,0.2,0.67,0.43
				C411.59,213.39,411.44,213.2,411.38,213.03z"/>
			<path class="st1" d="M392.08,214.18c0.16-0.08,0.4-0.12,0.77-0.15c-0.37-0.04-0.61-0.07-0.78-0.16c0.05-0.17,0.2-0.37,0.43-0.67
				c-0.28,0.24-0.48,0.39-0.65,0.44c-0.08-0.16-0.12-0.4-0.15-0.77c-0.04,0.37-0.07,0.61-0.16,0.78c-0.17-0.05-0.37-0.2-0.67-0.43
				c0.24,0.28,0.39,0.48,0.44,0.65c-0.16,0.08-0.4,0.12-0.77,0.15c0.37,0.04,0.61,0.07,0.78,0.16c-0.05,0.17-0.2,0.37-0.43,0.67
				c0.28-0.24,0.48-0.39,0.65-0.44c0.08,0.16,0.12,0.4,0.15,0.77c0.04-0.37,0.07-0.61,0.16-0.78c0.17,0.05,0.37,0.2,0.67,0.43
				C392.28,214.54,392.13,214.35,392.08,214.18z"/>
			<path class="st1" d="M396.64,195.8c0.16-0.08,0.4-0.12,0.77-0.15c-0.37-0.04-0.61-0.07-0.78-0.16c0.05-0.17,0.2-0.37,0.43-0.67
				c-0.28,0.24-0.48,0.39-0.65,0.44c-0.08-0.16-0.12-0.4-0.15-0.77c-0.04,0.37-0.07,0.61-0.16,0.78c-0.17-0.05-0.37-0.2-0.67-0.43
				c0.24,0.28,0.39,0.48,0.44,0.65c-0.16,0.08-0.4,0.12-0.77,0.15c0.37,0.04,0.61,0.07,0.78,0.16c-0.05,0.17-0.2,0.37-0.43,0.67
				c0.28-0.24,0.48-0.39,0.65-0.44c0.08,0.16,0.12,0.4,0.15,0.77c0.04-0.37,0.07-0.61,0.16-0.78c0.17,0.05,0.37,0.2,0.67,0.43
				C396.85,196.17,396.7,195.97,396.64,195.8z"/>
			<path class="st1" d="M420.56,245.52c0.16-0.08,0.4-0.12,0.77-0.15c-0.37-0.04-0.61-0.07-0.78-0.16c0.05-0.17,0.2-0.37,0.43-0.67
				c-0.28,0.24-0.48,0.39-0.65,0.44c-0.08-0.16-0.12-0.4-0.15-0.77c-0.04,0.37-0.07,0.61-0.16,0.78c-0.17-0.05-0.37-0.2-0.67-0.43
				c0.24,0.28,0.39,0.48,0.44,0.65c-0.16,0.08-0.4,0.12-0.77,0.15c0.37,0.04,0.61,0.07,0.78,0.16c-0.05,0.17-0.2,0.37-0.43,0.67
				c0.28-0.24,0.48-0.39,0.65-0.44c0.08,0.16,0.12,0.4,0.15,0.77c0.04-0.37,0.07-0.61,0.16-0.78c0.17,0.05,0.37,0.2,0.67,0.43
				C420.77,245.88,420.62,245.69,420.56,245.52z"/>
			<path class="st1" d="M414.97,233.27c0.16-0.08,0.4-0.12,0.77-0.15c-0.37-0.04-0.61-0.07-0.78-0.16c0.05-0.17,0.2-0.37,0.43-0.67
				c-0.28,0.24-0.48,0.39-0.65,0.44c-0.08-0.16-0.12-0.4-0.15-0.77c-0.04,0.37-0.07,0.61-0.16,0.78c-0.17-0.05-0.37-0.2-0.67-0.43
				c0.24,0.28,0.39,0.48,0.44,0.65c-0.16,0.08-0.4,0.12-0.77,0.15c0.37,0.04,0.61,0.07,0.78,0.16c-0.05,0.17-0.2,0.37-0.43,0.67
				c0.28-0.24,0.48-0.39,0.65-0.44c0.08,0.16,0.12,0.4,0.15,0.77c0.04-0.37,0.07-0.61,0.16-0.78c0.17,0.05,0.37,0.2,0.67,0.43
				C415.17,233.64,415.02,233.45,414.97,233.27z"/>
			<path class="st1" d="M445.05,240.42c0.16-0.08,0.4-0.12,0.77-0.15c-0.37-0.04-0.61-0.07-0.78-0.16c0.05-0.17,0.2-0.37,0.43-0.67
				c-0.28,0.24-0.48,0.39-0.65,0.44c-0.08-0.16-0.12-0.4-0.15-0.77c-0.04,0.37-0.07,0.61-0.16,0.78c-0.17-0.05-0.37-0.2-0.67-0.43
				c0.24,0.28,0.39,0.48,0.44,0.65c-0.16,0.08-0.4,0.12-0.77,0.15c0.37,0.04,0.61,0.07,0.78,0.16c-0.05,0.17-0.2,0.37-0.43,0.67
				c0.28-0.24,0.48-0.39,0.65-0.44c0.08,0.16,0.12,0.4,0.15,0.77c0.04-0.37,0.07-0.61,0.16-0.78c0.17,0.05,0.37,0.2,0.67,0.43
				C445.25,240.78,445.1,240.59,445.05,240.42z"/>
			<path class="st1" d="M438.62,226.17c0.16-0.08,0.4-0.12,0.77-0.15c-0.37-0.04-0.61-0.07-0.78-0.16c0.05-0.17,0.2-0.37,0.43-0.67
				c-0.28,0.24-0.48,0.39-0.65,0.44c-0.08-0.16-0.12-0.4-0.15-0.77c-0.04,0.37-0.07,0.61-0.16,0.78c-0.17-0.05-0.37-0.2-0.67-0.43
				c0.24,0.28,0.39,0.48,0.44,0.65c-0.16,0.08-0.4,0.12-0.77,0.15c0.37,0.04,0.61,0.07,0.78,0.16c-0.05,0.17-0.2,0.37-0.43,0.67
				c0.28-0.24,0.48-0.39,0.65-0.44c0.08,0.16,0.12,0.4,0.15,0.77c0.04-0.37,0.07-0.61,0.16-0.78c0.17,0.05,0.37,0.2,0.67,0.43
				C438.83,226.53,438.68,226.34,438.62,226.17z"/>
			<path class="st1" d="M380.08,199.8c0.16-0.08,0.4-0.12,0.77-0.15c-0.37-0.04-0.61-0.07-0.78-0.16c0.05-0.17,0.2-0.37,0.43-0.67
				c-0.28,0.24-0.48,0.39-0.65,0.44c-0.08-0.16-0.12-0.4-0.15-0.77c-0.04,0.37-0.07,0.61-0.16,0.78c-0.17-0.05-0.37-0.2-0.67-0.43
				c0.24,0.28,0.39,0.48,0.44,0.65c-0.16,0.08-0.4,0.12-0.77,0.15c0.37,0.04,0.61,0.07,0.78,0.16c-0.05,0.17-0.2,0.37-0.43,0.67
				c0.28-0.24,0.48-0.39,0.65-0.44c0.08,0.16,0.12,0.4,0.15,0.77c0.04-0.37,0.07-0.61,0.16-0.78c0.17,0.05,0.37,0.2,0.67,0.43
				C380.28,200.17,380.13,199.98,380.08,199.8z"/>
			<path class="st1" d="M383.63,279.85c0.16-0.08,0.4-0.12,0.77-0.15c-0.37-0.04-0.61-0.07-0.78-0.16c0.05-0.17,0.2-0.37,0.43-0.67
				c-0.28,0.24-0.48,0.39-0.65,0.44c-0.08-0.16-0.12-0.4-0.15-0.77c-0.04,0.37-0.07,0.61-0.16,0.78c-0.17-0.05-0.37-0.2-0.67-0.43
				c0.24,0.28,0.39,0.48,0.44,0.65c-0.16,0.08-0.4,0.12-0.77,0.15c0.37,0.04,0.61,0.07,0.78,0.16c-0.05,0.17-0.2,0.37-0.43,0.67
				c0.28-0.24,0.48-0.39,0.65-0.44c0.08,0.16,0.12,0.4,0.15,0.77c0.04-0.37,0.07-0.61,0.16-0.78c0.17,0.05,0.37,0.2,0.67,0.43
				C383.83,280.21,383.68,280.02,383.63,279.85z"/>
			<path class="st1" d="M319.23,253.6c0.16-0.08,0.4-0.12,0.77-0.15c-0.37-0.04-0.61-0.07-0.78-0.16c0.05-0.17,0.2-0.37,0.43-0.67
				c-0.28,0.24-0.48,0.39-0.65,0.44c-0.08-0.16-0.12-0.4-0.15-0.77c-0.04,0.37-0.07,0.61-0.16,0.78c-0.17-0.05-0.37-0.2-0.67-0.43
				c0.24,0.28,0.39,0.48,0.44,0.65c-0.16,0.08-0.4,0.12-0.77,0.15c0.37,0.04,0.61,0.07,0.78,0.16c-0.05,0.17-0.2,0.37-0.43,0.67
				c0.28-0.24,0.48-0.39,0.65-0.44c0.08,0.16,0.12,0.4,0.15,0.77c0.04-0.37,0.07-0.61,0.16-0.78c0.17,0.05,0.37,0.2,0.67,0.43
				C319.44,253.97,319.29,253.77,319.23,253.6z"/>
			<path class="st1" d="M386.2,140.29c0.16-0.08,0.4-0.12,0.77-0.15c-0.37-0.04-0.61-0.07-0.78-0.16c0.05-0.17,0.2-0.37,0.43-0.67
				c-0.28,0.24-0.48,0.39-0.65,0.44c-0.08-0.16-0.12-0.4-0.15-0.77c-0.04,0.37-0.07,0.61-0.16,0.78c-0.17-0.05-0.37-0.2-0.67-0.43
				c0.24,0.28,0.39,0.48,0.44,0.65c-0.16,0.08-0.4,0.12-0.77,0.15c0.37,0.04,0.61,0.07,0.78,0.16c-0.05,0.17-0.2,0.37-0.43,0.67
				c0.28-0.24,0.48-0.39,0.65-0.44c0.08,0.16,0.12,0.4,0.15,0.77c0.04-0.37,0.07-0.61,0.16-0.78c0.17,0.05,0.37,0.2,0.67,0.43
				C386.41,140.65,386.26,140.46,386.2,140.29z"/>
			<path class="st1" d="M377.18,160.24c0.16-0.08,0.4-0.12,0.77-0.15c-0.37-0.04-0.61-0.07-0.78-0.16c0.05-0.17,0.2-0.37,0.43-0.67
				c-0.28,0.24-0.48,0.39-0.65,0.44c-0.08-0.16-0.12-0.4-0.15-0.77c-0.04,0.37-0.07,0.61-0.16,0.78c-0.17-0.05-0.37-0.2-0.67-0.43
				c0.24,0.28,0.39,0.48,0.44,0.65c-0.16,0.08-0.4,0.12-0.77,0.15c0.37,0.04,0.61,0.07,0.78,0.16c-0.05,0.17-0.2,0.37-0.43,0.67
				c0.28-0.24,0.48-0.39,0.65-0.44c0.08,0.16,0.12,0.4,0.15,0.77c0.04-0.37,0.07-0.61,0.16-0.78c0.17,0.05,0.37,0.2,0.67,0.43
				C377.38,160.61,377.23,160.41,377.18,160.24z"/>
			<path class="st1" d="M404.71,166.24c0.16-0.08,0.4-0.12,0.77-0.15c-0.37-0.04-0.61-0.07-0.78-0.16c0.05-0.17,0.2-0.37,0.43-0.67
				c-0.28,0.24-0.48,0.39-0.65,0.44c-0.08-0.16-0.12-0.4-0.15-0.77c-0.04,0.37-0.07,0.61-0.16,0.78c-0.17-0.05-0.37-0.2-0.67-0.43
				c0.24,0.28,0.39,0.48,0.44,0.65c-0.16,0.08-0.4,0.12-0.77,0.15c0.37,0.04,0.61,0.07,0.78,0.16c-0.05,0.17-0.2,0.37-0.43,0.67
				c0.28-0.24,0.48-0.39,0.65-0.44c0.08,0.16,0.12,0.4,0.15,0.77c0.04-0.37,0.07-0.61,0.16-0.78c0.17,0.05,0.37,0.2,0.67,0.43
				C404.92,166.61,404.77,166.41,404.71,166.24z"/>
			<path class="st1" d="M369.13,152.99c0.16-0.08,0.4-0.12,0.77-0.15c-0.37-0.04-0.61-0.07-0.78-0.16c0.05-0.17,0.2-0.37,0.43-0.67
				c-0.28,0.24-0.48,0.39-0.65,0.44c-0.08-0.16-0.12-0.4-0.15-0.77c-0.04,0.37-0.07,0.61-0.16,0.78c-0.17-0.05-0.37-0.2-0.67-0.43
				c0.24,0.28,0.39,0.48,0.44,0.65c-0.16,0.08-0.4,0.12-0.77,0.15c0.37,0.04,0.61,0.07,0.78,0.16c-0.05,0.17-0.2,0.37-0.43,0.67
				c0.28-0.24,0.48-0.39,0.65-0.44c0.08,0.16,0.12,0.4,0.15,0.77c0.04-0.37,0.07-0.61,0.16-0.78c0.17,0.05,0.37,0.2,0.67,0.43
				C369.34,153.35,369.19,153.16,369.13,152.99z"/>
			<path class="st1" d="M370.28,119.18c0.16-0.08,0.4-0.12,0.77-0.15c-0.37-0.04-0.61-0.07-0.78-0.16c0.05-0.17,0.2-0.37,0.43-0.67
				c-0.28,0.24-0.48,0.39-0.65,0.44c-0.08-0.16-0.12-0.4-0.15-0.77c-0.04,0.37-0.07,0.61-0.16,0.78c-0.17-0.05-0.37-0.2-0.67-0.43
				c0.24,0.28,0.39,0.48,0.44,0.65c-0.16,0.08-0.4,0.12-0.77,0.15c0.37,0.04,0.61,0.07,0.78,0.16c-0.05,0.17-0.2,0.37-0.43,0.67
				c0.28-0.24,0.48-0.39,0.65-0.44c0.08,0.16,0.12,0.4,0.15,0.77c0.04-0.37,0.07-0.61,0.16-0.78c0.17,0.05,0.37,0.2,0.67,0.43
				C370.49,119.54,370.34,119.35,370.28,119.18z"/>
			<path class="st1" d="M350.47,168.81c0.16-0.08,0.4-0.12,0.77-0.15c-0.37-0.04-0.61-0.07-0.78-0.16c0.05-0.17,0.2-0.37,0.43-0.67
				c-0.28,0.24-0.48,0.39-0.65,0.44c-0.08-0.16-0.12-0.4-0.15-0.77c-0.04,0.37-0.07,0.61-0.16,0.78c-0.17-0.05-0.37-0.2-0.67-0.43
				c0.24,0.28,0.39,0.48,0.44,0.65c-0.16,0.08-0.4,0.12-0.77,0.15c0.37,0.04,0.61,0.07,0.78,0.16c-0.05,0.17-0.2,0.37-0.43,0.67
				c0.28-0.24,0.48-0.39,0.65-0.44c0.08,0.16,0.12,0.4,0.15,0.77c0.04-0.37,0.07-0.61,0.16-0.78c0.17,0.05,0.37,0.2,0.67,0.43
				C350.68,169.17,350.53,168.98,350.47,168.81z"/>
			<path class="st1" d="M317.52,115.8c0.16-0.08,0.4-0.12,0.77-0.15c-0.37-0.04-0.61-0.07-0.78-0.16c0.05-0.17,0.2-0.37,0.43-0.67
				c-0.28,0.24-0.48,0.39-0.65,0.44c-0.08-0.16-0.12-0.4-0.15-0.77c-0.04,0.37-0.07,0.61-0.16,0.78c-0.17-0.05-0.37-0.2-0.67-0.43
				c0.24,0.28,0.39,0.48,0.44,0.65c-0.16,0.08-0.4,0.12-0.77,0.15c0.37,0.04,0.61,0.07,0.78,0.16c-0.05,0.17-0.2,0.37-0.43,0.67
				c0.28-0.24,0.48-0.39,0.65-0.44c0.08,0.16,0.12,0.4,0.15,0.77c0.04-0.37,0.07-0.61,0.16-0.78c0.17,0.05,0.37,0.2,0.67,0.43
				C317.73,116.16,317.58,115.97,317.52,115.8z"/>
			<path class="st1" d="M415.41,192.35c0.16-0.08,0.4-0.12,0.77-0.15c-0.37-0.04-0.61-0.07-0.78-0.16c0.05-0.17,0.2-0.37,0.43-0.67
				c-0.28,0.24-0.48,0.39-0.65,0.44c-0.08-0.16-0.12-0.4-0.15-0.77c-0.04,0.37-0.07,0.61-0.16,0.78c-0.17-0.05-0.37-0.2-0.67-0.43
				c0.24,0.28,0.39,0.48,0.44,0.65c-0.16,0.08-0.4,0.12-0.77,0.15c0.37,0.04,0.61,0.07,0.78,0.16c-0.05,0.17-0.2,0.37-0.43,0.67
				c0.28-0.24,0.48-0.39,0.65-0.44c0.08,0.16,0.12,0.4,0.15,0.77c0.04-0.37,0.07-0.61,0.16-0.78c0.17,0.05,0.37,0.2,0.67,0.43
				C415.62,192.71,415.47,192.52,415.41,192.35z"/>
			<path class="st1" d="M390.75,183.63c0.16-0.08,0.4-0.12,0.77-0.15c-0.37-0.04-0.61-0.07-0.78-0.16c0.05-0.17,0.2-0.37,0.43-0.67
				c-0.28,0.24-0.48,0.39-0.65,0.44c-0.08-0.16-0.12-0.4-0.15-0.77c-0.04,0.37-0.07,0.61-0.16,0.78c-0.17-0.05-0.37-0.2-0.67-0.43
				c0.24,0.28,0.39,0.48,0.44,0.65c-0.16,0.08-0.4,0.12-0.77,0.15c0.37,0.04,0.61,0.07,0.78,0.16c-0.05,0.17-0.2,0.37-0.43,0.67
				c0.28-0.24,0.48-0.39,0.65-0.44c0.08,0.16,0.12,0.4,0.15,0.77c0.04-0.37,0.07-0.61,0.16-0.78c0.17,0.05,0.37,0.2,0.67,0.43
				C390.96,183.99,390.81,183.8,390.75,183.63z"/>
			<path class="st1" d="M256.75,144.64c0.16-0.08,0.4-0.12,0.77-0.15c-0.37-0.04-0.61-0.07-0.78-0.16c0.05-0.17,0.2-0.37,0.43-0.67
				c-0.28,0.24-0.48,0.39-0.65,0.44c-0.08-0.16-0.12-0.4-0.15-0.77c-0.04,0.37-0.07,0.61-0.16,0.78c-0.17-0.05-0.37-0.2-0.67-0.43
				c0.24,0.28,0.39,0.48,0.44,0.65c-0.16,0.08-0.4,0.12-0.77,0.15c0.37,0.04,0.61,0.07,0.78,0.16c-0.05,0.17-0.2,0.37-0.43,0.67
				c0.28-0.24,0.48-0.39,0.65-0.44c0.08,0.16,0.12,0.4,0.15,0.77c0.04-0.37,0.07-0.61,0.16-0.78c0.17,0.05,0.37,0.2,0.67,0.43
				C256.96,145,256.81,144.81,256.75,144.64z"/>
			<path class="st1" d="M246.57,113.5c0.16-0.08,0.4-0.12,0.77-0.15c-0.37-0.04-0.61-0.07-0.78-0.16c0.05-0.17,0.2-0.37,0.43-0.67
				c-0.28,0.24-0.48,0.39-0.65,0.44c-0.08-0.16-0.12-0.4-0.15-0.77c-0.04,0.37-0.07,0.61-0.16,0.78c-0.17-0.05-0.37-0.2-0.67-0.43
				c0.24,0.28,0.39,0.48,0.44,0.65c-0.16,0.08-0.4,0.12-0.77,0.15c0.37,0.04,0.61,0.07,0.78,0.16c-0.05,0.17-0.2,0.37-0.43,0.67
				c0.28-0.24,0.48-0.39,0.65-0.44c0.08,0.16,0.12,0.4,0.15,0.77c0.04-0.37,0.07-0.61,0.16-0.78c0.17,0.05,0.37,0.2,0.67,0.43
				C246.78,113.86,246.63,113.67,246.57,113.5z"/>
			<path class="st1" d="M278.09,141.79c0.16-0.08,0.4-0.12,0.77-0.15c-0.37-0.04-0.61-0.07-0.78-0.16c0.05-0.17,0.2-0.37,0.43-0.67
				c-0.28,0.24-0.48,0.39-0.65,0.44c-0.08-0.16-0.12-0.4-0.15-0.77c-0.04,0.37-0.07,0.61-0.16,0.78c-0.17-0.05-0.37-0.2-0.67-0.43
				c0.24,0.28,0.39,0.48,0.44,0.65c-0.16,0.08-0.4,0.12-0.77,0.15c0.37,0.04,0.61,0.07,0.78,0.16c-0.05,0.17-0.2,0.37-0.43,0.67
				c0.28-0.24,0.48-0.39,0.65-0.44c0.08,0.16,0.12,0.4,0.15,0.77c0.04-0.37,0.07-0.61,0.16-0.78c0.17,0.05,0.37,0.2,0.67,0.43
				C278.3,142.15,278.15,141.96,278.09,141.79z"/>
			<path class="st1" d="M272.6,168c0.16-0.08,0.4-0.12,0.77-0.15c-0.37-0.04-0.61-0.07-0.78-0.16c0.05-0.17,0.2-0.37,0.43-0.67
				c-0.28,0.24-0.48,0.39-0.65,0.44c-0.08-0.16-0.12-0.4-0.15-0.77c-0.04,0.37-0.07,0.61-0.16,0.78c-0.17-0.05-0.37-0.2-0.67-0.43
				c0.24,0.28,0.39,0.48,0.44,0.65c-0.16,0.08-0.4,0.12-0.77,0.15c0.37,0.04,0.61,0.07,0.78,0.16c-0.05,0.17-0.2,0.37-0.43,0.67
				c0.28-0.24,0.48-0.39,0.65-0.44c0.08,0.16,0.12,0.4,0.15,0.77c0.04-0.37,0.07-0.61,0.16-0.78c0.17,0.05,0.37,0.2,0.67,0.43
				C272.81,168.37,272.66,168.17,272.6,168z"/>
			<path class="st1" d="M230.79,163.41c0.16-0.08,0.4-0.12,0.77-0.15c-0.37-0.04-0.61-0.07-0.78-0.16c0.05-0.17,0.2-0.37,0.43-0.67
				c-0.28,0.24-0.48,0.39-0.65,0.44c-0.08-0.16-0.12-0.4-0.15-0.77c-0.04,0.37-0.07,0.61-0.16,0.78c-0.17-0.05-0.37-0.2-0.67-0.43
				c0.24,0.28,0.39,0.48,0.44,0.65c-0.16,0.08-0.4,0.12-0.77,0.15c0.37,0.04,0.61,0.07,0.78,0.16c-0.05,0.17-0.2,0.37-0.43,0.67
				c0.28-0.24,0.48-0.39,0.65-0.44c0.08,0.16,0.12,0.4,0.15,0.77c0.04-0.37,0.07-0.61,0.16-0.78c0.17,0.05,0.37,0.2,0.67,0.43
				C231,163.77,230.85,163.58,230.79,163.41z"/>
			<path class="st1" d="M198.98,115.8c0.16-0.08,0.4-0.12,0.77-0.15c-0.37-0.04-0.61-0.07-0.78-0.16c0.05-0.17,0.2-0.37,0.43-0.67
				c-0.28,0.24-0.48,0.39-0.65,0.44c-0.08-0.16-0.12-0.4-0.15-0.77c-0.04,0.37-0.07,0.61-0.16,0.78c-0.17-0.05-0.37-0.2-0.67-0.43
				c0.24,0.28,0.39,0.48,0.44,0.65c-0.16,0.08-0.4,0.12-0.77,0.15c0.37,0.04,0.61,0.07,0.78,0.16c-0.05,0.17-0.2,0.37-0.43,0.67
				c0.28-0.24,0.48-0.39,0.65-0.44c0.08,0.16,0.12,0.4,0.15,0.77c0.04-0.37,0.07-0.61,0.16-0.78c0.17,0.05,0.37,0.2,0.67,0.43
				C199.19,116.16,199.04,115.97,198.98,115.8z"/>
			<path class="st1" d="M182.8,137.98c0.16-0.08,0.4-0.12,0.77-0.15c-0.37-0.04-0.61-0.07-0.78-0.16c0.05-0.17,0.2-0.37,0.43-0.67
				c-0.28,0.24-0.48,0.39-0.65,0.44c-0.08-0.16-0.12-0.4-0.15-0.77c-0.04,0.37-0.07,0.61-0.16,0.78c-0.17-0.05-0.37-0.2-0.67-0.43
				c0.24,0.28,0.39,0.48,0.44,0.65c-0.16,0.08-0.4,0.12-0.77,0.15c0.37,0.04,0.61,0.07,0.78,0.16c-0.05,0.17-0.2,0.37-0.43,0.67
				c0.28-0.24,0.48-0.39,0.65-0.44c0.08,0.16,0.12,0.4,0.15,0.77c0.04-0.37,0.07-0.61,0.16-0.78c0.17,0.05,0.37,0.2,0.67,0.43
				C183,138.35,182.86,138.16,182.8,137.98z"/>
			<path class="st1" d="M167.9,160.83c0.16-0.08,0.4-0.12,0.77-0.15c-0.37-0.04-0.61-0.07-0.78-0.16c0.05-0.17,0.2-0.37,0.43-0.67
				c-0.28,0.24-0.48,0.39-0.65,0.44c-0.08-0.16-0.12-0.4-0.15-0.77c-0.04,0.37-0.07,0.61-0.16,0.78c-0.17-0.05-0.37-0.2-0.67-0.43
				c0.24,0.28,0.39,0.48,0.44,0.65c-0.16,0.08-0.4,0.12-0.77,0.15c0.37,0.04,0.61,0.07,0.78,0.16c-0.05,0.17-0.2,0.37-0.43,0.67
				c0.28-0.24,0.48-0.39,0.65-0.44c0.08,0.16,0.12,0.4,0.15,0.77c0.04-0.37,0.07-0.61,0.16-0.78c0.17,0.05,0.37,0.2,0.67,0.43
				C168.1,161.19,167.95,161,167.9,160.83z"/>
			<path class="st1" d="M210.32,163.41c0.16-0.08,0.4-0.12,0.77-0.15c-0.37-0.04-0.61-0.07-0.78-0.16c0.05-0.17,0.2-0.37,0.43-0.67
				c-0.28,0.24-0.48,0.39-0.65,0.44c-0.08-0.16-0.12-0.4-0.15-0.77c-0.04,0.37-0.07,0.61-0.16,0.78c-0.17-0.05-0.37-0.2-0.67-0.43
				c0.24,0.28,0.39,0.48,0.44,0.65c-0.16,0.08-0.4,0.12-0.77,0.15c0.37,0.04,0.61,0.07,0.78,0.16c-0.05,0.17-0.2,0.37-0.43,0.67
				c0.28-0.24,0.48-0.39,0.65-0.44c0.08,0.16,0.12,0.4,0.15,0.77c0.04-0.37,0.07-0.61,0.16-0.78c0.17,0.05,0.37,0.2,0.67,0.43
				C210.53,163.77,210.38,163.58,210.32,163.41z"/>
			<path class="st1" d="M214.13,128.16c0.16-0.08,0.4-0.12,0.77-0.15c-0.37-0.04-0.61-0.07-0.78-0.16c0.05-0.17,0.2-0.37,0.43-0.67
				c-0.28,0.24-0.48,0.39-0.65,0.44c-0.08-0.16-0.12-0.4-0.15-0.77c-0.04,0.37-0.07,0.61-0.16,0.78c-0.17-0.05-0.37-0.2-0.67-0.43
				c0.24,0.28,0.39,0.48,0.44,0.65c-0.16,0.08-0.4,0.12-0.77,0.15c0.37,0.04,0.61,0.07,0.78,0.16c-0.05,0.17-0.2,0.37-0.43,0.67
				c0.28-0.24,0.48-0.39,0.65-0.44c0.08,0.16,0.12,0.4,0.15,0.77c0.04-0.37,0.07-0.61,0.16-0.78c0.17,0.05,0.37,0.2,0.67,0.43
				C214.34,128.53,214.19,128.34,214.13,128.16z"/>
			<path class="st1" d="M164.74,199.8c0.16-0.08,0.4-0.12,0.77-0.15c-0.37-0.04-0.61-0.07-0.78-0.16c0.05-0.17,0.2-0.37,0.43-0.67
				c-0.28,0.24-0.48,0.39-0.65,0.44c-0.08-0.16-0.12-0.4-0.15-0.77c-0.04,0.37-0.07,0.61-0.16,0.78c-0.17-0.05-0.37-0.2-0.67-0.43
				c0.24,0.28,0.39,0.48,0.44,0.65c-0.16,0.08-0.4,0.12-0.77,0.15c0.37,0.04,0.61,0.07,0.78,0.16c-0.05,0.17-0.2,0.37-0.43,0.67
				c0.28-0.24,0.48-0.39,0.65-0.44c0.08,0.16,0.12,0.4,0.15,0.77c0.04-0.37,0.07-0.61,0.16-0.78c0.17,0.05,0.37,0.2,0.67,0.43
				C164.94,200.17,164.79,199.98,164.74,199.8z"/>
			<path class="st1" d="M242.36,192.83c0.16-0.08,0.4-0.12,0.77-0.15c-0.37-0.04-0.61-0.07-0.78-0.16c0.05-0.17,0.2-0.37,0.43-0.67
				c-0.28,0.24-0.48,0.39-0.65,0.44c-0.08-0.16-0.12-0.4-0.15-0.77c-0.04,0.37-0.07,0.61-0.16,0.78c-0.17-0.05-0.37-0.2-0.67-0.43
				c0.24,0.28,0.39,0.48,0.44,0.65c-0.16,0.08-0.4,0.12-0.77,0.15c0.37,0.04,0.61,0.07,0.78,0.16c-0.05,0.17-0.2,0.37-0.43,0.67
				c0.28-0.24,0.48-0.39,0.65-0.44c0.08,0.16,0.12,0.4,0.15,0.77c0.04-0.37,0.07-0.61,0.16-0.78c0.17,0.05,0.37,0.2,0.67,0.43
				C242.57,193.2,242.42,193.01,242.36,192.83z"/>
			<path class="st1" d="M220.85,181.62c0.16-0.08,0.4-0.12,0.77-0.15c-0.37-0.04-0.61-0.07-0.78-0.16c0.05-0.17,0.2-0.37,0.43-0.67
				c-0.28,0.24-0.48,0.39-0.65,0.44c-0.08-0.16-0.12-0.4-0.15-0.77c-0.04,0.37-0.07,0.61-0.16,0.78c-0.17-0.05-0.37-0.2-0.67-0.43
				c0.24,0.28,0.39,0.48,0.44,0.65c-0.16,0.08-0.4,0.12-0.77,0.15c0.37,0.04,0.61,0.07,0.78,0.16c-0.05,0.17-0.2,0.37-0.43,0.67
				c0.28-0.24,0.48-0.39,0.65-0.44c0.08,0.16,0.12,0.4,0.15,0.77c0.04-0.37,0.07-0.61,0.16-0.78c0.17,0.05,0.37,0.2,0.67,0.43
				C221.06,181.99,220.91,181.79,220.85,181.62z"/>
			<path class="st1" d="M305.97,169.96c0.16-0.08,0.4-0.12,0.77-0.15c-0.37-0.04-0.61-0.07-0.78-0.16c0.05-0.17,0.2-0.37,0.43-0.67
				c-0.28,0.24-0.48,0.39-0.65,0.44c-0.08-0.16-0.12-0.4-0.15-0.77c-0.04,0.37-0.07,0.61-0.16,0.78c-0.17-0.05-0.37-0.2-0.67-0.43
				c0.24,0.28,0.39,0.48,0.44,0.65c-0.16,0.08-0.4,0.12-0.77,0.15c0.37,0.04,0.61,0.07,0.78,0.16c-0.05,0.17-0.2,0.37-0.43,0.67
				c0.28-0.24,0.48-0.39,0.65-0.44c0.08,0.16,0.12,0.4,0.15,0.77c0.04-0.37,0.07-0.61,0.16-0.78c0.17,0.05,0.37,0.2,0.67,0.43
				C306.17,170.32,306.02,170.13,305.97,169.96z"/>
			<path class="st1" d="M261,200.73c0.16-0.08,0.4-0.12,0.77-0.15c-0.37-0.04-0.61-0.07-0.78-0.16c0.05-0.17,0.2-0.37,0.43-0.67
				c-0.28,0.24-0.48,0.39-0.65,0.44c-0.08-0.16-0.12-0.4-0.15-0.77c-0.04,0.37-0.07,0.61-0.16,0.78c-0.17-0.05-0.37-0.2-0.67-0.43
				c0.24,0.28,0.39,0.48,0.44,0.65c-0.16,0.08-0.4,0.12-0.77,0.15c0.37,0.04,0.61,0.07,0.78,0.16c-0.05,0.17-0.2,0.37-0.43,0.67
				c0.28-0.24,0.48-0.39,0.65-0.44c0.08,0.16,0.12,0.4,0.15,0.77c0.04-0.37,0.07-0.61,0.16-0.78c0.17,0.05,0.37,0.2,0.67,0.43
				C261.21,201.09,261.06,200.9,261,200.73z"/>
			<path class="st1" d="M341.58,115.8c0.16-0.08,0.4-0.12,0.77-0.15c-0.37-0.04-0.61-0.07-0.78-0.16c0.05-0.17,0.2-0.37,0.43-0.67
				c-0.28,0.24-0.48,0.39-0.65,0.44c-0.08-0.16-0.12-0.4-0.15-0.77c-0.04,0.37-0.07,0.61-0.16,0.78c-0.17-0.05-0.37-0.2-0.67-0.43
				c0.24,0.28,0.39,0.48,0.44,0.65c-0.16,0.08-0.4,0.12-0.77,0.15c0.37,0.04,0.61,0.07,0.78,0.16c-0.05,0.17-0.2,0.37-0.43,0.67
				c0.28-0.24,0.48-0.39,0.65-0.44c0.08,0.16,0.12,0.4,0.15,0.77c0.04-0.37,0.07-0.61,0.16-0.78c0.17,0.05,0.37,0.2,0.67,0.43
				C341.78,116.16,341.64,115.97,341.58,115.8z"/>
			<path class="st1" d="M163.58,181.52c0.16-0.08,0.4-0.12,0.77-0.15c-0.37-0.04-0.61-0.07-0.78-0.16c0.05-0.17,0.2-0.37,0.43-0.67
				c-0.28,0.24-0.48,0.39-0.65,0.44c-0.08-0.16-0.12-0.4-0.15-0.77c-0.04,0.37-0.07,0.61-0.16,0.78c-0.17-0.05-0.37-0.2-0.67-0.43
				c0.24,0.28,0.39,0.48,0.44,0.65c-0.16,0.08-0.4,0.12-0.77,0.15c0.37,0.04,0.61,0.07,0.78,0.16c-0.05,0.17-0.2,0.37-0.43,0.67
				c0.28-0.24,0.48-0.39,0.65-0.44c0.08,0.16,0.12,0.4,0.15,0.77c0.04-0.37,0.07-0.61,0.16-0.78c0.17,0.05,0.37,0.2,0.67,0.43
				C163.79,181.88,163.64,181.69,163.58,181.52z"/>
		</g>
		<g>
			<path class="st2" d="M179.39,247.4c4.23-2.66,8.52-5.08,12.97-7.2c-3.36-0.87-6.08-0.73-6.38-0.7
				c-0.63,0.04-8.98,0.75-13.72,7.12c-2.15,2.89-2.97,6.16-3.71,8.11C172.35,252.87,175.83,249.64,179.39,247.4z"/>
			<path class="st2" d="M248.09,270.36c-1.91-1.51-3.93-1.87-4.79-2.01c-4.87-0.8-7.37,2.29-9.35,0.93
				c-1.48-1.02-0.28-2.86-1.76-6.2c-0.16-0.37-2.13-4.62-6.66-6.33c-3.76-1.42-7.25-0.32-8.66,0.12c-5.33,1.67-6.96,5.28-8.82,4.46
				c-1.65-0.72-0.81-3.69-2.49-8.55c-0.35-1-1.76-4.83-4.76-7.88c-1.83-1.86-3.91-3.08-5.93-3.9c-7.94,3.58-15.42,8.12-22.42,13.33
				c-7.75,5.76-16.88,2.45-25.84,3.3c-6.18,0.59-11.42,3.79-16.25,7.48c-2.23,1.7-3.37,3.46-5.14,5.54c-0.45,0.52-1.21,1.57-2,1.78
				c-1.79,0.47-4.59-0.91-6.8-2.04c0.51,1.56,1.47,2.36,1.23,2.64c-0.27,0.32-1.55-0.61-3.35-1.26c-2.16-0.77-3.99-0.73-5.13-0.72
				c-0.87,0-4.45,0.1-7.96,2.22c-0.08,0.04-0.19,0.11-0.33,0.2c-0.7,0.45-6.97,4.57-6.95,11.07c0.02,3.78,2.16,7.37,4.91,9.31
				c3.16,2.23,5,0.8,11.28,3.3c3.73,1.49,3.3,2.08,6.73,3.36c5.05,1.89,9.44,1.9,12.01,1.88c3.23-0.02,6.95-0.05,11.33-1.69
				c4.86-1.82,7.71-4.57,11.4-3.45c0.97,0.3,1.01,0.59,2.55,1.06c0.8,0.24,3.52,1,7.1,0.73c5.94-0.45,7.32-3.23,11.35-3.62
				c4.66-0.45,7.07,3.43,11.51,5.26c15.66,6.44,37.87,2.86,44.3-7.66c1.25-2.04,1.47-3.64,3.54-5.2c5.01-3.79,10.68,0.23,15.94-3.61
				c0.5-0.37,3.56-2.67,3.84-6.37C252.05,273.59,248.43,270.63,248.09,270.36z"/>
			<path class="st1" d="M248.21,287.85c-4.66,2.29-13.5-1.24-15.51,0.42c-0.56,0.47-1,1-1,1c-0.85,1.11-0.87,2.14-3.25,4.77
				c-3.92,4.34-8.44,6.36-8.62,6.11c-0.27-0.38,4.89-2.87,9.26-8.79c1.88-2.54,8.23-11.15,5.29-20.35c-1.77-5.56-6.01-8.44-6.8-8.96
				c-7.41-4.86-15.64-1.6-16.21-1.36c-3.32,1.38-5.45,3.51-6.57,4.8c-0.68-1.79-2.44-5.71-6.54-8.83
				c-4.09-3.12-8.23-3.69-10.48-3.98c-7.73-0.97-13.75,2.16-15.48,3.1c-4.94,2.66-5.71,5.07-8.24,6.59
				c-0.63,0.38-1.44,0.73-2.42,0.98c-0.99,0.26-1.84,0.32-2.4,0.33c-2.23-4.1-6.67-5.78-9.92-4.44c-3.01,1.24-3.93,4.64-4.05,5.12
				c-0.87-0.55-2.44-1.38-4.52-1.54c-3.05-0.23-5.29,1.11-6.62,1.9c-5.38,3.21-7.33,9.07-7.89,10.98c-1.27-0.75-3.07-1.5-4.83-0.99
				c-2.18,0.63-2.51,2.67-4.15,2.8c-2.07,0.17-2.93-2.93-5.52-4.55c-1.87-1.17-5.06-1.81-10.84,0.5c1.61-0.96,4.57-2.38,8.29-2.42
				c1.16-0.01,3.01-0.11,5.13,0.72c0.55,0.22,0.99,0.44,1.3,0.61c-0.16-0.6-0.35-1.57-0.21-2.74c0.05-0.49,0.25-2.05,1.35-3.48
				c1.61-2.08,4.67-3.22,6.92-2.41c1.62,0.59,2.44,2.04,2.8,1.8c0.36-0.24-0.67-1.54-0.56-3.32c0.16-2.55,2.55-4.22,2.88-4.45
				c0.61-0.42,2.63-1.79,4.95-1.05c1.46,0.47,2.31,1.54,2.63,2c-0.05-0.98-0.06-3.7,1.7-6.37c0.34-0.51,2.78-4.07,7.36-4.57
				c3.47-0.38,6.02,1.25,6.72,1.71c2.11,1.39,3.18,3.19,3.65,4.1c0.24-0.52,0.9-1.74,2.3-2.44c2.37-1.2,4.73,0.06,5,0.21
				c1.78,0.99,2.42,2.67,2.58,3.14c0.35-2.07,1.44-6.75,5.31-10.87c4.32-4.59,11.26-7.59,18.17-6.19c6.24,1.27,9.99,5.54,11.64,7.43
				c3.07,3.51,4.42,6.95,4.76,7.88c0.88,2.43,1.19,4.59,1.31,6.14c1.69-1.3,4.93-3.38,9.46-4.08c1.92-0.29,5.34-0.77,9.25,0.78
				c4.13,1.64,6.36,4.59,7.33,5.91c2.18,2.96,2.98,5.89,3.31,7.56c1.22-0.5,3.89-1.39,7.09-0.74c3.76,0.76,8.21,3.63,9.22,8.54
				C253.39,281.12,251.6,286.18,248.21,287.85z"/>
			<path class="st3" d="M244.73,273.12c-4.01-2.29-8.5-0.84-9.9-0.39c-4.32,1.4-4.13,3.41-7.46,3.89c-3.86,0.55-4.73-2.05-8.67-1.55
				c-3.62,0.46-3.86,2.83-7.69,3.37c-2.66,0.38-3.05-0.69-7.84-1.54c-1.98-0.35-6.34-1.09-11.35-0.15
				c-2.01,0.38-5.02,1.18-8.42,3.15c-1.13,1.81-3.66,5.97-8.75,7.87c-3.88,1.44-8.37,1.83-12.44,1.56
				c-2.87-0.19-15.03-1.74-16.31-6.42c-3.85,3.07-7.85,6.22-12.72,7.29c-2.42,0.53-7.6,1.61-12.88-1.08
				c-2.52-1.28-4.21-2.99-5.2-4.19c-1.4,0.67-3.96,1.62-7.1,1.29c-7.52-0.79-11.18-8.18-11.45-8.76c-0.82,1.15-2.34,3.64-2.61,7.09
				c-0.07,0.9-0.44,7.12,4.53,11.4c4.79,4.11,10.63,3.06,11.35,2.91c1.76,1.55,9.07,7.64,20.08,7.57
				c12.43-0.08,20.21-7.94,21.58-9.38c0.61,0.63,4.8,4.79,11.3,4.43c6.21-0.34,9.84-4.53,10.44-5.24c2.39,1.46,6.06,3.48,10.82,5.17
				c4.86,1.73,22.88,8.13,39.28-0.8c2.94-1.6,7.45-4.57,11.81-10.04c6.16,2.11,12.22-0.24,14.17-4.39c1.46-3.1,0.51-7-1.03-9.52
				C247.85,275.99,246.8,274.31,244.73,273.12z"/>
			<path class="st1" d="M228.73,289.98c-0.2,0.48-0.8,1.74-3.6,4.22c-2.12,1.89-4.69,4.17-8.71,5.75
				c-2.05,0.8-10.86,4.26-15.68,0.36c-2.29-1.86-2.51-4.44-4.8-4.72c-2.06-0.25-3.12,1.73-5.18,1.24c-1.68-0.4-2.78-2.13-3.17-3.4
				c-1.07-3.44,1.74-7.54,4.98-8.9c0.58-0.24,1.73-0.77,3.24-0.57c1.83,0.24,3.01,1.35,3.41,1.78c0.02-0.45,0.2-3.03,2.33-4.74
				c2.92-2.33,6.66-0.73,6.83-0.66c1.23,0.55,2.03,1.37,2.48,1.9c0.39-0.83,1.86-3.73,5.15-5.04c4.07-1.62,8.98-0.04,11.54,3.49
				C229.55,283.43,229.93,287.12,228.73,289.98z"/>
			<path class="st3" d="M228.43,290.68c0.08,0.08-2.01,3.14-5.04,5.66c-7.41,6.17-19.33,8.69-23.34,4.49
				c-1.19-1.25-1.33-2.73-3.15-3.49c-2.18-0.93-3.85,0.42-6.13-0.52c-1.5-0.62-2.42-1.88-2.98-2.88c0.67,0.42,1.9,1.05,3.53,1.15
				c3.36,0.21,5.67-2.01,6.08-2.42c1.88,1.56,5.54,4.12,10.77,5.09c2.5,0.46,9.35,1.32,15.16-2.46
				C226.32,293.36,228.35,290.6,228.43,290.68z"/>
		</g>
		<g>
			<path class="st1" d="M331.95,269.63c5.56-2.18,10.66-2.19,12.99-2.17c5.01,0.03,9.08,1.03,11.81,1.92
				c1.14-2.35,3.15-5.75,6.55-8.99c1.91-1.81,9.88-9.15,21.92-8.65c12.81,0.54,20.37,9.55,21.64,11.13
				c6.2,7.67,10.43,20.82,5.25,29.21c-10.9,17.66-61.17,10.46-66.16,9.75c-2.36-0.34-8.53-1.57-16.14,0.18
				c-6.3,1.45-7.31,3.48-12.42,4.94c-10,2.86-24.53,0.36-27.72-7.65c-1.76-4.42-0.04-10.52,3.53-13.77
				c2.67-2.43,5.79-2.97,8.29-3.36c1.78-0.28,3.14-0.23,4.9-0.16c2.33,0.1,5.68,0.43,9.7,1.52
				C317.94,280.44,322.84,273.2,331.95,269.63z"/>
			<path class="st4" d="M408.39,307.31c-1.98,0.1-3.99-0.04-3.99-0.04c-1.22-0.1-2.39-0.26-3.63-0.43
				c-3.59-0.7-7.15-1.39-10.71-2.08l-0.06,0c-5.43,1.58-9.81,1.74-12.8,1.6c-5.5-0.26-6.73-1.57-11.78-1.22
				c-4.3,0.3-3.78,1.27-11.07,2.41c-5.36,0.84-8.57,0.76-10.51,0.63c-0.94-0.06-1.78-0.17-1.88-0.18c-3.19-0.39-6.6-1.45-6.6-1.45
				c-3.19-0.99-8.74,0.49-19.63,1.37c-5.92,0.48-8.9,0.41-11.59-1.45c-0.62-0.43-2.36-1.66-3.22-3.94c-1.51-3.97,0.84-7.7,1.19-8.24
				c2.24-3.43,6.06-4.35,9.34-5.08c7.13-1.6,13.42,0.02,17.23,1.43c0.44-1.45,3.02-9.44,11.07-13.25c5.86-2.78,11.46-1.83,13.4-1.48
				c3.75,0.68,6.57,2.15,8.29,3.21c4.15-2.78,10.34-6.02,18.32-7.33c4.64-0.76,10.95-1.8,17.86,1.14c1.95,0.83,6.18,2.69,9.5,7.22
				c2.3,3.14,3.21,6.25,3.6,8.13c0.87-1.82,3.43-6.52,8.98-9.4c1.07-0.56,7.37-3.68,14.88-1.38c5.43,1.66,8.49,5.24,9.15,6.05
				c2.1,2.56,3.06,5.14,3.52,6.71c3.45-2.14,7.59-2.27,10.74-0.38c1.86,1.12,4.8,3.79,4.24,6.19c-1.01,4.32-12.97,6.18-20.4,5.67
				c-1.65-0.11-5.47-0.51-10.73,0.05c-1.05,0.11-2.53,0.3-4.3,0.64C418.44,304.05,413.58,307.06,408.39,307.31z"/>
			<path class="st3" d="M400.78,308.55c-4.48-0.53-8.11-1.68-10.65-2.68l-0.06,0c-9.23,2.31-20.96,4.24-34.53,4.09
				c-6.27-0.07-12.06-0.58-17.26-1.31c-7.61,0.23-13.16,0.53-17.07,0.78c-4.75,0.3-9.61,0.7-13.84-2.3
				c-0.74-0.52-1.3-1.04-1.65-1.39c2.51-0.01,6.44-0.27,10.92-1.76c4.96-1.65,6.7-3.51,10.99-4.92c2.88-0.95,7.34-1.84,13.52-0.88
				c1.45,1.04,4.26,2.71,8.06,2.99c8.47,0.6,14.05-6.33,14.61-7.04c1.69,0.45,4.26,0.87,7.14,0.22c3.56-0.8,4.7-2.57,9.06-4.5
				c1.96-0.87,4.79-2.12,8.47-2.33c5.98-0.34,10.73,2.28,12.83,3.43c2.63,1.45,2.4,1.85,5.48,3.64c3.76,2.18,7.7,3.65,9.83,4.11
				c9.3,2,19.2-7.75,20.48-9.04c0.73,3.58,2.29,4.74,3.11,5.17c0.53,0.27,1.44,0.61,7.3-0.08c3.55-0.42,4.06-0.65,5.32-0.39
				c2.15,0.45,5.07,1.96,5.01,3.46c-0.11,2.71-9.94,5.24-15.95,5.03c-0.69-0.02-2.82-0.14-5.77-0.06c-1.45,0.04-3.11,0.12-4.95,0.29
				c0,0-2.27,0.21-4.3,0.52c-4.74,0.73-7.65,2.91-11.84,4.26C409.6,309.59,404.83,309.03,400.78,308.55z"/>
		</g>
		<g>
			<g>
				<path class="st1" d="M189.25,180.95c1.92,0.37,5.28-0.13,10.93-0.68c-5.65-0.55-9.01-1.05-10.93-0.68
					c1.15-0.95,2.62-2.9,5.06-5.86c-2.96,2.44-4.92,3.91-5.86,5.06c0.37-1.92-0.13-5.28-0.68-10.93c-0.55,5.65-1.05,9.01-0.68,10.93
					c-0.95-1.15-2.9-2.62-5.86-5.06c2.44,2.96,3.91,4.92,5.06,5.86c-1.92-0.37-5.28,0.13-10.93,0.68c5.65,0.55,9.01,1.05,10.93,0.68
					c-1.15,0.95-2.62,2.9-5.06,5.86c2.96-2.44,4.92-3.91,5.86-5.06c-0.37,1.92,0.13,5.28,0.68,10.93c0.55-5.65,1.05-9.01,0.68-10.93
					c0.95,1.15,2.9,2.62,5.86,5.06C191.87,183.84,190.41,181.89,189.25,180.95z M187.75,180.32c0-0.01,0-0.02,0-0.04
					c-0.01,0-0.02,0-0.04,0c0.01-0.01,0.01-0.01,0.02-0.02c-0.01-0.01-0.01-0.01-0.02-0.02c0.01,0,0.02,0,0.04,0
					c0-0.01,0-0.02,0-0.04c0.01,0.01,0.01,0.01,0.02,0.02c0.01-0.01,0.01-0.01,0.02-0.02c0,0.01,0,0.02,0,0.04c0.01,0,0.02,0,0.04,0
					c-0.01,0.01-0.01,0.01-0.02,0.02c0.01,0.01,0.01,0.01,0.02,0.02c-0.01,0-0.02,0-0.04,0c0,0.01,0,0.02,0,0.04
					c-0.01-0.01-0.01-0.01-0.02-0.02C187.76,180.3,187.75,180.31,187.75,180.32z"/>
				<path class="st1" d="M187.78,180.28C187.78,180.28,187.78,180.28,187.78,180.28c0-0.01,0.01-0.01,0.02-0.02
					c-0.01,0-0.01-0.01-0.02-0.01c0,0,0,0,0,0c0,0,0,0,0,0c-0.01,0-0.01-0.01-0.01-0.02c0,0.01-0.01,0.01-0.01,0.02c0,0,0,0,0,0
					c0,0,0,0,0,0c0,0-0.01,0.01-0.02,0.01c0.01,0,0.01,0.01,0.02,0.01c0,0,0,0,0,0c0,0,0,0,0,0c0,0.01,0.01,0.01,0.01,0.02
					C187.77,180.29,187.78,180.29,187.78,180.28C187.78,180.28,187.78,180.28,187.78,180.28z"/>
			</g>
			<g>
				<path class="st1" d="M198.95,172.13c0.46,0.09,1.27-0.03,2.63-0.16c-1.36-0.13-2.17-0.25-2.63-0.16
					c0.28-0.23,0.63-0.7,1.22-1.41c-0.71,0.59-1.19,0.94-1.41,1.22c0.09-0.46-0.03-1.27-0.16-2.63c-0.13,1.36-0.25,2.17-0.16,2.63
					c-0.23-0.28-0.7-0.63-1.41-1.22c0.59,0.71,0.94,1.19,1.22,1.41c-0.46-0.09-1.27,0.03-2.63,0.16c1.36,0.13,2.17,0.25,2.63,0.16
					c-0.28,0.23-0.63,0.7-1.22,1.41c0.71-0.59,1.19-0.94,1.41-1.22c-0.09,0.46,0.03,1.27,0.16,2.63c0.13-1.36,0.25-2.17,0.16-2.63
					c0.23,0.28,0.7,0.63,1.41,1.22C199.58,172.83,199.23,172.36,198.95,172.13z M198.59,171.98
					C198.59,171.98,198.59,171.97,198.59,171.98C198.58,171.97,198.58,171.97,198.59,171.98c-0.01-0.01-0.01-0.01,0-0.01
					c0,0,0,0-0.01,0c0,0,0.01,0,0.01,0c0,0,0-0.01,0-0.01c0,0,0,0,0,0.01c0,0,0,0,0-0.01c0,0,0,0.01,0,0.01c0,0,0.01,0,0.01,0
					c0,0,0,0-0.01,0c0,0,0,0,0.01,0C198.6,171.97,198.6,171.97,198.59,171.98C198.6,171.97,198.6,171.98,198.59,171.98
					C198.59,171.98,198.59,171.98,198.59,171.98C198.59,171.98,198.59,171.98,198.59,171.98z"/>
				<path class="st1" d="M198.6,171.97C198.6,171.97,198.6,171.97,198.6,171.97C198.6,171.97,198.6,171.97,198.6,171.97
					C198.6,171.97,198.6,171.96,198.6,171.97C198.6,171.96,198.6,171.96,198.6,171.97C198.6,171.96,198.6,171.96,198.6,171.97
					c0-0.01,0-0.01,0-0.01C198.59,171.96,198.59,171.96,198.6,171.97C198.59,171.96,198.59,171.96,198.6,171.97
					C198.59,171.96,198.59,171.96,198.6,171.97c-0.01-0.01-0.01-0.01-0.01,0C198.59,171.97,198.59,171.97,198.6,171.97
					C198.59,171.97,198.59,171.97,198.6,171.97C198.59,171.97,198.59,171.97,198.6,171.97C198.59,171.97,198.59,171.97,198.6,171.97
					C198.59,171.97,198.59,171.97,198.6,171.97C198.6,171.97,198.6,171.97,198.6,171.97z"/>
			</g>
			<g>
				<path class="st1" d="M178.74,186.26c0.3,0.06,0.84-0.02,1.73-0.11c-0.89-0.09-1.43-0.17-1.73-0.11c0.18-0.15,0.41-0.46,0.8-0.93
					c-0.47,0.39-0.78,0.62-0.93,0.8c0.06-0.3-0.02-0.84-0.11-1.73c-0.09,0.89-0.17,1.43-0.11,1.73c-0.15-0.18-0.46-0.41-0.93-0.8
					c0.39,0.47,0.62,0.78,0.8,0.93c-0.3-0.06-0.84,0.02-1.73,0.11c0.89,0.09,1.43,0.17,1.73,0.11c-0.18,0.15-0.41,0.46-0.8,0.93
					c0.47-0.39,0.78-0.62,0.93-0.8c-0.06,0.3,0.02,0.84,0.11,1.73c0.09-0.89,0.17-1.43,0.11-1.73c0.15,0.18,0.46,0.41,0.93,0.8
					C179.16,186.72,178.93,186.41,178.74,186.26z M178.51,186.16C178.51,186.16,178.51,186.16,178.51,186.16
					C178.5,186.16,178.5,186.16,178.51,186.16C178.5,186.16,178.5,186.16,178.51,186.16c0-0.01,0-0.01-0.01-0.01c0,0,0,0,0.01,0
					c0,0,0,0,0-0.01c0,0,0,0,0,0c0,0,0,0,0,0c0,0,0,0,0,0.01c0,0,0,0,0.01,0C178.52,186.15,178.51,186.15,178.51,186.16
					c0.01-0.01,0.01-0.01,0.01-0.01C178.52,186.16,178.51,186.16,178.51,186.16C178.51,186.16,178.51,186.16,178.51,186.16
					C178.51,186.16,178.51,186.16,178.51,186.16C178.51,186.16,178.51,186.16,178.51,186.16z"/>
				<path class="st1" d="M178.51,186.16C178.51,186.16,178.51,186.16,178.51,186.16C178.51,186.16,178.51,186.15,178.51,186.16
					C178.51,186.15,178.51,186.15,178.51,186.16C178.51,186.15,178.51,186.15,178.51,186.16
					C178.51,186.15,178.51,186.15,178.51,186.16C178.51,186.15,178.51,186.15,178.51,186.16
					C178.51,186.15,178.51,186.15,178.51,186.16C178.51,186.15,178.51,186.15,178.51,186.16
					C178.51,186.15,178.51,186.15,178.51,186.16C178.5,186.15,178.5,186.15,178.51,186.16C178.5,186.15,178.5,186.16,178.51,186.16
					C178.51,186.16,178.51,186.16,178.51,186.16C178.51,186.16,178.51,186.16,178.51,186.16
					C178.51,186.16,178.51,186.16,178.51,186.16C178.51,186.16,178.51,186.16,178.51,186.16
					C178.51,186.16,178.51,186.16,178.51,186.16z"/>
			</g>
		</g>
		<g>
			<g>
				<path class="st1" d="M410.78,255.89c1.15,0.22,3.17-0.08,6.56-0.41c-3.39-0.33-5.41-0.63-6.56-0.41
					c0.69-0.57,1.57-1.74,3.04-3.52c-1.78,1.47-2.95,2.35-3.52,3.04c0.22-1.15-0.08-3.17-0.41-6.56c-0.33,3.39-0.63,5.41-0.41,6.56
					c-0.57-0.69-1.74-1.57-3.52-3.04c1.47,1.78,2.35,2.95,3.04,3.52c-1.15-0.22-3.17,0.08-6.56,0.41c3.39,0.33,5.41,0.63,6.56,0.41
					c-0.69,0.57-1.57,1.74-3.04,3.52c1.78-1.47,2.95-2.35,3.52-3.04c-0.22,1.15,0.08,3.17,0.41,6.56c0.33-3.39,0.63-5.41,0.41-6.56
					c0.57,0.69,1.74,1.57,3.52,3.04C412.35,257.63,411.47,256.46,410.78,255.89z M409.87,255.51c0-0.01,0-0.01,0-0.02
					c-0.01,0-0.01,0-0.02,0c0,0,0.01-0.01,0.01-0.01c0,0-0.01-0.01-0.01-0.01c0.01,0,0.01,0,0.02,0c0-0.01,0-0.01,0-0.02
					c0,0,0.01,0.01,0.01,0.01c0,0,0.01-0.01,0.01-0.01c0,0.01,0,0.01,0,0.02c0.01,0,0.01,0,0.02,0c0,0-0.01,0.01-0.01,0.01
					c0,0,0.01,0.01,0.01,0.01c-0.01,0-0.01,0-0.02,0c0,0.01,0,0.01,0,0.02c0,0-0.01-0.01-0.01-0.01
					C409.88,255.51,409.88,255.51,409.87,255.51z"/>
				<path class="st1" d="M409.89,255.49C409.89,255.49,409.89,255.49,409.89,255.49c0,0,0.01-0.01,0.01-0.01
					c0,0-0.01-0.01-0.01-0.01c0,0,0,0,0,0c0,0,0,0,0,0c0,0-0.01-0.01-0.01-0.01c0,0-0.01,0.01-0.01,0.01c0,0,0,0,0,0c0,0,0,0,0,0
					c0,0-0.01,0.01-0.01,0.01c0,0,0.01,0.01,0.01,0.01c0,0,0,0,0,0c0,0,0,0,0,0c0,0,0.01,0.01,0.01,0.01
					C409.89,255.5,409.89,255.5,409.89,255.49C409.89,255.49,409.89,255.49,409.89,255.49z"/>
			</g>
			<g>
				<path class="st1" d="M416.6,250.6c0.28,0.05,0.76-0.02,1.58-0.1c-0.82-0.08-1.3-0.15-1.58-0.1c0.17-0.14,0.38-0.42,0.73-0.85
					c-0.43,0.35-0.71,0.56-0.85,0.73c0.05-0.28-0.02-0.76-0.1-1.58c-0.08,0.82-0.15,1.3-0.1,1.58c-0.14-0.17-0.42-0.38-0.85-0.73
					c0.35,0.43,0.56,0.71,0.73,0.85c-0.28-0.05-0.76,0.02-1.58,0.1c0.82,0.08,1.3,0.15,1.58,0.1c-0.17,0.14-0.38,0.42-0.73,0.85
					c0.43-0.35,0.71-0.56,0.85-0.73c-0.05,0.28,0.02,0.76,0.1,1.58c0.08-0.82,0.15-1.3,0.1-1.58c0.14,0.17,0.42,0.38,0.85,0.73
					C416.98,251.02,416.76,250.74,416.6,250.6z M416.38,250.51C416.38,250.51,416.38,250.51,416.38,250.51
					C416.38,250.5,416.38,250.5,416.38,250.51C416.38,250.5,416.38,250.5,416.38,250.51c0-0.01,0-0.01-0.01-0.01c0,0,0,0,0.01,0
					c0,0,0,0,0-0.01c0,0,0,0,0,0c0,0,0,0,0,0c0,0,0,0,0,0.01c0,0,0,0,0.01,0C416.39,250.5,416.39,250.5,416.38,250.51
					c0.01-0.01,0.01-0.01,0.01-0.01C416.39,250.5,416.39,250.5,416.38,250.51C416.38,250.51,416.38,250.51,416.38,250.51
					C416.38,250.51,416.38,250.51,416.38,250.51C416.38,250.51,416.38,250.51,416.38,250.51z"/>
				<path class="st1" d="M416.38,250.5C416.38,250.5,416.38,250.5,416.38,250.5C416.39,250.5,416.39,250.5,416.38,250.5
					C416.39,250.5,416.39,250.5,416.38,250.5C416.38,250.5,416.38,250.5,416.38,250.5C416.38,250.5,416.38,250.5,416.38,250.5
					C416.38,250.5,416.38,250.5,416.38,250.5C416.38,250.5,416.38,250.5,416.38,250.5C416.38,250.5,416.38,250.5,416.38,250.5
					C416.38,250.5,416.38,250.5,416.38,250.5C416.38,250.5,416.38,250.5,416.38,250.5C416.38,250.5,416.38,250.5,416.38,250.5
					C416.38,250.5,416.38,250.5,416.38,250.5C416.38,250.5,416.38,250.5,416.38,250.5C416.38,250.5,416.38,250.51,416.38,250.5
					C416.38,250.51,416.38,250.5,416.38,250.5C416.38,250.5,416.38,250.5,416.38,250.5z"/>
			</g>
			<g>
				<path class="st1" d="M404.47,259.08c0.18,0.04,0.5-0.01,1.04-0.06c-0.54-0.05-0.86-0.1-1.04-0.06c0.11-0.09,0.25-0.28,0.48-0.56
					c-0.28,0.23-0.47,0.37-0.56,0.48c0.04-0.18-0.01-0.5-0.06-1.04c-0.05,0.54-0.1,0.86-0.06,1.04c-0.09-0.11-0.28-0.25-0.56-0.48
					c0.23,0.28,0.37,0.47,0.48,0.56c-0.18-0.04-0.5,0.01-1.04,0.06c0.54,0.05,0.86,0.1,1.04,0.06c-0.11,0.09-0.25,0.28-0.48,0.56
					c0.28-0.23,0.47-0.37,0.56-0.48c-0.04,0.18,0.01,0.5,0.06,1.04c0.05-0.54,0.1-0.86,0.06-1.04c0.09,0.11,0.28,0.25,0.56,0.48
					C404.71,259.36,404.58,259.17,404.47,259.08z M404.32,259.02C404.32,259.02,404.32,259.02,404.32,259.02
					C404.32,259.02,404.32,259.02,404.32,259.02C404.32,259.02,404.32,259.02,404.32,259.02
					C404.32,259.02,404.32,259.02,404.32,259.02C404.32,259.02,404.32,259.02,404.32,259.02c0-0.01,0-0.01,0-0.01
					C404.32,259.01,404.32,259.02,404.32,259.02c0-0.01,0-0.01,0-0.01C404.33,259.02,404.33,259.02,404.32,259.02
					C404.33,259.02,404.33,259.02,404.32,259.02C404.33,259.02,404.33,259.02,404.32,259.02
					C404.33,259.02,404.33,259.02,404.32,259.02C404.33,259.02,404.33,259.02,404.32,259.02
					C404.33,259.02,404.33,259.02,404.32,259.02C404.33,259.02,404.33,259.02,404.32,259.02
					C404.32,259.02,404.32,259.02,404.32,259.02z"/>
				<path class="st1" d="M404.33,259.02C404.33,259.02,404.33,259.02,404.33,259.02C404.33,259.02,404.33,259.02,404.33,259.02
					C404.33,259.02,404.33,259.02,404.33,259.02C404.33,259.02,404.33,259.02,404.33,259.02
					C404.33,259.02,404.33,259.02,404.33,259.02C404.33,259.02,404.33,259.02,404.33,259.02
					C404.32,259.02,404.32,259.02,404.33,259.02C404.32,259.02,404.32,259.02,404.33,259.02
					C404.32,259.02,404.32,259.02,404.33,259.02C404.32,259.02,404.32,259.02,404.33,259.02
					C404.32,259.02,404.32,259.02,404.33,259.02C404.32,259.02,404.32,259.02,404.33,259.02
					C404.32,259.02,404.32,259.02,404.33,259.02C404.32,259.02,404.32,259.02,404.33,259.02
					C404.33,259.02,404.33,259.02,404.33,259.02C404.33,259.02,404.33,259.02,404.33,259.02z"/>
			</g>
		</g>
		<g>
			<path class="st1" d="M203.4,220.95c-2.31,0.55-2.72,1-3.22,3.56c-0.5-2.56-0.91-3.01-3.22-3.56c2.31-0.55,2.72-1,3.22-3.56
				C200.69,219.95,201.1,220.4,203.4,220.95z"/>
			<path class="st1" d="M206.19,224.13c-1.46,0.35-1.72,0.64-2.04,2.26c-0.32-1.62-0.58-1.91-2.04-2.26
				c1.46-0.35,1.72-0.64,2.04-2.26C204.47,223.5,204.73,223.78,206.19,224.13z"/>
		</g>
	</g>
	<g>
		<g>
			<g>
				<path class="st5" d="M434.97,359.97c0.02-0.11-0.19-0.06-0.21,0.01c-3.84,10.91-8.21,21.98-11.47,33.14
					c-0.67,1.75-1.33,3.49-1.95,5.25c1.08-6.54,3.17-12.98,3.95-19.53c0.03-0.28-0.45-0.11-0.5,0.07c-1.98,7.3-5.59,14.38-8,21.62
					c-0.47,1.41-0.9,2.82-1.31,4.24c1.9-8.24,4.2-16.33,7.23-24.4c1.61-4.29,3.51-8.52,5.19-12.79c1.49-3.81,4-7.13,5.95-10.78
					c0.11-0.21-0.27-0.21-0.38-0.06c-2.74,3.51-6.08,6.84-9,10.28c-3.17,3.74-5.52,7.78-7.81,11.85c-2.76,4.9-5.14,9.91-7.19,14.99
					c0.92-3.37,1.84-6.74,2.73-10.12c1.7-6.42,4.75-12.28,7.3-18.5c0.14-0.34-0.44-0.27-0.57-0.03c-1.34,2.52-2.82,5-4.3,7.47
					c-0.02,0-0.05,0-0.07,0.02c-2.78,1.9-3.77,5.49-5.39,7.96c-0.08,0.13-0.16,0.25-0.24,0.38c2.12-9.35,4.91-18.58,9.45-27.42
					c0.23-0.45-0.59-0.35-0.78-0.04c-6.57,10.87-11.81,22.1-16.09,33.55c-1.37,3-2.65,6.02-3.8,9.09
					c-3.18,8.5-5.48,17.22-7.41,25.92c-0.57,2.56-1.06,5.14-1.5,7.73c-0.08,0.01-0.15,0.03-0.23,0.05
					c1.41-8.52,2.67-17.05,4.4-25.49c1.68-8.2,3.44-16.39,5.24-24.58c0.92-4.2,1.91-8.37,3.03-12.55c0.73-2.74,2.49-6.17,1.86-8.97
					c-0.04-0.17-0.33-0.01-0.33,0.11c0.05,1.56-1.18,3.69-1.73,5.2c-0.77,2.13-1.79,4.19-2.84,6.25c-2.14,4.2-3.97,8.46-5.66,12.78
					c-2.2,5.63-4.09,11.35-5.73,17.1c1.24-8.95,2.75-17.87,4.59-26.84c0.03-0.14-0.24-0.08-0.27,0.01
					c-3.82,11.47-7.59,22.86-10.34,34.44c1.58-9.57,3.53-19.13,5.88-28.56c0.08-0.33-0.55-0.18-0.64,0.03
					c-3.17,7.58-5.94,15.19-8.29,22.89c1.5-10.44,3.6-20.89,7.66-30.83c0.14-0.34-0.44-0.26-0.57-0.03
					c-3.85,6.73-6.78,13.62-9.07,20.62c0.19-1.35,0.39-2.7,0.59-4.05c1.18-7.83,3.51-15.76,3.71-23.64c0.01-0.18-0.3-0.08-0.33,0.05
					c-1.64,7.76-5.38,15.26-7.62,22.95c-1.57,5.38-2.9,10.79-3.96,16.23c0.92-8.05,2.16-16.06,3.79-24c0.07-0.36-0.6-0.15-0.66,0.1
					c-3.91,14.36-5.96,28.89-7.5,43.5c-0.58,5.54-0.81,11.11-0.96,16.67c0.01-8.2-0.12-16.41,0.07-24.62
					c0.2-8.51,0.6-17.03,1.19-25.53c0.59-8.39,2.15-16.76,2.56-25.14c0.01-0.27-0.46-0.12-0.5,0.07
					c-1.48,8.57-4.08,17.06-5.76,25.62c-1.46,7.44-2.54,14.89-3.07,22.39c-0.34-7.79-0.92-15.58-1.22-23.37
					c-0.17-4.48-0.21-8.96-0.12-13.43c0.07-3.79,0.94-7.53,0.82-11.32c-0.01-0.2-0.43-0.04-0.44,0.11
					c-0.36,3.87-1.61,7.64-2.25,11.49c-0.71,4.27-1.32,8.56-1.92,12.84c-1.16,8.27-1.66,16.58-1.74,24.9
					c-0.08,8.19,0.13,16.36,0.84,24.5c-0.34,0.1-0.66,0.26-0.84,0.4c-0.2,0.15-0.36,0.32-0.52,0.5c-0.45-8.51-0.92-17.02-1.43-25.53
					c-0.93-15.74-2.81-31.42-4.02-47.15c-0.01-0.18-0.38-0.03-0.39,0.09c-0.8,11.49-1.13,23.08-0.95,34.69
					c-1.09-5.02-2.37-10.01-4.06-14.86c-1.24-3.56-2.73-7.13-4.5-10.57c-1.55-3.01-3.34-6.39-6.47-8.69
					c-0.11-0.08-0.31,0.09-0.22,0.18c2.89,2.82,4.2,7.01,5.49,10.38c1.52,3.98,2.44,8.13,3.4,12.2c0.22,0.95,0.43,1.89,0.63,2.84
					c0.42,4.67-0.1,9.41-0.3,14.06c-0.27,6.36-1.02,12.69-1.64,19.04c-0.56,5.79-1.29,11.69-1.74,17.59c0-0.13,0-0.25,0-0.38
					c0.13-7.86,0.62-15.68,0.34-23.55c-0.51-14.47-1.3-30.11-8.02-43.84c-0.09-0.19-0.5,0.02-0.44,0.19
					c5.3,14.81,3.75,30.98,3.53,46.16c-0.09,6.22-0.48,12.45-0.86,18.67c0-3.16-0.03-6.32-0.12-9.47
					c-0.23-7.85-1.21-15.71-2.35-23.51c-1.02-7.03-1.61-14.4-4.49-21.18c-0.07-0.17-0.43,0.02-0.39,0.16
					c2.17,7.02,1.97,14.48,2.3,21.64c0.13,2.82,0.17,5.63,0.18,8.44c-0.53-4.66-1.1-9.31-1.5-13.95c-1.19-14.02-2.95-27.9-6.48-41.7
					c-0.02-0.09-0.23,0-0.23,0.07c0.78,11.65,1.31,23.32,1.99,34.97c-1.52-6.49-3.3-12.95-5.48-19.34
					c1.05-5.65,2.22-11.29,3.48-16.89c0.02-0.11-0.19-0.06-0.21,0.01c-1.51,4.28-3.1,8.6-4.68,12.93c-0.19-0.51-0.37-1.03-0.57-1.54
					c-0.09-0.24-0.61,0.03-0.55,0.23c0.24,0.84,0.46,1.68,0.68,2.53c-0.58,1.6-1.15,3.2-1.72,4.8c-0.82-2.84-1.68-5.78-2.68-8.72
					c1.03-1.72,2.12-3.42,3.07-5.2c0.11-0.21-0.27-0.21-0.39-0.06c-1,1.28-2.08,2.54-3.19,3.79c-1.68-4.72-3.74-9.4-6.54-13.57
					c-0.08-0.11-0.32,0.01-0.28,0.12c1.79,4.27,2.25,8.78,3.18,13.19c0.25,1.16,0.49,2.32,0.73,3.47c-0.98,1.08-1.95,2.17-2.88,3.26
					c-0.89-1.33-1.84-2.65-2.86-3.94c-0.07-0.09-0.27,0.01-0.22,0.09c0.92,1.48,1.74,3,2.52,4.53c-2.12,2.6-3.88,5.34-5.52,8.12
					c-0.3-0.38-0.62-0.75-0.97-1.09c-0.06-0.05-0.17,0.05-0.14,0.09c0.27,0.54,0.5,1.11,0.72,1.68c-0.45,0.79-0.9,1.57-1.35,2.36
					c-0.86,1.53-1.68,3.08-2.47,4.63c-0.41-0.76-0.83-1.52-1.25-2.27c1.76-5.46,4.35-10.6,6.56-16c0.14-0.34-0.44-0.27-0.57-0.03
					c-2.36,4.44-5.13,8.74-7.66,13.13c-0.4-0.67-0.8-1.35-1.21-2.02c1.98-7.73,4.55-15.35,8.31-22.69c0.23-0.45-0.59-0.35-0.78-0.04
					c-3.73,6.17-7.03,12.46-9.97,18.84c-0.9-1.39-1.82-2.76-2.77-4.14c0.38-1.19,0.83-2.37,1.82-3.27c0.08-0.07-0.01-0.13-0.1-0.07
					c-0.96,0.66-1.7,1.51-2.33,2.45c-1.34-1.91-2.74-3.81-4.2-5.7c-0.12-0.16-0.44,0.06-0.36,0.19c0.44,0.77,0.86,1.55,1.29,2.32
					c-0.03,0.02-0.07,0.04-0.08,0.08c-1.62,3.23-3.24,6.44-4.8,9.67c-0.11-0.14-0.22-0.28-0.34-0.42c-0.13-0.15-0.45,0.06-0.36,0.19
					c0.16,0.24,0.31,0.48,0.46,0.72c-0.64,1.32-1.26,2.64-1.88,3.97c-1.32-1.59-2.69-3.16-4.1-4.7c0.12-0.54,0.23-1.08,0.35-1.62
					c0.92-4.2,1.91-8.37,3.03-12.55c0.73-2.74,2.49-6.17,1.86-8.97c-0.04-0.17-0.34-0.01-0.33,0.11c0.05,1.56-1.18,3.69-1.73,5.2
					c-0.77,2.13-1.79,4.19-2.84,6.25c-1.35,2.65-2.57,5.33-3.72,8.03c-1.1-1.09-2.26-2.19-3.41-3.31c0.11-0.56,0.21-1.12,0.33-1.68
					c0.03-0.14-0.24-0.08-0.27,0.01c-0.15,0.43-0.29,0.87-0.43,1.3c-2.54-2.5-4.99-5.09-6.55-7.81c-0.12-0.21-0.6,0.05-0.53,0.23
					c1.29,3.43,3.92,6.74,6.3,9.93c-3.4,10.24-6.67,20.44-9.12,30.79c1.58-9.57,3.53-19.13,5.88-28.56
					c0.08-0.33-0.55-0.18-0.64,0.03c-3.17,7.58-5.94,15.19-8.29,22.89c1.5-10.44,3.6-20.89,7.66-30.83
					c0.14-0.34-0.44-0.26-0.57-0.03c-3.85,6.73-6.78,13.62-9.07,20.62c0.19-1.35,0.39-2.7,0.59-4.05
					c1.18-7.83,3.51-15.76,3.71-23.64c0-0.18-0.31-0.08-0.33,0.05c-1.64,7.76-5.38,15.26-7.62,22.95
					c-1.57,5.38-2.9,10.79-3.96,16.23c0.92-8.05,2.16-16.06,3.79-24c0.07-0.36-0.6-0.15-0.66,0.1c-3.91,14.36-5.96,28.89-7.5,43.5
					c-0.58,5.54-0.81,11.11-0.96,16.67c0.01-8.2-0.12-16.41,0.07-24.62c0.2-8.51,0.6-17.03,1.19-25.53
					c0.59-8.39,2.15-16.76,2.56-25.14c0.01-0.27-0.46-0.12-0.5,0.07c-1.48,8.57-4.08,17.06-5.76,25.62
					c-1.46,7.44-2.54,14.89-3.07,22.39c-0.34-7.79-0.92-15.58-1.22-23.37c-0.17-4.48-0.21-8.96-0.12-13.43
					c0.07-3.79,0.94-7.53,0.82-11.32c-0.01-0.2-0.43-0.04-0.44,0.11c-0.36,3.87-1.61,7.64-2.25,11.49
					c-0.7,4.27-1.32,8.56-1.92,12.84c-1.16,8.27-1.66,16.58-1.74,24.9c-0.09,8.44,0.15,16.86,0.91,25.26
					c-0.01,0-0.02,0.01-0.03,0.01c-0.53,0.21-0.97,0.5-1.36,0.85c-0.46-8.75-0.95-17.5-1.46-26.25
					c-0.93-15.74-2.81-31.42-4.02-47.15c-0.01-0.18-0.38-0.03-0.39,0.09c-0.8,11.49-1.13,23.08-0.95,34.69
					c-1.09-5.02-2.37-10.01-4.06-14.86c-1.24-3.56-2.73-7.13-4.5-10.57c-1.55-3.01-3.34-6.39-6.47-8.69
					c-0.11-0.08-0.31,0.09-0.22,0.18c2.89,2.82,4.2,7.01,5.49,10.38c1.52,3.98,2.44,8.13,3.4,12.2c2.03,8.64,3.17,17.44,4.51,26.16
					c1.65,10.75,2.95,21.54,4.04,32.34c-0.44,0.82-0.89,1.63-1.33,2.44c-0.66-7.31-1.68-14.63-2.34-21.86
					c-0.56-6.22-1.3-12.42-2.6-18.58c-1.17-5.54-1.94-11.28-4.5-16.58c-0.04-0.09-0.24,0.02-0.21,0.09
					c1.98,5.56,2.09,11.45,2.69,17.16c0.66,6.35,0.85,12.7,1.18,19.06c0.3,5.8,0.44,11.72,0.86,17.63
					c-0.02-0.13-0.04-0.25-0.05-0.38c-1.03-7.82-1.7-15.64-3.13-23.43c-2.64-14.34-5.73-29.82-14.43-42.93
					c-0.12-0.18-0.49,0.06-0.41,0.22c7.45,14.29,8.29,30.49,10.31,45.6c0.83,6.19,1.36,12.41,1.9,18.63
					c-0.46-3.14-0.96-6.28-1.52-9.41c-1.39-7.78-3.52-15.52-5.79-23.18c-2.05-6.91-3.72-14.18-7.58-20.69
					c-0.1-0.16-0.43,0.05-0.36,0.19c3.19,6.8,4.09,14.23,5.47,21.32c0.54,2.79,1,5.58,1.42,8.37c-1.21-4.59-2.47-9.17-3.54-13.74
					c-3.25-13.84-7.05-27.49-12.59-40.92c-0.04-0.09-0.23,0.02-0.21,0.09c2.49,11.52,4.73,23.07,7.13,34.6
					c-1.24-3.17-2.54-6.33-3.92-9.47c-0.08-0.32-0.15-0.64-0.23-0.96c-0.74-2.91-1.15-6.54-3.12-9.14
					c-0.05-0.06-0.18,0.03-0.16,0.08c0.34,1.2,0.52,2.46,0.62,3.74c-1.34-2.79-2.76-5.57-4.26-8.32c-0.13-0.23-0.6,0.08-0.52,0.28
					c1.89,4.27,3.49,8.56,4.89,12.87c0,0.84,0,1.68,0.02,2.49c0.04,1.58,0.11,3.17,0.17,4.75c-1.41-4.05-2.96-8.07-4.72-12.03
					c-3.49-7.84-7.45-16.57-13.49-23.54c-0.09-0.11-0.32,0.04-0.26,0.14c2.41,4.1,3.53,8.55,5.11,12.85c0.05,0.13,0.1,0.27,0.15,0.4
					c1.05,3.81,1.92,7.63,2.65,11.45c-2.18-3-4.6-5.91-7.36-8.66c-0.08-0.08-0.27,0.03-0.21,0.11c3.4,4.2,6.14,8.68,8.43,13.3
					c1.72,10.31,2.65,20.7,3.78,31.16c0.55,5.13,1.06,10.3,1.39,15.46c3.09,4.97,6.02,10.04,8.65,15.29
					c36.67-1.32,73.63-0.26,110.22,2.16c18.65,1.23,37.19,3.44,55.85,4.5c9.03,0.51,18.1,1.43,27.15,0.74
					c5.55-0.42,11.07-1.13,16.6-1.55c6.28-13.64,12.66-28.05,23.06-38.83c0.09-0.23,0.2-0.45,0.33-0.67
					c0.62-1.04,1.76-1.88,3.01-2.28c-0.06-0.59-0.02-1.19,0.18-1.8c1.93-6.07,6.01-10.93,10.73-15.18c0.25-0.57,0.58-1.06,0.96-1.47
					c0.93-8.29,2.24-16.57,3.82-24.81c0.27-1.29,0.53-2.57,0.82-3.86c0.01-0.06,0-0.1-0.04-0.13
					C433.4,367.14,434.16,363.55,434.97,359.97z M414.41,373.03c-0.42,0.7-0.84,1.4-1.26,2.1
					C413.44,374.37,413.82,373.64,414.41,373.03z M232.69,450.14c-0.01-0.92-0.04-1.85-0.04-2.77c0.07,0.93,0.15,1.85,0.25,2.78
					C232.83,450.14,232.76,450.14,232.69,450.14z M275.87,372.35c0.76,1.4,1.5,2.81,2.2,4.23c-0.77,1.41-1.41,2.88-2.2,4.09
					c-0.92,1.41-1.76,2.85-2.53,4.31c-0.54-0.71-1.09-1.42-1.65-2.12C273.02,379.35,274.45,375.86,275.87,372.35z M271.42,383.56
					c0.49,0.78,0.97,1.56,1.44,2.34c-0.57,1.12-1.11,2.25-1.63,3.38c-0.43-0.53-0.87-1.05-1.3-1.58
					C270.4,386.32,270.9,384.94,271.42,383.56z M268.05,393.77c0.24,0.4,0.47,0.79,0.71,1.19c-0.82,1.98-1.62,3.97-2.38,5.96
					c0.26-1.21,0.52-2.42,0.79-3.64C267.43,396.11,267.73,394.94,268.05,393.77z M257.23,377.42c0.25,0.34,0.51,0.69,0.75,1.03
					c0.63,0.89,1.26,1.79,1.89,2.68c-0.21,0.51-0.42,1.03-0.62,1.54c-2.2,5.63-4.09,11.35-5.73,17.1
					C254.55,392.32,255.78,384.88,257.23,377.42z M253.48,444.37c-0.15-0.54-0.32-1.07-0.54-1.59c2.57-12.74,4.12-25.65,6.72-38.35
					c1.23-6,2.51-11.99,3.81-17.98c1.02,1.55,2.02,3.12,2.98,4.7c-0.71,1.68-1.4,3.38-2.04,5.08c-3.19,8.5-5.48,17.22-7.41,25.92
					C255.38,429.5,254.32,436.94,253.48,444.37z M268.53,418.99c-1.4,5.23-2.64,10.47-3.68,15.74c-0.34-0.04-0.69-0.03-1.04,0.05
					c0.6-4.8,1.25-9.59,2.06-14.38c1.26-7.39,2.81-14.69,5.03-21.95c0.85,1.38,1.71,2.76,2.56,4.14
					C271.64,408.03,270,413.5,268.53,418.99z M276.04,395.3c-0.88-1.13-1.77-2.26-2.67-3.38c-0.08-0.09-0.15-0.19-0.23-0.28
					c0.38-1.08,0.77-2.15,1.17-3.22c0.88,1.58,1.72,3.18,2.51,4.78C276.56,393.9,276.3,394.6,276.04,395.3z M277.66,391.06
					c-0.91-1.37-1.84-2.73-2.81-4.07c0.36-0.91,0.72-1.83,1.1-2.74c0.84-1.99,1.82-3.94,2.76-5.9c0.04-0.08,0.07-0.16,0.1-0.24
					c0.78,1.6,1.53,3.21,2.24,4.83C279.87,385.63,278.74,388.34,277.66,391.06z M283.55,390.48c-0.2,0.38-0.38,0.77-0.57,1.15
					c0.19-0.9,0.39-1.79,0.6-2.68c0.11,0.28,0.23,0.56,0.34,0.84C283.79,390.02,283.67,390.25,283.55,390.48z M284.15,401.6
					c0.59-2.17,1.17-4.33,1.76-6.5c0.16,0.44,0.32,0.88,0.48,1.32C285.61,398.14,284.86,399.86,284.15,401.6z M290.17,412.52
					c0.21-0.92,0.43-1.84,0.65-2.76c0.03,0.1,0.06,0.2,0.09,0.29C290.66,410.88,290.41,411.7,290.17,412.52z M294.04,401.46
					c-0.21-0.45-0.42-0.9-0.64-1.35c0.55-1.88,1.14-3.76,1.76-5.64c0.21,0.88,0.42,1.77,0.63,2.65
					C295.21,398.57,294.62,400.02,294.04,401.46z M296.09,405.95c-0.01-0.02-0.01-0.03-0.02-0.05c0.23-1.4,0.52-2.79,0.82-4.18
					c0.1,0.41,0.2,0.83,0.3,1.24C296.81,403.96,296.44,404.96,296.09,405.95z M299.5,396.99c-0.32-0.8-0.65-1.59-0.98-2.39
					c0.6-2.66,1.15-5.33,1.47-8.02c0.03-0.28-0.45-0.11-0.5,0.07c-0.53,1.95-1.18,3.89-1.89,5.82c-0.19-0.43-0.38-0.87-0.58-1.3
					c-0.13-0.29-0.27-0.59-0.4-0.9c0.26-0.72,0.51-1.44,0.79-2.16c1.03-2.74,2.18-5.46,3.31-8.18c1.03,2.47,1.89,4.98,2.64,7.52
					C302.06,390.64,300.76,393.82,299.5,396.99z M301.39,378.3c0.41-0.99,0.81-1.98,1.2-2.97c0.05-0.13,0.11-0.25,0.17-0.38
					c0.38,1.92,0.74,3.83,1.06,5.76c0.18,1.08,0.36,2.17,0.54,3.25C303.45,382.04,302.47,380.16,301.39,378.3z M308.4,425.05
					c-0.48-2.21-1.02-4.41-1.6-6.61c0.17-3.13,0.35-6.26,0.57-9.39c0-0.03,0-0.05,0.01-0.08c0.45,3.97,0.8,7.92,1.16,11.8
					c0.3,3.26,0.64,6.51,0.98,9.76C309.16,428.7,308.79,426.87,308.4,425.05z M313.56,405.51c-0.91-6.55-1.97-13.11-3.47-19.6
					c0.35-2.21,0.71-4.41,1.1-6.62c2.54,12.02,3.33,24.02,3.62,36.16C314.43,412.13,314.02,408.82,313.56,405.51z M340.49,434.2
					c-0.83,0.67-1.44,1.45-1.91,2.3c0.13-4,0.25-7.99,0.48-11.94c0.36-6.23,0.54-12.45,0.15-18.68c-0.11-1.81-0.18-3.64-0.28-5.48
					c0.86,5.08,1.57,10.17,2.35,15.24c0.96,6.24,1.79,12.49,2.54,18.75C343,433.4,341.92,433.05,340.49,434.2z"/>
				<g>
					<g>
						<g>
							<path class="st6" d="M377.57,460.93c1.36-0.13,2.72-0.27,4.08-0.4c-0.17-8.56-0.17-17.12,0.1-25.67
								c0.23-7.09,0.28-14.23,1.07-21.3c0.37-3.33,0.71-6.72,1.54-10c0.71-2.78,1.36-6.22,3.41-8.65c0.07-0.08-0.11-0.2-0.19-0.13
								c-2.29,2.02-3.41,4.84-4.36,7.34c-1.08,2.86-1.94,5.82-2.59,8.75c-0.89,3.99-1.43,8.09-1.82,12.18
								c-0.98-9.35-2.38-18.67-4.15-27.88c-0.02-0.1-0.33-0.2-0.32-0.06c0.57,12.73,0.58,25.45,1.37,38.18
								C376.29,442.51,376.91,451.72,377.57,460.93z"/>
							<path class="st6" d="M321.16,408.64c0.95,1.53,1.93,3.04,2.8,4.6c1.86,3.32,3.47,6.7,5,10.11c2.72,6.07,4.8,12.21,6.65,18.45
								c1.81,6.1,3.28,12.26,4.76,18.41c1.9,0.13,3.79,0.26,5.69,0.37c0.64,0.04,1.29,0.08,1.93,0.12
								c-1.42-6.02-3.01-12.05-5.07-17.96c-2.4-6.9-5.1-13.79-8.5-20.47c-3.29-6.47-7.34-12.64-11.35-18.87
								c-0.09-0.14-0.43-0.15-0.33,0.04c3.53,6.55,7.16,12.98,9.56,19.83c0.34,0.96,0.66,1.92,0.99,2.89
								c-0.98-1.9-1.99-3.78-3.04-5.66c-1.94-3.45-3.97-6.93-6.58-10.14c-1.55-1.91-2.69-4.74-5.12-6.12
								c-0.08-0.04-0.14,0.01-0.08,0.06C319.97,405.41,320.31,407.26,321.16,408.64z"/>
							<path class="st6" d="M332.42,409.1c2.25,6.49,4.47,12.99,6.62,19.5c3.52,10.63,6.13,21.5,9.72,32.14
								c8.14,0.52,16.3,1.2,24.44,0.58c0.91-0.07,1.82-0.15,2.73-0.23c0.16-9.2-0.56-18.39-1.77-27.58
								c-0.88-6.69-2.09-13.35-3.84-19.95c-0.9-3.42-1.82-6.83-2.8-10.24c-0.89-3.06-2.26-6.03-2.93-9.13
								c-0.03-0.12-0.38-0.23-0.37-0.06c0.28,3.06,1.34,6.02,1.77,9.07c0.51,3.6,0.92,7.21,1.21,10.82
								c0.52,6.29,0.81,12.59,1.3,18.88c-1.16-6.01-2.76-11.95-4.66-17.86c-2.19-6.8-5.12-13.5-7.15-20.31
								c-0.05-0.15-0.45-0.25-0.41-0.03c1.15,6.72,3.22,13.38,4.51,20.1c1.31,6.81,2.47,13.65,3.46,20.49
								c0.96,6.6,1.65,13.21,2.46,19.81c-0.66-4.47-1.39-8.93-2.4-13.37c-2.67-11.68-5.74-23.27-10.29-34.62
								c-0.08-0.2-0.64-0.33-0.54-0.04c2.09,6.31,3.87,12.69,5.4,19.12c-1.39-4.32-2.99-8.61-4.78-12.85
								c-2.56-6.06-6.3-11.91-8.38-18.06c-0.03-0.1-0.29-0.17-0.27-0.02c0.93,6.34,3.58,12.59,5.3,18.84
								c0.3,1.07,0.58,2.15,0.87,3.23c-2.53-5.52-5.56-10.9-9.32-16.12c-0.13-0.18-0.6-0.21-0.46,0.05
								c4.24,7.78,6.95,16.08,9.18,24.41c-2.65-6.07-5.62-12.05-8.91-17.98c-0.09-0.17-0.62-0.25-0.52,0.01
								c2.82,7.47,5.33,15.06,7.53,22.68c-3.35-9.18-7.49-18.14-11.69-27.17c-0.03-0.07-0.25-0.11-0.22,0
								c2.36,7.12,4.45,14.22,6.32,21.36c-1.88-4.54-3.96-9.05-6.28-13.46c-1.78-3.38-3.67-6.71-5.81-9.98
								c-1.05-1.6-2.07-3.21-2.9-4.88c-0.59-1.19-1.79-2.83-1.9-4.09c-0.01-0.1-0.26-0.21-0.28-0.07c-0.23,2.29,1.52,4.96,2.37,7.12
								C330.06,402.47,331.27,405.77,332.42,409.1z"/>
							<path class="st6" d="M403.21,433.46c2.13-3.38,4.45-6.61,7.02-9.62c1.57-7.43,4-14.73,8.35-21.41
								c0.04-0.06-0.12-0.15-0.18-0.08c-2.76,3.34-4.96,6.87-6.78,10.52c0.17-0.87,0.33-1.75,0.5-2.62
								c0.67-3.42,1.47-6.82,2.29-10.22c0.85-3.55,1.31-7.19,2.85-10.62c0.04-0.08-0.16-0.19-0.22-0.1
								c-4.18,5.94-6.52,13.18-8.56,19.68c-2.19,6.98-3.59,14.09-4.77,21.2C403.55,431.28,403.38,432.37,403.21,433.46z"/>
							<path class="st6" d="M391.4,450.44c-0.12,2.15-0.2,4.29-0.26,6.44c3.52-7.66,7.16-15.45,11.59-22.63
								c0.68-10.67,1.99-21.22,5.27-31.78c0.05-0.17-0.36-0.39-0.44-0.2c-2.69,6.56-4.8,13.25-6.55,19.98
								c0.8-9.41,1.48-18.83,2.36-28.24c0.01-0.06-0.16-0.14-0.18-0.06c-3.15,11.11-4.87,22.31-6.13,33.62
								c-0.42,3.74-0.99,7.5-1.51,11.25c0.07-2.27,0.16-4.54,0.33-6.82c0.41-5.78,0.42-11.81,2.32-17.46
								c0.04-0.12-0.25-0.27-0.31-0.14c-2.47,5.45-3.1,11.39-4.08,17.06C392.71,437.76,391.76,444.1,391.4,450.44z"/>
							<path class="st6" d="M386.64,459.95c0,0.03,0,0.06,0,0.09c1.05-0.1,2.11-0.18,3.16-0.26c0.42-0.91,0.84-1.82,1.26-2.74
								c-0.16-4.68-0.31-9.36-0.26-14.04c0.15-12.27-0.76-25.36,3.84-37.26c0.05-0.13-0.27-0.31-0.35-0.16
								c-5.73,11.02-6.7,23.65-7.42,35.34C386.48,447.27,386.71,453.59,386.64,459.95z"/>
							<path class="st6" d="M382.92,460.4c1.24-0.12,2.47-0.25,3.71-0.36c-0.25-4.71-0.7-9.41-1.02-14.02
								c-0.36-5.14-0.83-10.26-0.92-15.4c-0.08-4.63-0.56-9.38,0.49-13.96c0.02-0.06-0.15-0.14-0.18-0.06
								c-1.54,4.4-1.59,9.07-2,13.59c-0.45,5.03-0.43,10.06-0.28,15.1C382.87,450.27,382.82,455.34,382.92,460.4z"/>
						</g>
						<g>
							<path class="st6" d="M243.78,453.82c1.5,0.04,3,0.09,4.5,0.14c-0.06-6.37-0.02-12.74,0.18-19.1
								c0.23-7.09,0.28-14.23,1.07-21.3c0.37-3.33,0.71-6.72,1.54-10c0.71-2.78,1.36-6.22,3.41-8.65c0.07-0.08-0.11-0.2-0.19-0.13
								c-2.29,2.02-3.41,4.84-4.36,7.34c-1.08,2.86-1.94,5.82-2.59,8.75c-0.89,3.99-1.43,8.09-1.82,12.18
								c-0.98-9.35-2.39-18.67-4.15-27.88c-0.02-0.1-0.33-0.2-0.32-0.06c0.57,12.73,0.58,25.45,1.37,38.18
								C242.85,440.14,243.31,446.98,243.78,453.82z"/>
							<path class="st6" d="M187.88,408.64c0.95,1.53,1.93,3.04,2.8,4.6c1.86,3.32,3.47,6.7,5,10.11c2.72,6.07,4.8,12.21,6.65,18.45
								c1.14,3.84,2.13,7.69,3.09,11.56c2.48-0.02,4.97-0.03,7.45-0.03c-0.95-3.56-2.01-7.1-3.23-10.6c-2.4-6.9-5.1-13.79-8.5-20.47
								c-3.29-6.47-7.34-12.64-11.35-18.87c-0.09-0.14-0.43-0.15-0.33,0.04c3.53,6.55,7.16,12.98,9.56,19.83
								c0.34,0.96,0.66,1.92,0.99,2.89c-0.98-1.9-1.99-3.78-3.04-5.66c-1.94-3.45-3.97-6.93-6.58-10.14
								c-1.55-1.91-2.69-4.74-5.12-6.12c-0.08-0.04-0.15,0.01-0.08,0.06C186.68,405.41,187.02,407.26,187.88,408.64z"/>
							<path class="st6" d="M230.98,435.27c0.88,6.09,1.55,12.19,2.28,18.28c3.11,0.06,6.22,0.14,9.34,0.23
								c-0.21-6.76-0.83-13.52-1.72-20.28c-0.88-6.69-2.09-13.35-3.84-19.95c-0.9-3.42-1.82-6.83-2.8-10.24
								c-0.89-3.06-2.26-6.03-2.93-9.13c-0.03-0.12-0.38-0.23-0.37-0.06c0.28,3.06,1.34,6.02,1.77,9.07
								c0.51,3.6,0.92,7.21,1.21,10.82c0.52,6.29,0.81,12.59,1.3,18.88c-1.16-6.01-2.76-11.95-4.66-17.86
								c-2.19-6.8-5.12-13.5-7.15-20.31c-0.05-0.15-0.45-0.25-0.41-0.03c1.15,6.72,3.22,13.38,4.51,20.1
								C228.83,421.59,229.99,428.43,230.98,435.27z"/>
							<path class="st6" d="M199.14,409.1c2.25,6.49,4.47,12.99,6.62,19.5c2.7,8.17,4.87,16.49,7.35,24.73
								c6.7,0,13.4,0.07,20.09,0.21c-0.6-3.96-1.27-7.91-2.17-11.83c-2.67-11.68-5.74-23.27-10.29-34.62
								c-0.08-0.2-0.64-0.33-0.54-0.04c2.09,6.31,3.87,12.69,5.4,19.12c-1.39-4.32-2.99-8.61-4.78-12.85
								c-2.56-6.06-6.3-11.91-8.38-18.06c-0.03-0.1-0.29-0.17-0.27-0.02c0.93,6.34,3.58,12.59,5.3,18.84
								c0.3,1.07,0.58,2.15,0.87,3.23c-2.53-5.52-5.56-10.9-9.32-16.12c-0.13-0.18-0.6-0.21-0.46,0.05
								c4.24,7.78,6.95,16.08,9.18,24.41c-2.65-6.07-5.62-12.05-8.91-17.98c-0.09-0.17-0.62-0.25-0.52,0.01
								c2.82,7.47,5.33,15.06,7.53,22.68c-3.35-9.18-7.49-18.14-11.69-27.17c-0.03-0.07-0.25-0.11-0.22,0
								c2.36,7.12,4.45,14.22,6.32,21.36c-1.88-4.54-3.96-9.05-6.28-13.46c-1.78-3.38-3.67-6.71-5.81-9.98
								c-1.05-1.6-2.07-3.21-2.9-4.88c-0.59-1.19-1.79-2.83-1.9-4.09c-0.01-0.1-0.26-0.21-0.28-0.07c-0.23,2.29,1.52,4.96,2.37,7.12
								C196.78,402.47,197.98,405.77,199.14,409.1z"/>
							<path class="st6" d="M258.11,450.44c-0.07,1.3-0.13,2.59-0.18,3.89c4.88,0.2,9.75,0.44,14.62,0.7
								c0.58-4.15,1.13-8.29,1.63-12.45c1.6-13.43,3.1-27.84,11.12-40.15c0.04-0.06-0.12-0.15-0.18-0.08
								c-2.75,3.34-4.96,6.87-6.78,10.52c0.17-0.87,0.33-1.75,0.5-2.62c0.67-3.42,1.47-6.82,2.29-10.22
								c0.85-3.55,1.31-7.19,2.85-10.62c0.04-0.08-0.16-0.19-0.22-0.1c-4.18,5.94-6.52,13.18-8.56,19.68
								c-2.19,6.98-3.59,14.09-4.77,21.2c-0.44,2.67-0.84,5.34-1.23,8.02c0.61-12.02,1.81-23.87,5.5-35.74
								c0.05-0.17-0.36-0.39-0.44-0.2c-2.69,6.56-4.8,13.25-6.55,19.98c0.8-9.41,1.48-18.83,2.36-28.24c0-0.06-0.16-0.14-0.18-0.06
								c-3.15,11.11-4.87,22.31-6.13,33.62c-0.42,3.74-0.99,7.5-1.51,11.25c0.07-2.27,0.16-4.54,0.33-6.82
								c0.42-5.78,0.42-11.81,2.32-17.46c0.04-0.12-0.25-0.27-0.31-0.14c-2.47,5.45-3.1,11.39-4.08,17.06
								C259.43,437.76,258.47,444.1,258.11,450.44z"/>
							<path class="st6" d="M257.68,454.31c-0.12-3.77-0.21-7.55-0.17-11.32c0.15-12.27-0.76-25.36,3.84-37.26
								c0.05-0.13-0.27-0.31-0.35-0.16c-5.73,11.02-6.7,23.65-7.42,35.34c-0.27,4.42-0.25,8.82-0.23,13.23
								C254.8,454.2,256.24,454.25,257.68,454.31z"/>
							<path class="st6" d="M249.56,454c1.13,0.04,2.25,0.08,3.38,0.12c-0.21-2.72-0.44-5.43-0.62-8.11
								c-0.36-5.14-0.83-10.26-0.92-15.4c-0.08-4.63-0.56-9.38,0.49-13.96c0.01-0.06-0.16-0.14-0.18-0.06
								c-1.54,4.4-1.6,9.07-2,13.59c-0.45,5.03-0.43,10.06-0.28,15.1C249.52,448.17,249.54,451.08,249.56,454z"/>
							<path class="st6" d="M290.21,456.07c0.09,0.01,0.19,0.01,0.28,0.02c1.38-6.86,2.84-13.74,5.03-20.48
								c2.64-8.11,6.81-15.76,10.38-23.65c1.77-3.92,3.85-7.71,5.99-11.53c1.77-3.16,4.18-6.51,5.01-9.89
								c0.04-0.15-0.37-0.34-0.45-0.16c-1.66,3.8-5.35,7.45-8.08,10.88c-2.8,3.52-5.15,7.17-7.55,10.84
								c-1.66,2.54-3.25,5.1-4.75,7.69c1.58-5.52,3.6-10.97,6.38-16.27c0.06-0.12-0.22-0.27-0.31-0.14
								c-8.32,12.44-12.73,26.3-15.84,39.93c-0.21,0.91-0.39,1.82-0.59,2.73c-0.56,2.17-1.09,4.34-1.58,6.52
								c0.62-4.6,1.43-9.19,2.27-13.75c2.81-15.1,5.09-30.02,11.43-44.59c0.05-0.12-0.23-0.27-0.31-0.14
								c-7.62,12.31-12.33,25.07-15.86,38.25c0.27-2.75,0.55-5.5,0.85-8.25c0.35-3.21,0.77-6.41,1.1-9.62
								c0.3-2.86,0.29-6.12,1.3-8.9c0.02-0.04-0.08-0.12-0.12-0.07c-1.75,2.03-2.31,4.95-3.09,7.27c-0.92,2.74-1.62,5.52-2.35,8.29
								c-1.71,6.48-2.87,13-3.5,19.59c-0.46,4.83-0.71,9.65-0.98,14.48C279.99,455.43,285.1,455.74,290.21,456.07z"/>
							<path class="st6" d="M171.27,438.51c-0.24-0.95-0.48-1.9-0.74-2.85c-3.72-13.63-11.07-26.93-17.41-39.99
								c-0.03-0.06-0.2-0.08-0.17,0c3.26,9.22,6.2,18.56,8.56,27.96C164.85,428.55,168.14,433.49,171.27,438.51z"/>
							<path class="st6" d="M168.36,407.49c1.77,3.35,3.71,6.65,5.43,10.02c3.23,6.33,5.87,12.72,8.2,19.25
								c-0.47-1.12-0.96-2.23-1.47-3.34c-2.64-5.7-6.24-11.2-8.55-16.97c-0.06-0.14-0.46-0.25-0.41-0.03
								c1.27,5.23,3.58,10.3,5.09,15.51c-3.54-7.23-7.67-14.31-11.37-21.54c-0.08-0.16-0.56-0.23-0.48,0.01
								c3.95,11.36,7.04,22.82,10.21,34.32c1.75,3.02,3.42,6.09,4.98,9.22c8.18-0.29,16.37-0.49,24.58-0.56
								c-1.36-4.21-2.88-8.4-4.53-12.56c-6.19-15.62-13.99-30.91-24.76-45.14c-0.18-0.24-0.85-0.28-0.62,0.07
								c4.97,7.57,8.3,15.63,11.07,23.82c-0.19-0.3-0.38-0.6-0.57-0.9c-3.04-4.63-6.71-8.98-9.81-13.57
								c-0.13-0.19-0.6-0.21-0.46,0.05c2.66,4.87,5.69,9.43,7.68,14.5c1.05,2.67,2.12,5.34,3.19,8c-2.15-3.98-4.55-7.88-7.25-11.68
								c-2.24-3.15-4.53-6.28-7.45-9.12c-2.69-2.61-5.7-5.12-8.25-7.79c-0.11-0.11-0.42-0.09-0.3,0.07
								C164.44,401.96,166.79,404.5,168.36,407.49z"/>
							<path class="st6" d="M148.52,401.66c0.43,1.39,0.78,2.8,1.1,4.21c2.74,4.26,5.57,8.47,8.42,12.66
								c-0.42-1.37-0.84-2.75-1.29-4.12c-1.29-3.91-3.02-7.76-4.74-11.58c-0.75-1.67-2.02-3.28-3-4.89
								c-0.65-1.06-2.58-3.43-2.54-4.52c0.01-0.14-0.33-0.27-0.37-0.1c-0.22,0.87,0.18,1.58,0.58,2.38
								C147.59,397.57,147.92,399.72,148.52,401.66z"/>
						</g>
						<path class="st6" d="M302.65,457.02c0.05-1.05,0.1-2.11,0.16-3.16c-0.02,1.06-0.02,2.11-0.01,3.17
							c3.6,0.3,7.21,0.62,10.81,0.95c-0.08-2.17-0.12-4.35-0.11-6.52c0.08-9.89,0.47-19.82-0.53-29.69
							c-0.01-0.1-0.21-0.02-0.22,0.05c-0.93,8.48-2.36,16.91-3.07,25.39c0.03-1.04,0.06-2.09,0.09-3.13
							c0.21-6.05,0.72-12.08,1.11-18.12c0.37-5.8-0.09-11.77,1.25-17.5c0.05-0.2-0.32-0.1-0.38,0.02
							c-5.38,11.54-7.34,24.46-8.46,36.58c-0.06,0.64-0.11,1.27-0.16,1.91c0.46-11.05,1.13-22.35,3.73-33.22
							c0.05-0.22-0.37-0.12-0.43,0.02c-4.71,10.82-7.68,21.99-9.56,33.26c0-5.05,0.24-10.08,0.43-15.17c0-0.11-0.18-0.06-0.21,0.01
							c-3.25,8.04-5.7,15.87-6.07,24.26C294.91,456.39,298.78,456.7,302.65,457.02z"/>
						<path class="st6" d="M314.49,442.55c-0.03,5.14-0.23,10.3-0.38,15.48c4.89,0.44,9.77,0.88,14.66,1.29
							c-0.69-3.28-1.38-6.56-1.92-9.85c-1.73-10.48-3.24-20.94-4.37-31.47c-0.02-0.16-0.32-0.02-0.33,0.08
							c-0.66,6.36-1.49,12.77-2.04,19.18c-0.19-5.28-0.44-10.56-0.9-15.82c-0.59-6.79-2.46-13.44-3.36-20.2
							c-0.03-0.21-0.43-0.03-0.44,0.11c-0.56,6.58-0.07,13.17-0.21,19.75C315.06,428.25,314.53,435.39,314.49,442.55z"/>
						<path class="st6" d="M330.58,459.47c2.1,0.17,4.21,0.34,6.31,0.49c-0.54-1.86-1.06-3.71-1.47-5.57
							c-1.01-4.5-2.06-8.99-3.07-13.49c-0.93-4.1-2.09-8.36-2.19-12.53c0-0.23-0.48-0.04-0.5,0.12c-0.36,2.84-0.41,5.71-0.27,8.59
							c-0.26-1.04-0.52-2.09-0.76-3.14c-0.99-4.33-2.56-8.7-3.19-13.05c-0.02-0.13-0.27-0.02-0.28,0.07
							c-0.43,8.81,1.2,17.92,2.88,26.63C328.78,451.43,329.53,455.47,330.58,459.47z"/>
					</g>
					<path class="st6" d="M430.65,398.01c0.17-0.14,0.34-0.26,0.51-0.4c0.1-3.95,0.22-7.91,0.03-11.84
						c-0.01-0.15-0.32-0.03-0.33,0.08c-0.46,4.35-1.35,8.68-2.07,13.03C429.36,398.46,429.99,398.16,430.65,398.01z"/>
					<path class="st6" d="M426.09,401.97c-0.05-1.82-0.09-3.63-0.17-5.45c-0.01-0.18-0.38-0.03-0.39,0.09
						c-0.13,2.1-0.28,4.21-0.44,6.31C425.42,402.6,425.75,402.29,426.09,401.97z"/>
					<path class="st6" d="M415.36,418.33c0.19-1.91,0.39-3.81,0.63-5.71c0.02-0.18-0.3-0.07-0.33,0.05
						c-0.56,2.17-1.07,4.35-1.57,6.54C414.46,418.86,414.9,418.56,415.36,418.33z"/>
				</g>
			</g>
		</g>
		<path class="st7" d="M262.13,454.5c1.42,0.06,2.84,0.13,4.25,0.2c0.1-1.75,0.22-3.5,0.38-5.25c0.44,1.76,0.74,3.53,0.95,5.31
			c7.51,0.37,15.01,0.81,22.5,1.3c18.65,1.23,37.19,3.44,55.85,4.5c9.03,0.51,18.1,1.43,27.15,0.74c5.55-0.42,11.07-1.13,16.6-1.55
			c2-4.34,4.01-8.75,6.15-13.11c-0.02-6.16,0.18-12.33,1.01-18.45c0.02-0.17-0.28-0.1-0.32,0.02c-2.28,6.96-4.19,13.65-5.31,20.61
			c-1.11-5.39-2.92-10.67-4.68-16.07c-0.05-0.17-0.35-0.01-0.33,0.11c0.89,6.61,0.69,13.36,0.21,20.06
			c-0.26,0.02-0.53,0.05-0.79,0.07c-0.29-2.12-0.53-4.24-0.66-6.37c-0.02-0.27-0.55-0.05-0.57,0.14c-0.19,2.19-0.7,4.33-1.23,6.47
			c-0.46,0.05-0.93,0.1-1.41,0.16c-0.08-8.86-1.37-18.15,0.53-26.8c0.05-0.23-0.38-0.13-0.44,0.02c-2.75,7.06-4.49,14.01-5.62,21.13
			c-0.87-4.2-1.7-8.4-1.99-12.59c-0.02-0.23-0.47-0.04-0.48,0.12c-0.11,2.03-0.27,4.05-0.44,6.06c-0.7-5.35-2.2-10.69-4.99-15.36
			c-0.07-0.12-0.31,0.03-0.29,0.13c0.71,3.4,0.2,7.27-0.17,10.92c-1.46,1.22-2.84,2.45-4.12,3.69c-1.74-4.94-4.14-9.7-7.61-14.45
			c-0.09-0.13-0.34,0.04-0.28,0.16c2.91,5.41,4.62,10.94,5.73,16.53c-0.53,0.58-1.05,1.17-1.54,1.77c-0.67-0.61-1.45-1.24-2.29-1.85
			c0.17-3.37,0.42-6.74,0.82-10.1c0.02-0.21-0.32-0.07-0.36,0.06c-0.91,2.87-2.03,5.63-3.12,8.37c-0.67-0.37-1.35-0.69-2.02-0.94
			c-0.76-3.68-2.14-7.26-4.48-10.7c-0.08-0.12-0.32,0.03-0.29,0.13c1.12,3.45-0.15,7.6-0.59,11.13c-0.02,0.13-0.03,0.26-0.04,0.38
			c-0.99-3.03-2.27-5.9-3.72-8.37c-0.09-0.16-0.42,0.04-0.38,0.17c1.21,3.91,1.17,8.26,0.9,12.45c-0.86-3.29-2.21-6.48-4.4-9.4
			c-1.31-1.75-4.13-4.7-6.65-5.47c0.19-1.43,0.41-2.86,0.68-4.27c0.03-0.17-0.28-0.09-0.32,0.02c-2.22,5.71-4.71,11.22-6.45,16.95
			c0.01-4.66-0.01-9.33-0.04-13.97c0-0.1-0.2-0.01-0.21,0.05c-0.71,3.42-2.93,6.51-3.83,9.91c-0.23,0.87-0.43,1.74-0.62,2.61
			c-0.12-7.6-0.05-15.21,0.97-22.76c0.02-0.17-0.28-0.1-0.32,0.02c-2.28,6.96-4.19,13.65-5.31,20.61
			c-1.11-5.39-2.92-10.67-4.68-16.07c-0.05-0.17-0.35-0.01-0.33,0.11c1.05,7.81,0.59,15.81-0.06,23.7c-0.5-3.3-0.97-6.61-1.18-9.93
			c-0.02-0.27-0.55-0.05-0.57,0.14c-0.31,3.49-1.42,6.84-2.14,10.28c-0.24,1.14-0.42,2.29-0.56,3.44c0-1.52,0.02-3.05,0.05-4.58
			c0.2-9.61-1.54-19.84,0.54-29.31c0.05-0.23-0.38-0.13-0.44,0.02c-2.75,7.06-4.49,14.01-5.62,21.13c-0.87-4.2-1.7-8.4-1.99-12.59
			c-0.02-0.23-0.47-0.04-0.48,0.12c-0.11,2.03-0.27,4.05-0.44,6.06c-0.7-5.34-2.2-10.69-4.99-15.36c-0.07-0.12-0.31,0.03-0.29,0.13
			c0.94,4.47-0.25,9.75-0.43,14.28c-0.16,4.16-0.39,8.32-0.76,12.47c-1.72-9.53-4.5-18.09-10.72-26.59
			c-0.09-0.13-0.34,0.04-0.28,0.16c3.66,6.79,5.43,13.77,6.49,20.83c-0.25-0.33-0.5-0.67-0.78-0.99c-1.9-2.26-7.03-6.2-10.65-6.53
			c0.04,0,0.08-0.04,0.05-0.07c-0.09-0.08-0.18-0.15-0.27-0.23c-0.13-0.11-0.41,0.11-0.28,0.23c1.55,1.47,2.82,3.03,3.89,4.67
			c0.79,3.32-0.33,7.17-0.75,10.49c-0.02,0.13-0.03,0.26-0.04,0.38c-0.99-3.03-2.27-5.9-3.72-8.37c-0.09-0.16-0.42,0.04-0.38,0.17
			c1.21,3.91,1.17,8.26,0.9,12.45c-0.86-3.29-2.21-6.48-4.39-9.4c-1.33-1.77-4.2-4.77-6.73-5.5c-0.1-0.03-0.26,0.1-0.17,0.17
			c2.8,1.96,2.9,7.62,3.45,10.32c0.35,1.72,0.63,3.46,0.88,5.2c-0.06,0.11-0.12,0.22-0.18,0.33c-0.93-1.5-2.04-2.93-3.07-4.4
			c0.25-2.29,0.56-4.57,0.99-6.82c0.03-0.17-0.28-0.09-0.32,0.02c-0.64,1.65-1.3,3.28-1.97,4.91c-0.1,0-0.23,0.12-0.19,0.2
			c0.02,0.05,0.03,0.1,0.05,0.14C264.35,448.58,263.16,451.52,262.13,454.5z M367.86,438.4c-0.06,0.69-0.11,1.36-0.13,2.02
			c-0.16,4.16-0.39,8.32-0.76,12.47c-0.56-3.1-1.24-6.1-2.1-9.03C365.76,441.97,366.77,440.14,367.86,438.4z M354.16,443.97
			c-0.1,0.27-0.21,0.55-0.32,0.82c-0.04-0.5-0.1-1-0.16-1.51C353.85,443.51,354,443.74,354.16,443.97z M336.64,440.46
			c0.04,0.22,0.07,0.43,0.11,0.62c0.41,1.99,0.72,3.99,1,6c-0.44-0.77-0.95-1.5-1.48-2.23
			C336.38,443.38,336.47,441.92,336.64,440.46z M333.51,430.94c1.72,1.39,2.35,4.24,2.73,6.77c-0.75,1.36-1.48,2.71-2.18,4.05
			c-0.31-0.46-0.62-0.92-0.91-1.39c-0.08-0.13-0.32,0.05-0.28,0.16c0.28,0.7,0.52,1.41,0.74,2.12c-0.41,0.79-0.83,1.59-1.21,2.38
			C332.64,440.34,332.9,435.6,333.51,430.94z"/>
		<path class="st7" d="M242.91,431.59c0.05-0.23-0.38-0.13-0.44,0.02c-2.75,7.06-4.49,14.01-5.62,21.13
			c-0.87-4.2-1.7-8.4-1.99-12.59c-0.02-0.23-0.47-0.04-0.48,0.12c-0.11,2.03-0.27,4.05-0.44,6.06c-0.7-5.34-2.2-10.69-4.99-15.36
			c-0.07-0.12-0.31,0.03-0.29,0.13c0.71,3.4,0.2,7.27-0.17,10.92c-1.46,1.22-2.84,2.45-4.12,3.69c-1.74-4.94-4.14-9.7-7.61-14.45
			c-0.09-0.13-0.34,0.04-0.28,0.16c2.91,5.41,4.62,10.94,5.73,16.53c-0.53,0.58-1.05,1.17-1.54,1.77c-0.67-0.61-1.45-1.24-2.29-1.85
			c0.17-3.37,0.42-6.74,0.82-10.1c0.02-0.21-0.32-0.07-0.36,0.06c-0.91,2.87-2.03,5.63-3.12,8.37c-0.67-0.37-1.35-0.69-2.02-0.94
			c-0.76-3.68-2.14-7.26-4.48-10.7c-0.08-0.12-0.32,0.03-0.29,0.13c1.12,3.45-0.15,7.6-0.59,11.13c-0.02,0.13-0.03,0.26-0.04,0.38
			c-0.99-3.03-2.27-5.9-3.72-8.37c-0.09-0.16-0.42,0.04-0.38,0.17c1.21,3.91,1.17,8.26,0.9,12.45c-0.86-3.29-2.21-6.48-4.4-9.4
			c-1.31-1.75-4.13-4.7-6.65-5.47c0.19-1.43,0.41-2.86,0.68-4.27c0.03-0.17-0.28-0.09-0.32,0.02c-2.22,5.71-4.71,11.22-6.45,16.95
			c0.01-4.66-0.01-9.33-0.04-13.97c0-0.1-0.2-0.01-0.21,0.05c-0.71,3.42-2.93,6.51-3.83,9.91c-0.23,0.87-0.43,1.74-0.62,2.61
			c-0.12-7.6-0.05-15.21,0.97-22.76c0.02-0.17-0.28-0.1-0.32,0.02c-2.28,6.96-4.19,13.65-5.31,20.61
			c-1.11-5.39-2.92-10.67-4.68-16.07c-0.05-0.17-0.35-0.01-0.33,0.11c0.64,4.76,0.71,9.58,0.53,14.41c2.07,3.5,4.04,7.05,5.86,10.7
			c15.5-0.56,31.04-0.71,46.59-0.49c-0.36-1.56-0.75-3.1-1.2-4.62c0.9-1.89,1.9-3.72,3-5.46c-0.06,0.69-0.11,1.36-0.14,2.02
			c-0.11,2.69-0.26,5.39-0.44,8.08c4.82,0.07,9.64,0.18,14.46,0.32C241.95,446.34,241.34,438.75,242.91,431.59z M194.57,446.71
			c-0.31-0.46-0.62-0.92-0.91-1.39c-0.08-0.13-0.32,0.05-0.28,0.16c0.28,0.7,0.52,1.41,0.74,2.12c-0.41,0.79-0.83,1.59-1.21,2.38
			c0.24-4.68,0.5-9.42,1.1-14.08c1.72,1.39,2.35,4.24,2.73,6.77C196,444.02,195.27,445.38,194.57,446.71z M196.78,449.8
			c0.11-1.47,0.2-2.93,0.37-4.39c0.04,0.22,0.07,0.43,0.11,0.62c0.41,1.99,0.72,3.99,1,6C197.81,451.27,197.3,450.53,196.78,449.8z
			 M214.36,449.75c-0.04-0.5-0.1-1-0.16-1.51c0.16,0.23,0.32,0.46,0.47,0.69C214.57,449.2,214.46,449.47,214.36,449.75z"/>
	</g>
	<polygon class="st8" points="387.72,451.87 185.14,451.09 84.52,275.25 186.49,100.2 389.07,100.99 489.69,276.82 	"/>
</g>
<g id="WIFI">
	<g>
		<g id="XMLID_16_">
			<path id="XMLID_20_" class="st9" d="M278.14,201.09c-5.52,5.14-5.52,13.47,0,18.61c5.52,5.13,14.47,5.13,19.99,0
				c5.52-5.14,5.52-13.47,0-18.61C292.6,195.95,283.66,195.95,278.14,201.09z"/>
			<path id="XMLID_19_" class="st9" d="M288.13,169.8c-11.64,0-22.59,4.22-30.82,11.89c-3.23,3.01-3.23,7.88,0,10.89
				c3.23,3.01,8.46,3.01,11.7,0c5.1-4.76,11.9-7.38,19.13-7.38c7.23,0,14.02,2.62,19.13,7.38c1.62,1.5,3.74,2.26,5.85,2.26
				c2.12,0,4.23-0.75,5.85-2.26c3.23-3.01,3.23-7.88,0-10.89C310.72,174.02,299.77,169.8,288.13,169.8z"/>
			<path id="XMLID_18_" class="st9" d="M288.13,144.44c-18.92,0-36.71,6.86-50.09,19.32c-3.23,3.01-3.23,7.88,0,10.89
				c3.23,3.01,8.47,3.01,11.7,0c10.25-9.55,23.89-14.81,38.39-14.81c14.49,0,28.13,5.26,38.39,14.81c1.61,1.5,3.74,2.26,5.85,2.26
				c2.12,0,4.23-0.75,5.85-2.26c3.23-3.01,3.23-7.88,0-10.89C324.83,151.3,307.05,144.44,288.13,144.44z"/>
			<path id="XMLID_17_" class="st9" d="M357.52,145.79c-18.53-17.26-43.17-26.76-69.39-26.76s-50.85,9.5-69.39,26.76
				c-3.23,3.01-3.23,7.89,0,10.89c1.62,1.5,3.73,2.26,5.85,2.26c2.12,0,4.24-0.75,5.85-2.26c15.41-14.35,35.9-22.25,57.69-22.25
				c21.79,0,42.28,7.9,57.69,22.25c3.23,3.01,8.46,3.01,11.7,0C360.74,153.67,360.74,148.8,357.52,145.79z"/>
		</g>
	</g>
</g>
</svg>
