<?xml version="1.0" encoding="utf-8"?>
<!-- Generator: Adobe Illustrator 27.2.0, SVG Export Plug-In . SVG Version: 6.00 Build 0)  -->
<svg version="1.1" id="Layer_1" xmlns="http://www.w3.org/2000/svg" xmlns:xlink="http://www.w3.org/1999/xlink" x="0px" y="0px"
	 viewBox="0 0 570 570" style="enable-background:new 0 0 570 570;" xml:space="preserve">
<style type="text/css">
	.st0{fill:url(#SVGID_1_);}
	.st1{fill:#FFFFFF;}
	.st2{fill:#97C44E;}
	.st3{fill:#84A33A;}
	.st4{fill:#725033;}
	.st5{fill:#604129;}
	.st6{fill:#A5C715;}
	.st7{fill:#007231;}
	.st8{fill:#009E3E;}
	.st9{fill:#73B634;}
	.st10{fill:#8EB641;}
	.st11{fill:#00582B;}
	.st12{opacity:0.5;}
	.st13{opacity:0.5;fill:#00582B;enable-background:new    ;}
	.st14{fill:none;stroke:#000000;stroke-width:20;stroke-miterlimit:10;}
	.st15{fill:#ECEFF1;}
</style>
<g>
	<linearGradient id="SVGID_1_" gradientUnits="userSpaceOnUse" x1="289.99" y1="383.31" x2="289.99" y2="102.35">
		<stop  offset="0" style="stop-color:#006E06"/>
		<stop  offset="0.0684" style="stop-color:#0D8630"/>
		<stop  offset="0.1575" style="stop-color:#1BA160"/>
		<stop  offset="0.252" style="stop-color:#28B98A"/>
		<stop  offset="0.3502" style="stop-color:#33CEAD"/>
		<stop  offset="0.4531" style="stop-color:#3CDECA"/>
		<stop  offset="0.5624" style="stop-color:#42EBE1"/>
		<stop  offset="0.6808" style="stop-color:#47F4F1"/>
		<stop  offset="0.8152" style="stop-color:#4AF9FA"/>
		<stop  offset="1" style="stop-color:#4BFBFD"/>
	</linearGradient>
	<polygon class="st0" points="429.29,377.85 429.29,375.95 153.84,375.95 153.84,383.31 91.08,274.61 190.54,102.35 389.44,102.35 
		488.9,274.61 	"/>
	<g>
		<ellipse class="st1" cx="389.64" cy="219.45" rx="17.77" ry="15"/>
		<ellipse class="st1" cx="420.47" cy="219.45" rx="23.39" ry="15"/>
		<circle class="st1" cx="447.3" cy="219.45" r="15"/>
		<circle class="st1" cx="457.89" cy="210.26" r="9.19"/>
		<ellipse class="st1" cx="442.09" cy="199.37" rx="15" ry="20.08"/>
		<circle class="st1" cx="417.3" cy="204.45" r="15"/>
		<ellipse class="st1" cx="472.3" cy="222.84" rx="14.41" ry="9.19"/>
	</g>
	<g>
		<g>
			<path class="st2" d="M203.47,299.39c-0.88-0.76-2.01-1.5-3.23-2.07c2.93-5.82,0.77-13.59-4.76-17.47
				c-3.52-2.47-7.94-3.01-11.99-2c-0.38-1.94-1.49-3.65-3.54-4.48c-1.45-0.59-2.9-0.56-4.25-0.13c-1.37-5.17-4.48-9.7-9.65-11.81
				c-5.88-2.39-12.06-0.2-16.63,3.84c-2.23-2.36-5.11-3.94-8.37-2.76c-2.96,1.07-5.13,3.19-6.48,5.81
				c-4.34-1.37-9.45-0.65-12.81,2.39c-4.24,3.84-6.18,9.09-6.51,14.55c-1.62-0.91-3.42-1.08-5.2,0.29c-2.34,1.8-2.48,4.51-1.63,7.01
				c-0.13-0.02-0.26-0.05-0.39-0.05c-3.47-0.17-7.17,2.53-9.23,5.06c-2.63,3.23-3.55,7.14-2.96,10.86c0.19,0.17,0.38,0.36,0.57,0.57
				c6.13,7.28,10.17,15.84,15.02,23.96c0.47,0.78,0.69,1.55,0.73,2.28c2.28-0.41,4.44-1.26,6.29-2.54c1.01,2.03,2.64,3.76,4.76,4.74
				c3.6,1.67,6.93,0.33,9-2.37c0.93,3.97,6.72,5.74,10.35,5.44c2.95-0.24,5.46-1.85,7.42-4.01c3.4,2.34,8.03,3.22,12.05,2.7
				c3.15-0.41,6.45-2.3,8.59-4.96c0.6,1.44,2.17,2.31,3.8,2.09c1.57-0.21,3.17-1.51,3.84-3.07c3.06,1.52,7.13,1.74,9.95,0.81
				c2.84-0.94,4.98-2.79,6.53-5.11c1.08,0,2.2-0.17,3.34-0.56c5.67-1.92,9.71-8.28,10.68-13.92
				C209.7,308.96,207.77,303.08,203.47,299.39z"/>
			<path class="st3" d="M198.14,314.21c0,0-2,8.4-11.94,8.27c-9.94-0.13-12.19-14.89-12.19-14.89s-3.35,9.78-11.9,5.63
				c-8.55-4.15-8.55-14.8-8.55-14.8s-3,5.87-9.2,6.11c-6.2,0.24-9.43-10.68-9.43-10.68s-10.34,3.06-13.21-8.27
				c-1.91-7.52,3.13-14.09,6.87-17.8c-2.53,0.29-4.95,1.26-6.82,2.96c-4.24,3.84-6.18,9.09-6.51,14.55
				c-1.62-0.91-3.42-1.08-5.2,0.29c-2.34,1.8-2.48,4.51-1.63,7.01c-0.13-0.02-0.26-0.05-0.39-0.05c-3.47-0.17-7.17,2.53-9.23,5.06
				c-2.63,3.22-3.55,7.14-2.96,10.85c0.19,0.17,0.38,0.36,0.57,0.57c6.13,7.28,10.17,15.84,15.02,23.96
				c0.47,0.78,0.69,1.55,0.73,2.29c2.28-0.41,4.44-1.26,6.29-2.54c1.01,2.03,2.64,3.76,4.76,4.74c3.6,1.67,6.93,0.33,9-2.37
				c0.93,3.97,6.72,5.74,10.35,5.44c2.95-0.24,5.46-1.85,7.42-4.01c3.4,2.34,8.03,3.22,12.05,2.7c3.15-0.41,6.45-2.3,8.59-4.96
				c0.6,1.44,2.17,2.31,3.8,2.09c1.57-0.21,3.17-1.51,3.84-3.07c3.06,1.52,7.13,1.74,9.95,0.81c2.84-0.94,4.98-2.79,6.53-5.11
				c1.08,0,2.2-0.17,3.34-0.56c5.67-1.92,9.71-8.28,10.68-13.92c0.11-0.64,0.18-1.28,0.21-1.93
				C205.09,316.79,198.14,314.21,198.14,314.21z"/>
		</g>
		<g>
			<path class="st4" d="M137.51,366.4h31.52c-6.49-5.2-10.19-12.94-11.56-21.13c-1.24-7.44-2.03-18.89,3.68-24.82
				c3.38-3.51,8.24-3.18,12.71-2.95c4.01,0.2,8,0.09,11.94-0.75c6.61-1.4,13.25-4.69,14.74-11.84c0.13-0.63-0.8-0.9-0.97-0.27
				c-2.64,9.96-14.34,10.55-23.53,10.3c0.86-0.38,1.68-0.83,2.43-1.42c3.15-2.48,3.87-6.7,7.62-8.59c0.23-0.11,0.07-0.47-0.17-0.4
				c-2.82,0.8-4.44,3.13-6.49,5.07c-3.36,3.16-7.16,3.88-11.57,4.5c-3.5,0.49-6.96,1.05-10.04,2.89c-0.51,0.3-0.98,0.65-1.43,1.02
				c-1.29-3.67-2.09-7.16-0.09-11.02c2.15-4.15,5.98-6.09,10.38-6.94c5.27-1.02,10.42-1.92,12.68-7.38
				c0.13-0.31-0.34-0.45-0.51-0.22c-2.87,3.99-8.5,4.17-12.88,5c-0.22,0.04-0.42,0.09-0.64,0.14c0.3-0.33,0.59-0.66,0.86-1.02
				c2.57-3.41,2.99-7.51,3.64-11.6c0.04-0.22-0.29-0.32-0.35-0.1c-1.3,5.32-3.86,9.75-8.29,13.02c-2.89,2.13-6.13,3.99-8.14,7.06
				c-2.01,3.08-2.33,6.7-2.18,10.28c0.06,1.38,0.11,2.68,0.14,3.96c-0.25-0.26-0.51-0.52-0.75-0.77c-3.53-3.56-7.43-6.85-9.78-11.37
				c-2.94-5.65-1.41-10.09,2.03-14.94c2.36-3.32,4.09-6.84,3.59-11.01c-0.04-0.34-0.56-0.36-0.55,0c0.23,5.67-5.43,8.96-7.95,13.5
				c-1.71,3.07-2.02,6.38-1.25,9.65c-4.23-5.02-7.99-10.42-8.99-16.81c-0.03-0.21-0.37-0.16-0.36,0.05
				c0.47,9.77,5.55,16.85,11.76,24.05c1.2,1.39,2.38,2.79,3.52,4.21c0.11,0.55,0.26,1.09,0.4,1.63c-0.2-0.19-0.41-0.38-0.62-0.55
				c-1.59-1.27-2.98-2.45-4.86-3.07c-1.02-0.61-2.33-0.75-3.5-1.11c-8.89-2.77-18.9,3.93-25.69-4.93c-0.31-0.4-0.94-0.18-0.83,0.35
				c1.02,5.08,7.25,6.48,11.7,6.52c1.25,0.01,2.5-0.08,3.75-0.18c-0.05,0.03-0.1,0.05-0.15,0.08c-2.49,1.38-4.64,3.27-7.14,4.65
				c-2.96,1.63-6.15,2.84-9.42,3.68c-0.16,0.04-0.13,0.3,0.04,0.29c4.06-0.14,7.89-0.98,11.51-2.89c4.57-2.4,8.38-5.9,13.94-4.98
				c2.84,0.47,5.37,1.79,7.51,3.61c1.24,1.33,2.28,2.86,3.1,4.48c3.72,7.37,3.5,16.92,2.44,24.93
				C143.56,355.14,141.2,360.93,137.51,366.4z"/>
			<path class="st5" d="M144.53,348.32c1.06-8.01,1.28-17.56-2.44-24.93c-0.82-1.62-1.86-3.15-3.1-4.48
				c-2.14-1.82-4.67-3.14-7.51-3.61c-5.56-0.91-9.37,2.58-13.94,4.98c-3.62,1.9-7.45,2.74-11.51,2.89c-0.06,0-0.09-0.03-0.11-0.07
				c2.61-0.55,7.74-1.96,9.58-2.86c2.48-1.21,8.91-5.84,8.91-5.84h-1.77l-0.28,0.09c-1.14,0.09-2.27,0.17-3.41,0.16
				c-4.45-0.04-10.68-1.44-11.7-6.52c-0.04-0.19,0.02-0.35,0.13-0.44c0.83,1.72,2.25,3.75,4.56,4.61
				c4.26,1.59,10.06,1.34,13.11,0.95c3.06-0.38,7.83,0.13,10.82,1.53c2.99,1.4,8.02,5.09,8.02,5.09l-1.14-2.43
				c-0.14-0.54-0.98-1.39-1.34-2.03c-1.21-1.97-1.39-2.42-2.58-3.81c-6.2-7.2-11.29-14.27-11.76-24.05
				c-0.01-0.17,0.22-0.22,0.31-0.12c0.03,1.88,0.34,4.15,1.3,6.4c2.16,5.09,9.48,14.38,9.48,14.38l-1.74-3.9
				c-0.77-3.27-0.46-6.59,1.25-9.65c2.52-4.53,8.18-7.82,7.95-13.5c-0.01-0.14,0.07-0.22,0.17-0.25c-0.36,3.16-1.18,7.26-3.05,9.42
				c-3.31,3.82-5.57,8.53-5.33,12.09c0.24,3.56,4.02,9.65,6.35,12.22c3.06,3.37,7.24,10.9,7.3,14.53c0.04,2.5-3.33,24.42-0.67,31.17
				c0.81,2.05,1.83,4.16,2.86,6.11h-15.67C141.26,360.99,143.62,355.2,144.53,348.32z M153.18,315.17
				c-0.31-3.12,0.31-6.56,2.15-10.25c1.85-3.69,8.21-7.45,10.69-9.87c1.81-1.77,2.91-7.09,3.37-9.84c-1.32,5.17-3.86,9.48-8.2,12.68
				c-2.89,2.13-6.13,3.99-8.14,7.06c-2.01,3.08-2.33,6.7-2.18,10.28c0.06,1.38,0.11,2.68,0.14,3.96l2.22,3.16
				C153.24,322.36,153.49,318.29,153.18,315.17z M199.56,304.64c-2.64,9.96-14.34,10.55-23.53,10.3l-2.44,0.8
				c0,0,10.82,0.64,14.51-0.38c3.69-1.02,8.66-4.46,10.12-6.24c1.04-1.27,1.77-3.53,2.1-4.73
				C200.08,304.21,199.67,304.24,199.56,304.64z M165.33,297.59l-1.85,1.66c0,0,8.91-1.4,11.33-2.74c1.67-0.92,3.56-2.88,4.56-4
				c-0.05-0.2-0.38-0.25-0.52-0.06c-2.87,3.99-8.5,4.17-12.88,5C165.75,297.5,165.54,297.55,165.33,297.59z M182.89,307.15
				c0.81-1.04,2.16-1.82,3.29-2.33c0.04-0.15-0.09-0.33-0.27-0.28c-2.82,0.8-4.44,3.13-6.49,5.07c-3.36,3.16-7.16,3.88-11.57,4.5
				c-3.5,0.49-6.96,1.05-10.04,2.89c-0.51,0.3-0.98,0.65-1.43,1.02c0.63,1.95,0.16,3.91,0.16,3.91c2.23-5.66,15.98-7.38,18.33-7.83
				C177.23,313.64,181.37,309.12,182.89,307.15z"/>
		</g>
	</g>
	<path class="st6" d="M433.1,370.44c0.14-1.46,0.84-2.86,2.09-3.68c0.03-1.03,0.32-2.05,0.89-2.89c-0.11-0.24-0.21-0.49-0.33-0.73
		c0.07-2.11,0.14-4.23,0.24-6.34c0.29,2.13,0.47,4.28,0.59,6.44c0,0.01-0.01,0.02-0.01,0.03c0.32-0.33,0.7-0.61,1.13-0.83
		c0.11-1.62,0.89-3.19,2.37-4.02c0.04-1.24,0.47-2.46,1.3-3.36c-0.47-2.4-1.1-4.73-1.99-6.91c-0.74-1.82-2.35-4.91-3.76-5.66
		c-0.06-0.03-0.15,0.1-0.09,0.17c1.56,2.02,1.62,7.84,1.93,10.61c0.2,1.77,0.35,3.56,0.49,5.35c-0.03,0.11-0.07,0.23-0.1,0.34
		c-0.52-1.55-1.14-3.01-1.72-4.52c0.14-2.36,0.31-4.7,0.55-7.01c0.02-0.17-0.15-0.1-0.18,0.02c-0.36,1.7-0.73,3.37-1.1,5.05
		c-0.06,0-0.13,0.12-0.11,0.21c0.01,0.05,0.02,0.1,0.03,0.15c-0.88,4-1.76,7.96-2.43,12.03c0-4.8-0.01-9.59-0.02-14.37
		c0-0.11-0.11-0.01-0.12,0.05c-0.4,3.52-1.64,6.7-2.14,10.2c-0.13,0.89-0.24,1.79-0.35,2.69c-0.07-7.81-0.03-15.64,0.54-23.41
		c0.01-0.17-0.16-0.1-0.18,0.02c-1.27,7.15-2.34,14.04-2.97,21.2c-0.62-5.54-1.63-10.97-2.62-16.53c-0.03-0.17-0.19-0.01-0.18,0.12
		c0.49,6.8,0.38,13.74,0.12,20.63c-0.14,0.02-0.29,0.05-0.44,0.07c-0.16-2.18-0.3-4.36-0.37-6.55c-0.01-0.28-0.31-0.05-0.32,0.15
		c-0.11,2.25-0.39,4.45-0.69,6.65c-0.26,0.05-0.52,0.11-0.79,0.16c-0.05-9.12-0.77-18.67,0.3-27.57c0.03-0.24-0.21-0.13-0.24,0.03
		c-1.54,7.26-2.51,14.41-3.14,21.74c-0.49-4.32-0.95-8.64-1.11-12.95c-0.01-0.23-0.26-0.04-0.27,0.12
		c-0.06,2.09-0.15,4.17-0.25,6.24c-0.39-5.5-1.23-10.99-2.79-15.8c-0.04-0.13-0.17,0.03-0.16,0.13c0.4,3.5,0.11,7.48-0.09,11.23
		c-0.82,1.26-1.59,2.52-2.3,3.8c-0.97-5.08-2.31-9.98-4.26-14.87c-0.05-0.13-0.19,0.05-0.16,0.16c1.63,5.56,2.58,11.25,3.21,17
		c-0.3,0.6-0.59,1.21-0.86,1.82c-0.38-0.62-0.81-1.27-1.28-1.9c0.09-3.47,0.24-6.94,0.46-10.39c0.02-0.22-0.18-0.08-0.2,0.06
		c-0.51,2.95-1.13,5.79-1.74,8.61c-0.38-0.38-0.76-0.71-1.13-0.96c-0.42-3.78-1.2-7.47-2.51-11c-0.05-0.12-0.18,0.03-0.16,0.13
		c0.62,3.55-0.09,7.82-0.33,11.45c-0.01,0.13-0.02,0.26-0.02,0.4c-0.56-3.12-1.27-6.06-2.08-8.61c-0.05-0.16-0.23,0.04-0.21,0.17
		c0.68,4.02,0.65,8.5,0.5,12.81c-0.48-3.38-1.24-6.67-2.46-9.67c-0.73-1.8-2.31-4.84-3.72-5.63c0.11-1.47,0.23-2.94,0.38-4.39
		c0.02-0.17-0.15-0.1-0.18,0.02c-1.24,5.87-2.63,11.54-3.61,17.44c0-4.8-0.01-9.59-0.02-14.37c0-0.11-0.11-0.01-0.12,0.05
		c-0.4,3.52-1.64,6.7-2.14,10.2c-0.13,0.89-0.24,1.79-0.35,2.69c-0.06-7.81-0.03-15.64,0.54-23.41c0.01-0.17-0.16-0.1-0.18,0.02
		c-1.27,7.15-2.34,14.04-2.97,21.2c-0.62-5.54-1.63-10.98-2.62-16.53c-0.03-0.17-0.19-0.01-0.18,0.12
		c0.58,8.03,0.33,16.26-0.03,24.37c-0.28-3.4-0.54-6.8-0.66-10.21c-0.01-0.28-0.31-0.05-0.32,0.15c-0.17,3.59-0.79,7.03-1.2,10.57
		c-0.13,1.17-0.23,2.35-0.31,3.54c0-1.57,0.01-3.14,0.03-4.71c0.11-9.88-0.86-20.41,0.3-30.15c0.03-0.24-0.21-0.13-0.24,0.02
		c-1.54,7.26-2.51,14.41-3.14,21.74c-0.49-4.32-0.95-8.64-1.11-12.95c-0.01-0.23-0.26-0.04-0.27,0.12
		c-0.06,2.09-0.15,4.17-0.25,6.24c-0.39-5.5-1.23-10.99-2.79-15.8c-0.04-0.13-0.17,0.03-0.16,0.13c0.52,4.6-0.14,10.02-0.24,14.69
		c-0.09,4.28-0.22,8.56-0.42,12.83c-0.96-9.8-2.51-18.6-5.99-27.35c-0.05-0.13-0.19,0.05-0.16,0.16c2.05,6.99,3.04,14.17,3.63,21.43
		c-0.14-0.34-0.28-0.69-0.43-1.02c-0.78-1.7-2.52-4.32-4.2-5.74c-0.8-1.19-1.75-2.21-2.88-3.02c-0.09-0.07-0.23,0.15-0.18,0.27
		c1.35,3.4,2.01,6.94,2.47,10.54c-0.93-2.77-2.47-5.79-4.28-6.46c-0.07-0.03-0.18,0.1-0.13,0.2c0.01,0.03,0.02,0.05,0.03,0.08
		c0.03,0.06,0.08,0,0.09-0.04c0.29,0.62,0.54,1.27,0.72,1.96c0.34,1.34,0.62,2.7,0.81,4.1c0.42,2.59,0.64,5.21,0.87,7.84
		c0.07,0.84,0.12,1.67,0.17,2.49c-0.48-2.9-1.19-5.72-2.25-8.33c-0.74-1.83-2.35-4.91-3.77-5.66c-0.06-0.03-0.15,0.1-0.09,0.17
		c1.56,2.02,1.62,7.84,1.93,10.61c0.2,1.77,0.35,3.56,0.49,5.35c-0.03,0.11-0.07,0.23-0.1,0.34c-0.52-1.55-1.14-3.01-1.72-4.52
		c0.14-2.35,0.31-4.7,0.55-7.01c0.02-0.17-0.15-0.1-0.18,0.02c-0.36,1.7-0.73,3.37-1.1,5.05c-0.06,0-0.13,0.12-0.11,0.21
		c0.01,0.05,0.02,0.1,0.03,0.15c-0.88,4-1.76,7.96-2.43,12.03c0-4.8-0.01-9.59-0.02-14.37c0-0.11-0.11-0.01-0.12,0.05
		c-0.4,3.52-1.64,6.7-2.14,10.2c-0.13,0.89-0.24,1.79-0.35,2.69c-0.07-7.81-0.03-15.64,0.54-23.41c0.01-0.17-0.16-0.1-0.18,0.02
		c-1.27,7.15-2.34,14.04-2.97,21.2c-0.62-5.54-1.63-10.98-2.62-16.53c-0.03-0.17-0.19-0.01-0.18,0.12
		c0.59,8.03,0.33,16.26-0.03,24.37c-0.14-1.74-0.28-3.49-0.4-5.24c0.17-4-0.17-8.12-0.36-12.01c0-0.06-0.03-0.06-0.06-0.04
		c0-0.61,0-1.21,0.02-1.82c0-0.19-0.16-0.11-0.19,0.02c-0.51,2.04-1.1,3.98-1.65,5.94c-0.14-5.97-0.19-11.95,0.49-17.67
		c0.03-0.24-0.21-0.13-0.24,0.03c-1.54,7.26-2.51,14.41-3.14,21.74c-0.49-4.32-0.95-8.64-1.11-12.96c-0.01-0.23-0.26-0.04-0.27,0.12
		c-0.06,2.09-0.15,4.17-0.25,6.24c-0.39-5.5-1.23-10.99-2.79-15.8c-0.04-0.13-0.17,0.03-0.16,0.13c0.4,3.5,0.11,7.48-0.09,11.23
		c-0.82,1.26-1.59,2.52-2.3,3.8c-0.97-5.08-2.31-9.98-4.26-14.87c-0.05-0.13-0.19,0.05-0.16,0.16c1.63,5.56,2.58,11.25,3.2,17
		c-0.3,0.6-0.59,1.21-0.86,1.82c-0.38-0.62-0.81-1.27-1.28-1.9c0.09-3.47,0.24-6.94,0.46-10.39c0.02-0.22-0.18-0.08-0.2,0.06
		c-0.51,2.95-1.13,5.79-1.74,8.61c-0.38-0.38-0.76-0.71-1.13-0.96c-0.42-3.78-1.2-7.47-2.51-11c-0.05-0.12-0.18,0.03-0.16,0.13
		c0.62,3.55-0.09,7.82-0.33,11.45c-0.01,0.13-0.01,0.26-0.02,0.4c-0.56-3.12-1.27-6.06-2.08-8.61c-0.05-0.16-0.23,0.04-0.21,0.17
		c0.68,4.02,0.65,8.5,0.5,12.81c-0.48-3.38-1.24-6.67-2.46-9.67c-0.73-1.8-2.31-4.84-3.72-5.63c0.11-1.47,0.23-2.94,0.38-4.39
		c0.02-0.18-0.15-0.1-0.18,0.02c-1.24,5.87-2.63,11.54-3.6,17.44c0-4.8-0.01-9.59-0.02-14.37c0-0.11-0.11-0.01-0.12,0.05
		c-0.4,3.52-1.64,6.7-2.14,10.2c-0.13,0.89-0.24,1.79-0.35,2.69c-0.06-7.81-0.03-15.64,0.54-23.41c0.01-0.17-0.16-0.1-0.18,0.02
		c-1.27,7.15-2.34,14.04-2.97,21.2c-0.62-5.54-1.63-10.97-2.62-16.53c-0.03-0.17-0.19-0.01-0.18,0.12
		c0.58,8.03,0.33,16.26-0.03,24.37c-0.1-1.18-0.19-2.37-0.28-3.55c0.01-0.38,0.02-0.77,0.03-1.15c0.07-2.69,0.37-7.2-0.54-9.56
		c-0.02-0.06-0.08-0.01-0.1,0.03l-0.06,0.12c-0.02,0.04,0.01,0.08,0.04,0.05c-0.48,0.46-0.95,5.4-1.14,6.35
		c-0.16,0.79-0.3,1.58-0.43,2.38c-0.13-8.48-0.67-17.26,0.32-25.49c0.03-0.24-0.21-0.13-0.24,0.03c-1.54,7.26-2.51,14.41-3.14,21.74
		c-0.49-4.32-0.95-8.64-1.11-12.95c-0.01-0.23-0.26-0.04-0.27,0.12c-0.06,2.09-0.15,4.17-0.25,6.24c-0.39-5.5-1.23-10.99-2.79-15.8
		c-0.04-0.13-0.17,0.03-0.16,0.13c0.52,4.6-0.14,10.02-0.24,14.69c-0.09,4.28-0.22,8.56-0.42,12.83c-0.96-9.8-2.51-18.6-5.99-27.35
		c-0.05-0.13-0.19,0.05-0.16,0.16c2.05,6.99,3.03,14.17,3.63,21.43c-0.14-0.34-0.28-0.69-0.43-1.02c-1.06-2.32-3.93-6.37-5.96-6.72
		c0.02,0,0.05-0.04,0.03-0.07c-0.05-0.08-0.1-0.16-0.15-0.24c-0.07-0.12-0.23,0.12-0.16,0.24c3.66,6.39,4.65,14.6,5.48,22.52
		c0.27,2.58,0.34,5.38,0.44,8.21h136.59c0.14-1.35,0.78-2.67,2.12-3.66c0.15-0.11,0.32-0.2,0.47-0.31
		C431.04,372.85,431.75,371.32,433.1,370.44z M317.6,359.07c-0.17-0.47-0.35-0.94-0.51-1.43c-0.04-0.14-0.18,0.05-0.16,0.16
		c0.16,0.72,0.29,1.45,0.41,2.18c-0.23,0.82-0.46,1.63-0.68,2.45c0.13-4.81,0.28-9.69,0.62-14.48c0.96,1.43,1.31,4.36,1.53,6.97
		C318.4,356.3,317.99,357.69,317.6,359.07z M318.84,362.24c0.06-1.51,0.11-3.01,0.21-4.51c0.02,0.23,0.04,0.44,0.06,0.64
		c0.23,2.05,0.4,4.11,0.56,6.17C319.41,363.75,319.13,363,318.84,362.24z M336.43,357.69c-0.09,4.28-0.22,8.56-0.42,12.83
		c-0.31-3.19-0.69-6.28-1.18-9.29c0.5-1.95,1.06-3.83,1.68-5.62C336.47,356.32,336.45,357.01,336.43,357.69z M358.27,369.42
		c-0.18-0.39-0.35-0.79-0.53-1.18c0.07-2.11,0.14-4.23,0.24-6.34c0.29,2.13,0.47,4.28,0.59,6.44
		C358.47,368.7,358.37,369.06,358.27,369.42z M395.62,353.98c-0.17-0.47-0.35-0.94-0.51-1.43c-0.04-0.14-0.18,0.05-0.16,0.16
		c0.16,0.72,0.29,1.45,0.41,2.18c-0.23,0.82-0.46,1.63-0.68,2.45c0.13-4.81,0.28-9.69,0.62-14.49c0.96,1.43,1.31,4.36,1.53,6.97
		C396.41,351.21,396.01,352.6,395.62,353.98z M396.85,357.15c0.06-1.51,0.11-3.01,0.21-4.51c0.02,0.23,0.04,0.44,0.06,0.64
		c0.23,2.05,0.4,4.11,0.56,6.17C397.43,358.66,397.14,357.9,396.85,357.15z M414.44,352.6c-0.09,4.28-0.22,8.56-0.42,12.83
		c-0.31-3.19-0.69-6.28-1.18-9.29c0.5-1.95,1.06-3.83,1.68-5.62C414.49,351.22,414.46,351.92,414.44,352.6z"/>
	<g>
		<path class="st7" d="M436.97,368.56c0.14-1.44,0.82-2.82,2.04-3.65c0.01-1.84,0.11-3.67,0.34-5.49c0.01-0.07-0.15-0.16-0.18-0.07
			c-0.99,3.12-2,6.16-2.62,9.27c-0.63-4.02-1.7-7.88-2.97-11.89c-0.02-0.07-0.19-0.11-0.18-0.01c0.57,4.35,0.61,8.75,0.54,13.13
			c-0.11-0.5-0.22-1.01-0.35-1.51c-0.51-1.96-1.75-3.75-2.14-5.72c-0.01-0.04-0.12-0.09-0.12-0.03c-0.02,2.68-0.03,5.37-0.02,8.06
			c-0.97-3.31-2.36-6.49-3.6-9.78c-0.02-0.06-0.2-0.11-0.18-0.01c0.15,0.82,0.27,1.64,0.38,2.46c-1.41,0.44-2.98,2.15-3.72,3.16
			c-1.22,1.69-1.97,3.53-2.46,5.42c-0.15-2.42-0.18-4.93,0.5-7.18c0.02-0.07-0.16-0.19-0.21-0.1c-0.81,1.43-1.52,3.08-2.08,4.83
			c-0.01-0.07-0.01-0.15-0.02-0.22c-0.25-2.04-0.96-4.43-0.33-6.42c0.02-0.06-0.12-0.14-0.16-0.07c-1.31,1.98-2.08,4.05-2.51,6.17
			c-0.37,0.14-0.75,0.33-1.13,0.54c-0.61-1.58-1.23-3.17-1.74-4.83c-0.02-0.08-0.22-0.15-0.2-0.03c0.22,1.94,0.37,3.88,0.46,5.83
			c-0.47,0.35-0.91,0.72-1.28,1.07c-0.27-0.35-0.56-0.69-0.86-1.02c0.62-3.23,1.57-6.42,3.2-9.54c0.03-0.06-0.11-0.16-0.16-0.09
			c-1.94,2.74-3.28,5.49-4.26,8.34c-0.71-0.72-1.49-1.42-2.3-2.13c-0.2-2.11-0.49-4.33-0.09-6.3c0.01-0.06-0.12-0.15-0.16-0.07
			c-1.56,2.7-2.4,5.78-2.79,8.86c-0.1-1.16-0.19-2.33-0.25-3.5c0-0.09-0.26-0.2-0.27-0.07c-0.16,2.42-0.63,4.84-1.11,7.27
			c-0.63-4.11-1.6-8.12-3.14-12.19c-0.03-0.09-0.27-0.15-0.24-0.01c0.68,3.21,0.63,6.56,0.49,9.91c-0.55-1.1-1.14-2.19-1.65-3.33
			c-0.03-0.07-0.2-0.12-0.19-0.01c0.01,0.34,0.02,0.68,0.02,1.02c-0.03-0.01-0.06-0.01-0.06,0.03c-0.19,2.18-0.53,4.49-0.36,6.73
			c-0.04,0.38-0.1,0.75-0.15,1.12h33.57c0.14-1.35,0.78-2.67,2.12-3.66c0.15-0.11,0.32-0.2,0.47-0.31
			C434.91,370.97,435.62,369.44,436.97,368.56z M409.22,376.18c-0.2-2.39-0.33-4.79-0.42-7.19c-0.01-0.38-0.04-0.77-0.08-1.17
			c0.61,1,1.17,2.06,1.68,3.15C409.91,372.66,409.53,374.39,409.22,376.18z M425.56,372.83c0.16-1.16,0.33-2.31,0.56-3.46
			c0.02-0.11,0.04-0.23,0.06-0.36c0.1,0.84,0.14,1.69,0.21,2.53C426.09,371.96,425.81,372.39,425.56,372.83z M427.87,370.27
			c0.12-0.41,0.26-0.81,0.41-1.22c0.02-0.06-0.11-0.17-0.16-0.09c-0.16,0.27-0.33,0.54-0.51,0.8c-0.39-0.77-0.8-1.55-1.22-2.34
			c0.21-1.46,0.57-3.1,1.53-3.91c0.34,2.69,0.48,5.42,0.62,8.12C428.33,371.18,428.1,370.72,427.87,370.27z"/>
		<path class="st7" d="M442.49,357.86c-0.23-0.68-0.44-1.35-0.7-2.03c-0.03-0.09-0.27-0.15-0.24-0.01c0.21,0.98,0.34,1.98,0.43,2.98
			C442.11,358.47,442.28,358.15,442.49,357.86z"/>
		<path class="st7" d="M294.63,376.5h103.66c-0.28-3.96-0.41-7.95,0.1-11.86c0.01-0.07-0.15-0.16-0.18-0.07
			c-0.99,3.12-2,6.16-2.62,9.27c-0.63-4.02-1.7-7.88-2.97-11.89c-0.02-0.07-0.19-0.11-0.18-0.01c0.57,4.36,0.61,8.75,0.54,13.13
			c-0.11-0.5-0.22-1.01-0.35-1.51c-0.51-1.96-1.75-3.75-2.14-5.72c-0.01-0.04-0.12-0.09-0.12-0.03c-0.02,2.68-0.03,5.37-0.02,8.06
			c-0.67-2.28-1.54-4.51-2.43-6.75c0.01-0.03,0.02-0.06,0.03-0.08c0.02-0.05-0.05-0.11-0.11-0.12c-0.37-0.94-0.74-1.88-1.1-2.83
			c-0.02-0.06-0.2-0.11-0.18-0.01c0.24,1.3,0.41,2.61,0.55,3.93c-0.58,0.85-1.2,1.67-1.72,2.54c-0.03-0.06-0.07-0.13-0.1-0.19
			c0.14-1,0.29-2,0.49-3c0.31-1.55,0.37-4.82,1.93-5.95c0.05-0.04-0.04-0.11-0.09-0.1c-1.42,0.42-3.02,2.15-3.77,3.17
			c-1.06,1.46-1.76,3.04-2.25,4.67c0.05-0.46,0.1-0.93,0.17-1.4c0.22-1.48,0.45-2.95,0.87-4.4c0.2-0.78,0.47-1.55,0.81-2.3
			c0.19-0.39,0.43-0.76,0.72-1.1c0.01,0.02,0.07,0.06,0.09,0.02c0.01-0.01,0.02-0.03,0.03-0.04c0.05-0.06-0.07-0.13-0.13-0.11
			c-1.8,0.37-3.35,2.07-4.28,3.62c0.46-2.02,1.12-4.01,2.47-5.91c0.05-0.07-0.09-0.19-0.18-0.15c-1.13,0.45-2.08,1.03-2.88,1.69
			c-1.67,0.8-3.42,2.27-4.2,3.22c-0.15,0.19-0.29,0.38-0.43,0.57c0.59-4.07,1.58-8.1,3.63-12.02c0.03-0.06-0.1-0.16-0.16-0.09
			c-3.48,4.91-5.03,9.84-5.99,15.34c-0.2-2.39-0.33-4.79-0.42-7.19c-0.1-2.61-0.76-5.66-0.24-8.24c0.01-0.06-0.12-0.15-0.16-0.07
			c-1.56,2.7-2.4,5.78-2.79,8.86c-0.1-1.16-0.19-2.33-0.25-3.5c-0.01-0.09-0.26-0.2-0.27-0.07c-0.16,2.42-0.63,4.84-1.11,7.27
			c-0.63-4.11-1.6-8.12-3.14-12.19c-0.03-0.09-0.27-0.15-0.24-0.01c1.16,5.47,0.19,11.37,0.3,16.91c0.02,0.88,0.03,1.76,0.03,2.64
			c-0.08-0.66-0.18-1.33-0.31-1.98c-0.4-1.98-1.02-3.92-1.2-5.93c-0.01-0.11-0.31-0.24-0.32-0.08c-0.11,1.92-0.38,3.82-0.66,5.73
			c-0.36-4.55-0.62-9.16-0.03-13.67c0.01-0.07-0.15-0.16-0.18-0.07c-0.99,3.12-2,6.16-2.62,9.27c-0.63-4.02-1.7-7.88-2.97-11.89
			c-0.02-0.07-0.19-0.11-0.18-0.01c0.57,4.36,0.61,8.75,0.54,13.13c-0.11-0.5-0.22-1.01-0.35-1.51c-0.51-1.96-1.75-3.75-2.14-5.72
			c-0.01-0.04-0.12-0.09-0.12-0.03c-0.02,2.68-0.03,5.37-0.02,8.06c-0.97-3.31-2.36-6.49-3.61-9.78c-0.02-0.06-0.2-0.11-0.18-0.01
			c0.15,0.82,0.27,1.64,0.38,2.46c-1.41,0.44-2.98,2.14-3.72,3.16c-1.22,1.69-1.97,3.53-2.46,5.42c-0.15-2.42-0.18-4.93,0.5-7.18
			c0.02-0.07-0.16-0.19-0.21-0.1c-0.81,1.43-1.53,3.08-2.08,4.83c-0.01-0.07-0.01-0.15-0.02-0.22c-0.25-2.04-0.96-4.43-0.33-6.42
			c0.02-0.06-0.12-0.14-0.16-0.07c-1.31,1.98-2.08,4.05-2.51,6.17c-0.37,0.14-0.75,0.33-1.13,0.54c-0.61-1.58-1.23-3.17-1.74-4.83
			c-0.02-0.08-0.22-0.15-0.2-0.03c0.22,1.94,0.37,3.88,0.46,5.83c-0.47,0.35-0.91,0.72-1.28,1.07c-0.27-0.35-0.56-0.69-0.86-1.02
			c0.62-3.23,1.57-6.42,3.21-9.54c0.03-0.06-0.11-0.16-0.16-0.09c-1.94,2.74-3.28,5.49-4.26,8.34c-0.71-0.72-1.49-1.42-2.3-2.13
			c-0.2-2.11-0.49-4.33-0.09-6.3c0.01-0.06-0.12-0.15-0.16-0.07c-1.56,2.7-2.4,5.78-2.79,8.86c-0.1-1.16-0.19-2.33-0.25-3.5
			c-0.01-0.09-0.26-0.2-0.27-0.07c-0.16,2.42-0.63,4.84-1.11,7.27c-0.63-4.11-1.6-8.12-3.14-12.19c-0.03-0.09-0.27-0.15-0.24-0.01
			c1.06,4.99,0.34,10.35,0.3,15.46c-0.27-0.03-0.53-0.06-0.79-0.09c-0.3-1.23-0.58-2.47-0.69-3.73c-0.01-0.11-0.31-0.24-0.32-0.08
			c-0.07,1.23-0.21,2.45-0.37,3.67c-0.15-0.01-0.3-0.03-0.44-0.04c-0.26-3.87-0.37-7.76,0.12-11.57c0.01-0.07-0.15-0.16-0.18-0.07
			c-0.99,3.12-2,6.16-2.62,9.27c-0.63-4.02-1.7-7.88-2.97-11.89c-0.02-0.07-0.19-0.11-0.18-0.01c0.57,4.36,0.61,8.75,0.54,13.13
			c-0.11-0.5-0.22-1.01-0.35-1.51c-0.51-1.96-1.75-3.75-2.14-5.72c-0.01-0.04-0.12-0.09-0.12-0.03c-0.02,2.68-0.03,5.37-0.02,8.06
			c-0.67-2.28-1.54-4.51-2.43-6.75c0.01-0.03,0.02-0.06,0.03-0.08c0.02-0.05-0.05-0.11-0.11-0.12c-0.37-0.94-0.74-1.88-1.1-2.83
			c-0.02-0.06-0.2-0.11-0.18-0.01c0.24,1.3,0.41,2.61,0.55,3.93c-0.58,0.85-1.2,1.67-1.72,2.54c-0.03-0.06-0.07-0.13-0.1-0.19
			c0.14-1,0.29-2,0.49-3c0.31-1.55,0.37-4.82,1.93-5.95c0.05-0.04-0.04-0.11-0.09-0.1c-1.42,0.42-3.02,2.15-3.77,3.17
			c-1.22,1.69-1.98,3.53-2.46,5.42c-0.15-2.42-0.18-4.93,0.5-7.18c0.02-0.07-0.16-0.19-0.21-0.1c-0.81,1.43-1.53,3.08-2.08,4.83
			c-0.01-0.07-0.01-0.15-0.02-0.22c-0.25-2.04-0.96-4.43-0.33-6.42c0.02-0.06-0.12-0.14-0.16-0.07c-1.84,2.78-2.63,5.73-2.87,8.76
			c-0.82-2.27-1.78-4.51-2.51-6.88c-0.02-0.08-0.22-0.15-0.2-0.03c0.34,2.95,0.5,5.9,0.57,8.86c-1.52-2.46-3.62-4.59-6.16-6.75
			c-0.11-0.09-0.26-0.03-0.18,0.09c2.46,3.66,4.22,8.29,4.88,12.39C294.62,376.39,294.62,376.45,294.63,376.5z M387.25,371.35
			c0.1,1.18,0.18,2.37,0.24,3.56c-0.19,0.22-0.36,0.44-0.53,0.66c-0.1-0.2-0.2-0.41-0.3-0.61
			C386.78,373.75,386.96,372.54,387.25,371.35z M349.92,360.66c0.34,2.69,0.48,5.42,0.62,8.12c-0.21-0.46-0.45-0.92-0.68-1.37
			c0.12-0.41,0.26-0.81,0.41-1.22c0.02-0.06-0.11-0.17-0.16-0.09c-0.16,0.27-0.33,0.54-0.51,0.8c-0.39-0.77-0.8-1.55-1.22-2.34
			C348.6,363.11,348.96,361.46,349.92,360.66z M348.11,366.51c0.02-0.11,0.04-0.23,0.06-0.36c0.1,0.84,0.14,1.69,0.21,2.53
			c-0.29,0.42-0.58,0.85-0.83,1.29C347.7,368.81,347.88,367.66,348.11,366.51z M332.38,368.11c-0.48,1.69-0.86,3.42-1.18,5.21
			c-0.2-2.39-0.33-4.79-0.42-7.19c-0.02-0.38-0.04-0.77-0.08-1.17C331.32,365.97,331.88,367.02,332.38,368.11z M309.23,368.49
			c0.1,1.18,0.18,2.37,0.24,3.56c-0.19,0.22-0.36,0.44-0.53,0.66c-0.1-0.2-0.2-0.41-0.3-0.61
			C308.76,370.89,308.94,369.69,309.23,368.49z"/>
	</g>
	<path class="st8" d="M295.31,379.09c0.01-0.05,0.01-0.1,0.02-0.15c0,0.07,0.01,0.13,0.01,0.2
		C295.33,379.12,295.32,379.11,295.31,379.09z"/>
	<g>
		<path class="st6" d="M136.55,356.87c0.19,0.08,0.38,0.17,0.55,0.28c-1-7.49-2.54-14.48-5.3-21.43c-0.05-0.13-0.19,0.05-0.16,0.16
			c1.59,5.43,2.54,10.98,3.16,16.59C136.1,353.51,136.67,355.22,136.55,356.87z"/>
		<path class="st6" d="M298.05,350.38c-2.54,3.85-4.64,7.66-6.16,12.04c0.07-5.28,0.23-10.55,0.57-15.8
			c0.01-0.22-0.18-0.08-0.2,0.06c-0.73,4.22-1.7,8.22-2.51,12.27c-0.23-5.41-1.03-10.67-2.87-15.63c-0.04-0.12-0.18,0.03-0.16,0.13
			c0.62,3.55-0.09,7.82-0.33,11.45c-0.01,0.13-0.01,0.26-0.02,0.4c-0.56-3.12-1.27-6.06-2.08-8.61c-0.05-0.16-0.23,0.04-0.21,0.17
			c0.68,4.02,0.65,8.5,0.5,12.81c-0.48-3.38-1.24-6.67-2.46-9.67c-0.74-1.82-2.35-4.91-3.76-5.66c-0.06-0.03-0.15,0.1-0.09,0.17
			c1.56,2.02,1.62,7.84,1.93,10.61c0.2,1.77,0.35,3.56,0.49,5.35c-0.03,0.11-0.07,0.23-0.1,0.34c-0.52-1.55-1.14-3.01-1.72-4.52
			c0.14-2.36,0.31-4.7,0.55-7.01c0.02-0.17-0.15-0.1-0.18,0.02c-0.36,1.7-0.73,3.37-1.1,5.05c-0.06,0-0.13,0.12-0.11,0.21
			c0.01,0.05,0.02,0.1,0.03,0.15c-0.88,4-1.76,7.96-2.43,12.03c0-4.8-0.01-9.59-0.02-14.37c0-0.11-0.11-0.01-0.12,0.05
			c-0.4,3.52-1.64,6.7-2.14,10.2c-0.13,0.89-0.24,1.79-0.35,2.69c-0.07-7.81-0.03-15.64,0.54-23.41c0.01-0.17-0.16-0.1-0.18,0.02
			c-1.27,7.15-2.34,14.04-2.97,21.2c-0.62-5.54-1.63-10.97-2.62-16.53c-0.03-0.17-0.19-0.01-0.18,0.12
			c0.49,6.8,0.38,13.74,0.12,20.63c-0.14,0.02-0.29,0.05-0.44,0.07c-0.16-2.18-0.3-4.36-0.37-6.55c-0.01-0.28-0.31-0.05-0.32,0.15
			c-0.11,2.25-0.39,4.45-0.69,6.65c-0.26,0.05-0.52,0.11-0.79,0.16c-0.05-9.12-0.77-18.67,0.3-27.57c0.03-0.24-0.21-0.13-0.24,0.03
			c-1.54,7.26-2.51,14.41-3.14,21.74c-0.49-4.32-0.95-8.64-1.11-12.95c-0.01-0.23-0.26-0.04-0.27,0.12
			c-0.06,2.09-0.15,4.17-0.25,6.24c-0.39-5.5-1.23-10.99-2.79-15.8c-0.04-0.13-0.17,0.03-0.16,0.13c0.4,3.5,0.11,7.48-0.09,11.23
			c-0.82,1.26-1.59,2.52-2.3,3.8c-0.97-5.08-2.31-9.98-4.26-14.87c-0.05-0.13-0.19,0.05-0.16,0.16c1.63,5.56,2.58,11.25,3.21,17
			c-0.3,0.6-0.59,1.21-0.86,1.82c-0.38-0.62-0.81-1.27-1.28-1.9c0.09-3.47,0.24-6.94,0.46-10.39c0.02-0.22-0.18-0.08-0.2,0.06
			c-0.51,2.95-1.13,5.79-1.74,8.61c-0.38-0.38-0.76-0.71-1.13-0.96c-0.42-3.78-1.2-7.47-2.51-11c-0.05-0.12-0.18,0.03-0.16,0.13
			c0.62,3.55-0.09,7.82-0.33,11.45c-0.01,0.13-0.02,0.26-0.02,0.4c-0.56-3.12-1.27-6.06-2.08-8.61c-0.05-0.16-0.23,0.04-0.21,0.17
			c0.68,4.02,0.65,8.5,0.5,12.81c-0.48-3.38-1.24-6.67-2.46-9.67c-0.73-1.8-2.31-4.84-3.72-5.63c0.11-1.47,0.23-2.94,0.38-4.39
			c0.02-0.17-0.15-0.1-0.18,0.02c-1.24,5.87-2.63,11.54-3.61,17.44c0-4.8-0.01-9.59-0.02-14.37c0-0.11-0.11-0.01-0.12,0.05
			c-0.4,3.52-1.64,6.7-2.14,10.2c-0.13,0.89-0.24,1.79-0.35,2.69c-0.06-7.81-0.03-15.64,0.54-23.41c0.01-0.17-0.16-0.1-0.18,0.02
			c-1.27,7.15-2.34,14.04-2.97,21.2c-0.62-5.54-1.63-10.98-2.62-16.53c-0.03-0.17-0.19-0.01-0.18,0.12
			c0.58,8.03,0.33,16.26-0.03,24.37c-0.28-3.4-0.54-6.8-0.66-10.21c-0.01-0.28-0.31-0.05-0.32,0.15c-0.17,3.59-0.79,7.03-1.2,10.57
			c-0.13,1.17-0.23,2.35-0.31,3.54c0-1.57,0.01-3.14,0.03-4.71c0.11-9.88-0.86-20.4,0.3-30.15c0.03-0.24-0.21-0.13-0.24,0.02
			c-1.54,7.26-2.51,14.41-3.14,21.74c-0.49-4.32-0.95-8.64-1.11-12.95c-0.01-0.23-0.26-0.04-0.27,0.12
			c-0.06,2.09-0.15,4.17-0.25,6.24c-0.39-5.5-1.23-10.99-2.79-15.8c-0.04-0.13-0.17,0.03-0.16,0.13c0.52,4.6-0.14,10.02-0.24,14.69
			c-0.09,4.28-0.22,8.56-0.42,12.83c-0.96-9.8-2.51-18.6-5.99-27.35c-0.05-0.13-0.19,0.05-0.16,0.16
			c2.05,6.99,3.03,14.17,3.63,21.43c-0.14-0.34-0.28-0.69-0.43-1.02c-0.78-1.7-2.52-4.32-4.2-5.74c-0.8-1.19-1.75-2.21-2.88-3.02
			c-0.09-0.07-0.23,0.15-0.18,0.27c1.35,3.4,2.01,6.94,2.47,10.54c-0.93-2.77-2.47-5.79-4.28-6.46c-0.07-0.03-0.18,0.1-0.13,0.2
			c0.01,0.03,0.02,0.05,0.03,0.08c0.03,0.06,0.08,0,0.09-0.04c0.29,0.62,0.54,1.27,0.72,1.96c0.34,1.34,0.62,2.7,0.81,4.1
			c0.42,2.59,0.64,5.21,0.87,7.84c0.07,0.84,0.12,1.67,0.17,2.49c-0.48-2.9-1.19-5.72-2.25-8.33c-0.74-1.83-2.35-4.91-3.77-5.66
			c-0.06-0.03-0.15,0.1-0.09,0.17c1.56,2.02,1.62,7.84,1.93,10.61c0.2,1.77,0.35,3.56,0.49,5.35c-0.03,0.11-0.07,0.23-0.1,0.34
			c-0.52-1.55-1.14-3.01-1.72-4.52c0.14-2.35,0.31-4.7,0.55-7.01c0.02-0.17-0.15-0.1-0.18,0.02c-0.36,1.7-0.73,3.37-1.1,5.05
			c-0.06,0-0.13,0.12-0.11,0.21c0.01,0.05,0.02,0.1,0.03,0.15c-0.88,4-1.76,7.96-2.43,12.03c0-4.8-0.01-9.59-0.02-14.37
			c0-0.11-0.11-0.01-0.12,0.05c-0.4,3.52-1.64,6.7-2.14,10.2c-0.13,0.89-0.24,1.79-0.35,2.69c-0.07-7.81-0.03-15.64,0.54-23.41
			c0.01-0.17-0.16-0.1-0.18,0.02c-1.27,7.15-2.34,14.04-2.97,21.2c-0.62-5.54-1.63-10.98-2.62-16.53c-0.03-0.17-0.19-0.01-0.18,0.12
			c0.59,8.03,0.33,16.26-0.03,24.37c-0.14-1.74-0.28-3.49-0.4-5.24c0.17-4-0.17-8.12-0.36-12.01c0-0.06-0.03-0.06-0.06-0.04
			c0-0.61,0-1.21,0.02-1.82c0-0.19-0.16-0.11-0.19,0.02c-0.51,2.04-1.1,3.98-1.65,5.94c-0.14-5.97-0.19-11.95,0.49-17.67
			c0.03-0.24-0.21-0.13-0.24,0.03c-1.54,7.26-2.51,14.41-3.14,21.74c-0.49-4.32-0.95-8.64-1.11-12.96
			c-0.01-0.23-0.26-0.04-0.27,0.12c-0.06,2.09-0.15,4.17-0.25,6.24c-0.39-5.5-1.23-10.99-2.79-15.8c-0.04-0.13-0.17,0.03-0.16,0.13
			c0.4,3.5,0.11,7.48-0.09,11.23c-0.82,1.26-1.59,2.52-2.3,3.8c-0.97-5.08-2.31-9.98-4.26-14.87c-0.05-0.13-0.19,0.05-0.16,0.16
			c1.63,5.56,2.58,11.25,3.2,17c-0.3,0.6-0.59,1.21-0.86,1.82c-0.38-0.62-0.81-1.27-1.28-1.9c0.09-3.47,0.24-6.94,0.46-10.39
			c0.02-0.22-0.18-0.08-0.2,0.06c-0.51,2.95-1.13,5.79-1.74,8.61c-0.38-0.38-0.76-0.71-1.13-0.96c-0.42-3.78-1.2-7.47-2.51-11
			c-0.05-0.12-0.18,0.03-0.16,0.13c0.62,3.55-0.09,7.82-0.33,11.45c-0.01,0.13-0.01,0.26-0.02,0.4c-0.56-3.12-1.27-6.06-2.08-8.61
			c-0.05-0.16-0.23,0.04-0.21,0.17c0.68,4.02,0.65,8.5,0.5,12.81c-0.48-3.38-1.24-6.67-2.46-9.67c-0.73-1.8-2.31-4.84-3.72-5.63
			c0.11-1.47,0.23-2.94,0.38-4.39c0.02-0.18-0.15-0.1-0.18,0.02c-1.24,5.87-2.63,11.54-3.6,17.44c0-4.8-0.01-9.59-0.02-14.37
			c0-0.11-0.11-0.01-0.12,0.05c-0.4,3.52-1.64,6.7-2.14,10.2c-0.13,0.89-0.24,1.79-0.35,2.69c-0.06-7.81-0.03-15.64,0.54-23.41
			c0.01-0.17-0.16-0.1-0.18,0.02c-1.27,7.15-2.34,14.04-2.97,21.2c-0.62-5.54-1.63-10.97-2.62-16.53c-0.03-0.17-0.19-0.01-0.18,0.12
			c0.59,8.03,0.33,16.26-0.03,24.37c-0.1-1.18-0.19-2.37-0.28-3.55c0.01-0.38,0.02-0.77,0.03-1.15c0.07-2.69,0.37-7.2-0.54-9.56
			c-0.02-0.06-0.08-0.01-0.1,0.03l-0.06,0.12c-0.02,0.04,0.01,0.08,0.04,0.05c-0.48,0.46-0.95,5.4-1.14,6.35
			c-0.16,0.79-0.3,1.58-0.43,2.38c-0.13-8.48-0.67-17.26,0.32-25.49c0.03-0.24-0.21-0.13-0.24,0.03
			c-1.54,7.26-2.51,14.41-3.14,21.74c-0.49-4.32-0.95-8.64-1.11-12.95c-0.01-0.23-0.26-0.04-0.27,0.12
			c-0.06,2.09-0.15,4.17-0.25,6.24c-0.39-5.5-1.23-10.99-2.79-15.8c-0.04-0.13-0.17,0.03-0.16,0.13c0.52,4.6-0.14,10.02-0.24,14.69
			c-0.05,2.54-0.13,5.09-0.22,7.63c0.75,0.79,1.19,1.84,1.31,2.94c1.9,0.95,2.72,3.1,2.51,5.11c1.31,0.84,2.01,2.3,2.13,3.81
			c1.23,0.68,1.98,1.87,2.27,3.18c1.32,0.74,2.07,2.08,2.3,3.52c1.03,0.97,1.54,2.39,1.53,3.81H292.9c0.08-2.54,0.22-5.08,0.45-7.59
			c0.66-7.31,2.42-15.58,4.88-22.1C298.31,350.33,298.15,350.22,298.05,350.38z M160.34,360.91c-0.17-0.47-0.35-0.94-0.51-1.43
			c-0.04-0.14-0.18,0.05-0.16,0.16c0.16,0.72,0.29,1.45,0.41,2.18c-0.23,0.82-0.46,1.63-0.68,2.45c0.13-4.81,0.28-9.69,0.62-14.48
			c0.96,1.43,1.31,4.36,1.53,6.97C161.14,358.15,160.73,359.54,160.34,360.91z M161.58,364.09c0.06-1.51,0.11-3.01,0.21-4.51
			c0.02,0.23,0.04,0.44,0.06,0.64c0.23,2.05,0.4,4.11,0.56,6.17C162.15,365.6,161.87,364.84,161.58,364.09z M179.17,359.54
			c-0.09,4.28-0.22,8.56-0.42,12.83c-0.31-3.19-0.69-6.28-1.18-9.29c0.5-1.95,1.06-3.83,1.68-5.62
			C179.21,358.16,179.18,358.86,179.17,359.54z M201.01,371.27c-0.18-0.39-0.35-0.79-0.53-1.18c0.07-2.11,0.14-4.23,0.24-6.34
			c0.29,2.13,0.47,4.28,0.59,6.44C201.21,370.54,201.11,370.91,201.01,371.27z M238.36,355.82c-0.17-0.47-0.35-0.94-0.51-1.43
			c-0.04-0.14-0.18,0.05-0.16,0.16c0.16,0.72,0.29,1.45,0.41,2.18c-0.23,0.82-0.46,1.63-0.68,2.45c0.13-4.81,0.28-9.69,0.62-14.49
			c0.96,1.43,1.31,4.36,1.53,6.97C239.15,353.05,238.75,354.45,238.36,355.82z M239.59,358.99c0.06-1.51,0.11-3.01,0.21-4.51
			c0.02,0.23,0.04,0.44,0.06,0.64c0.23,2.05,0.4,4.11,0.56,6.17C240.17,360.5,239.88,359.75,239.59,358.99z M257.18,354.44
			c-0.09,4.28-0.22,8.56-0.42,12.83c-0.31-3.19-0.69-6.28-1.18-9.29c0.5-1.95,1.06-3.83,1.68-5.62
			C257.23,353.07,257.2,353.77,257.18,354.44z M279.02,366.17c-0.18-0.39-0.35-0.79-0.53-1.18c0.07-2.11,0.14-4.23,0.24-6.34
			c0.29,2.13,0.47,4.28,0.59,6.44C279.22,365.45,279.12,365.81,279.02,366.17z"/>
		<path class="st8" d="M239.06,370.82c0.01-0.05,0.01-0.1,0.02-0.15c0,0.07,0.01,0.13,0.01,0.2
			C239.08,370.85,239.07,370.84,239.06,370.82z"/>
		<path class="st8" d="M238.44,377.38c-0.03,0.01-0.05,0.01-0.07,0.02c0.01-0.08,0.02-0.16,0.02-0.24
			C238.41,377.23,238.43,377.31,238.44,377.38z"/>
		<path class="st9" d="M298.05,361.09c-2.54,2.47-4.64,4.91-6.16,7.72c0.07-3.38,0.23-6.76,0.57-10.13c0.01-0.14-0.18-0.05-0.2,0.04
			c-0.73,2.71-1.7,5.27-2.51,7.87c-0.23-3.47-1.03-6.84-2.87-10.02c-0.04-0.08-0.18,0.02-0.16,0.09c0.62,2.28-0.09,5.01-0.33,7.34
			c-0.01,0.08-0.01,0.17-0.02,0.25c-0.56-2-1.27-3.89-2.08-5.52c-0.05-0.1-0.23,0.03-0.21,0.11c0.68,2.58,0.65,5.45,0.5,8.21
			c-0.48-2.17-1.24-4.27-2.46-6.2c-0.74-1.17-2.35-3.15-3.76-3.63c-0.06-0.02-0.15,0.07-0.09,0.11c1.56,1.29,1.62,5.03,1.93,6.8
			c0.2,1.14,0.35,2.28,0.49,3.43c-0.03,0.07-0.07,0.15-0.1,0.22c-0.52-0.99-1.14-1.93-1.72-2.9c0.14-1.51,0.31-3.01,0.55-4.5
			c0.02-0.11-0.15-0.06-0.18,0.01c-0.36,1.09-0.73,2.16-1.1,3.24c-0.06,0-0.13,0.08-0.11,0.13c0.01,0.03,0.02,0.06,0.03,0.1
			c-0.88,2.56-1.76,5.11-2.43,7.72c0-3.07-0.01-6.15-0.02-9.21c0-0.07-0.11-0.01-0.12,0.03c-0.4,2.26-1.64,4.29-2.14,6.54
			c-0.13,0.57-0.24,1.15-0.35,1.72c-0.07-5.01-0.03-10.03,0.54-15.01c0.01-0.11-0.16-0.07-0.18,0.01c-1.27,4.59-2.34,9-2.97,13.59
			c-0.62-3.55-1.63-7.04-2.62-10.6c-0.03-0.11-0.19-0.01-0.18,0.08c0.49,4.36,0.38,8.81,0.12,13.23c-0.14,0.01-0.29,0.03-0.44,0.05
			c-0.16-1.4-0.3-2.79-0.37-4.2c-0.01-0.18-0.31-0.03-0.32,0.09c-0.11,1.44-0.39,2.85-0.69,4.26c-0.26,0.03-0.52,0.07-0.79,0.11
			c-0.05-5.84-0.77-11.97,0.3-17.67c0.03-0.15-0.21-0.08-0.24,0.02c-1.54,4.65-2.51,9.23-3.14,13.93c-0.49-2.77-0.95-5.54-1.11-8.3
			c-0.01-0.15-0.26-0.03-0.27,0.08c-0.06,1.34-0.15,2.67-0.25,4c-0.39-3.52-1.23-7.05-2.79-10.13c-0.04-0.08-0.17,0.02-0.16,0.09
			c0.4,2.24,0.11,4.79-0.09,7.2c-0.82,0.81-1.59,1.61-2.3,2.43c-0.97-3.26-2.31-6.4-4.26-9.53c-0.05-0.08-0.19,0.03-0.16,0.1
			c1.63,3.57,2.58,7.21,3.21,10.9c-0.3,0.39-0.59,0.77-0.86,1.17c-0.38-0.4-0.81-0.82-1.28-1.22c0.09-2.22,0.24-4.45,0.46-6.66
			c0.02-0.14-0.18-0.05-0.2,0.04c-0.51,1.89-1.13,3.71-1.74,5.52c-0.38-0.24-0.76-0.46-1.13-0.62c-0.42-2.42-1.2-4.79-2.51-7.05
			c-0.05-0.08-0.18,0.02-0.16,0.09c0.62,2.28-0.09,5.01-0.33,7.34c-0.01,0.08-0.02,0.17-0.02,0.25c-0.56-2-1.27-3.89-2.08-5.52
			c-0.05-0.1-0.23,0.03-0.21,0.11c0.68,2.58,0.65,5.45,0.5,8.21c-0.48-2.17-1.24-4.27-2.46-6.2c-0.73-1.16-2.31-3.1-3.72-3.61
			c0.11-0.94,0.23-1.88,0.38-2.82c0.02-0.11-0.15-0.06-0.18,0.01c-1.24,3.76-2.63,7.4-3.61,11.18c0-3.07-0.01-6.15-0.02-9.21
			c0-0.07-0.11-0.01-0.12,0.04c-0.4,2.26-1.64,4.29-2.14,6.54c-0.13,0.57-0.24,1.15-0.35,1.72c-0.06-5.01-0.03-10.03,0.54-15.01
			c0.01-0.11-0.16-0.07-0.18,0.01c-1.27,4.59-2.34,9-2.97,13.59c-0.62-3.55-1.63-7.04-2.62-10.6c-0.03-0.11-0.19-0.01-0.18,0.08
			c0.58,5.15,0.33,10.42-0.03,15.62c-0.28-2.18-0.54-4.36-0.66-6.55c-0.01-0.18-0.31-0.03-0.32,0.09c-0.17,2.3-0.79,4.51-1.2,6.78
			c-0.13,0.75-0.23,1.51-0.31,2.27c0-1,0.01-2.01,0.03-3.02c0.11-6.34-0.86-13.08,0.3-19.33c0.03-0.15-0.21-0.09-0.24,0.02
			c-1.54,4.65-2.51,9.23-3.14,13.93c-0.49-2.77-0.95-5.54-1.11-8.3c-0.01-0.15-0.26-0.03-0.27,0.08c-0.06,1.34-0.15,2.67-0.25,4
			c-0.39-3.52-1.23-7.05-2.79-10.13c-0.04-0.08-0.17,0.02-0.16,0.09c0.52,2.95-0.14,6.43-0.24,9.41c-0.09,2.74-0.22,5.48-0.42,8.22
			c-0.96-6.28-2.51-11.92-5.99-17.53c-0.05-0.08-0.19,0.03-0.16,0.1c2.05,4.48,3.03,9.08,3.63,13.74c-0.14-0.22-0.28-0.44-0.43-0.65
			c-0.78-1.09-2.52-2.77-4.2-3.68c-0.8-0.76-1.75-1.42-2.88-1.94c-0.09-0.04-0.23,0.1-0.18,0.18c1.35,2.18,2.01,4.45,2.47,6.76
			c-0.93-1.78-2.47-3.71-4.28-4.14c-0.07-0.02-0.18,0.06-0.13,0.13c0.01,0.02,0.02,0.03,0.03,0.05c0.03,0.04,0.08,0,0.09-0.03
			c0.29,0.39,0.54,0.81,0.72,1.26c0.34,0.86,0.62,1.73,0.81,2.62c0.42,1.66,0.64,3.34,0.87,5.03c0.07,0.54,0.12,1.07,0.17,1.6
			c-0.48-1.86-1.19-3.67-2.25-5.34c-0.74-1.17-2.35-3.15-3.77-3.63c-0.06-0.02-0.15,0.07-0.09,0.11c1.56,1.29,1.62,5.03,1.93,6.8
			c0.2,1.14,0.35,2.28,0.49,3.43c-0.03,0.07-0.07,0.15-0.1,0.22c-0.52-0.99-1.14-1.93-1.72-2.9c0.14-1.51,0.31-3.01,0.55-4.49
			c0.02-0.11-0.15-0.06-0.18,0.01c-0.36,1.09-0.73,2.16-1.1,3.24c-0.06,0-0.13,0.08-0.11,0.13c0.01,0.03,0.02,0.06,0.03,0.1
			c-0.88,2.56-1.76,5.11-2.43,7.72c0-3.07-0.01-6.15-0.02-9.21c0-0.07-0.11-0.01-0.12,0.04c-0.4,2.26-1.64,4.29-2.14,6.54
			c-0.13,0.57-0.24,1.15-0.35,1.72c-0.07-5.01-0.03-10.03,0.54-15.01c0.01-0.11-0.16-0.07-0.18,0.01c-1.27,4.59-2.34,9-2.97,13.59
			c-0.62-3.55-1.63-7.04-2.62-10.6c-0.03-0.11-0.19-0.01-0.18,0.08c0.59,5.15,0.33,10.42-0.03,15.62c-0.14-1.12-0.28-2.24-0.4-3.36
			c0.17-2.56-0.17-5.21-0.36-7.7c0-0.04-0.03-0.04-0.06-0.03c0-0.39,0-0.78,0.02-1.17c0-0.12-0.16-0.07-0.19,0.01
			c-0.51,1.31-1.1,2.55-1.65,3.81c-0.14-3.83-0.19-7.66,0.49-11.33c0.03-0.15-0.21-0.09-0.24,0.02c-1.54,4.65-2.51,9.23-3.14,13.93
			c-0.49-2.77-0.95-5.54-1.11-8.31c-0.01-0.15-0.26-0.03-0.27,0.08c-0.06,1.34-0.15,2.67-0.25,4c-0.39-3.52-1.23-7.05-2.79-10.13
			c-0.04-0.08-0.17,0.02-0.16,0.09c0.4,2.24,0.11,4.79-0.09,7.2c-0.82,0.81-1.59,1.61-2.3,2.43c-0.97-3.26-2.31-6.4-4.26-9.53
			c-0.05-0.08-0.19,0.03-0.16,0.1c1.63,3.57,2.58,7.21,3.2,10.9c-0.3,0.38-0.59,0.77-0.86,1.17c-0.38-0.4-0.81-0.82-1.28-1.22
			c0.09-2.22,0.24-4.45,0.46-6.66c0.02-0.14-0.18-0.05-0.2,0.04c-0.51,1.89-1.13,3.71-1.74,5.52c-0.38-0.24-0.76-0.45-1.13-0.62
			c-0.42-2.42-1.2-4.79-2.51-7.05c-0.05-0.08-0.18,0.02-0.16,0.09c0.62,2.28-0.09,5.01-0.33,7.34c-0.01,0.08-0.01,0.17-0.02,0.25
			c-0.56-2-1.27-3.89-2.08-5.52c-0.05-0.1-0.23,0.03-0.21,0.11c0.68,2.58,0.65,5.45,0.5,8.21c-0.48-2.17-1.24-4.27-2.46-6.2
			c-0.73-1.16-2.31-3.1-3.72-3.61c0.11-0.94,0.23-1.88,0.38-2.82c0.02-0.11-0.15-0.06-0.18,0.01c-1.24,3.76-2.63,7.4-3.6,11.18
			c0-3.07-0.01-6.15-0.02-9.21c0-0.07-0.11-0.01-0.12,0.04c-0.4,2.25-1.64,4.29-2.14,6.54c-0.13,0.57-0.24,1.15-0.35,1.72
			c-0.06-5.01-0.03-10.03,0.54-15.01c0.01-0.11-0.16-0.07-0.18,0.01c-1.27,4.59-2.34,9-2.97,13.59c-0.62-3.55-1.63-7.04-2.62-10.6
			c-0.03-0.11-0.19-0.01-0.18,0.08c0.59,5.15,0.33,10.42-0.03,15.62c-0.1-0.76-0.19-1.52-0.28-2.28c0.01-0.25,0.02-0.5,0.03-0.74
			c0.07-1.72,0.37-4.61-0.54-6.13c-0.02-0.04-0.08-0.01-0.1,0.02l-0.06,0.08c-0.02,0.03,0.01,0.05,0.04,0.03
			c-0.48,0.29-0.95,3.46-1.14,4.07c-0.16,0.51-0.3,1.02-0.43,1.53c-0.13-5.44-0.67-11.07,0.32-16.34c0.03-0.15-0.21-0.09-0.24,0.02
			c-1.54,4.65-2.51,9.23-3.14,13.93c-0.49-2.77-0.95-5.54-1.11-8.3c-0.01-0.15-0.26-0.03-0.27,0.08c-0.06,1.34-0.15,2.67-0.25,4
			c-0.39-3.52-1.23-7.05-2.79-10.13c-0.04-0.08-0.17,0.02-0.16,0.09c0.37,2.11,0.14,4.48-0.06,6.76c0.51,0.72,0.82,1.58,0.92,2.46
			c1.89,0.96,2.72,3.1,2.5,5.1c1.31,0.84,2.01,2.3,2.13,3.81c1.23,0.68,1.98,1.87,2.27,3.18c1.32,0.74,2.07,2.08,2.3,3.52
			c1.03,0.97,1.54,2.39,1.53,3.81H292.9c0.08-1.63,0.22-3.25,0.45-4.87c0.66-4.68,2.42-9.99,4.88-14.17
			C298.31,361.06,298.15,360.99,298.05,361.09z M160.34,367.84c-0.17-0.3-0.35-0.6-0.51-0.92c-0.04-0.09-0.18,0.03-0.16,0.1
			c0.16,0.46,0.29,0.93,0.41,1.4c-0.23,0.52-0.46,1.05-0.68,1.57c0.13-3.09,0.28-6.21,0.62-9.29c0.96,0.92,1.31,2.8,1.53,4.47
			C161.14,366.07,160.73,366.96,160.34,367.84z M161.58,369.88c0.06-0.97,0.11-1.93,0.21-2.89c0.02,0.14,0.04,0.28,0.06,0.41
			c0.23,1.31,0.4,2.63,0.56,3.96C162.15,370.85,161.87,370.36,161.58,369.88z M179.17,366.96c-0.09,2.74-0.22,5.48-0.42,8.22
			c-0.31-2.05-0.69-4.02-1.18-5.95c0.5-1.25,1.06-2.45,1.68-3.6C179.21,366.08,179.18,366.53,179.17,366.96z M201.01,374.48
			c-0.18-0.25-0.35-0.51-0.53-0.76c0.07-1.35,0.14-2.71,0.24-4.07c0.29,1.37,0.47,2.74,0.59,4.13
			C201.21,374.02,201.11,374.25,201.01,374.48z M238.36,364.58c-0.17-0.3-0.35-0.6-0.51-0.92c-0.04-0.09-0.18,0.03-0.16,0.1
			c0.16,0.46,0.29,0.93,0.41,1.4c-0.23,0.52-0.46,1.05-0.68,1.57c0.13-3.09,0.28-6.21,0.62-9.29c0.96,0.92,1.31,2.8,1.53,4.47
			C239.15,362.81,238.75,363.7,238.36,364.58z M239.59,366.62c0.06-0.97,0.11-1.93,0.21-2.89c0.02,0.14,0.04,0.28,0.06,0.41
			c0.23,1.31,0.4,2.63,0.56,3.96C240.17,367.58,239.88,367.1,239.59,366.62z M257.18,363.7c-0.09,2.74-0.22,5.48-0.42,8.22
			c-0.31-2.05-0.69-4.02-1.18-5.95c0.5-1.25,1.06-2.46,1.68-3.6C257.23,362.82,257.2,363.26,257.18,363.7z M279.02,371.22
			c-0.18-0.25-0.35-0.51-0.53-0.76c0.07-1.35,0.14-2.71,0.24-4.07c0.29,1.37,0.47,2.74,0.59,4.13
			C279.22,370.75,279.12,370.99,279.02,371.22z"/>
		<g>
			<path class="st7" d="M237.54,380.23h55.13c0.03-0.17,0.05-0.35,0.08-0.52c0.82-4.44,1.82-9.05,5.48-12.63
				c0.07-0.07-0.08-0.2-0.16-0.13c-0.05,0.04-0.1,0.09-0.15,0.13c-0.02,0.01,0.01,0.04,0.03,0.04c-2.02,0.19-4.89,2.47-5.95,3.77
				c-0.15,0.19-0.29,0.38-0.43,0.57c0.59-4.07,1.58-8.1,3.63-12.02c0.03-0.06-0.1-0.16-0.16-0.09c-3.48,4.91-5.03,9.84-5.99,15.34
				c-0.2-2.39-0.33-4.79-0.42-7.19c-0.1-2.61-0.76-5.66-0.24-8.24c0.01-0.06-0.12-0.15-0.16-0.07c-1.56,2.7-2.4,5.78-2.79,8.86
				c-0.1-1.16-0.19-2.33-0.25-3.5c-0.01-0.09-0.26-0.2-0.27-0.07c-0.16,2.42-0.63,4.84-1.12,7.27c-0.63-4.11-1.6-8.12-3.14-12.19
				c-0.03-0.09-0.27-0.15-0.24-0.01c0.98,4.61,0.44,9.54,0.32,14.29c-0.13-0.45-0.27-0.89-0.43-1.34c-0.19-0.54-0.66-3.31-1.14-3.56
				c0.03,0.02,0.06,0,0.04-0.03l-0.06-0.07c-0.02-0.02-0.08-0.05-0.1-0.02c-0.91,1.33-0.61,3.86-0.54,5.36
				c0.01,0.21,0.02,0.43,0.03,0.65c-0.09,0.66-0.18,1.33-0.28,1.99c-0.36-4.55-0.62-9.16-0.03-13.67c0.01-0.07-0.15-0.16-0.18-0.07
				c-0.99,3.12-2,6.16-2.62,9.27c-0.63-4.02-1.7-7.88-2.97-11.89c-0.02-0.07-0.19-0.11-0.18-0.01c0.57,4.35,0.61,8.75,0.54,13.13
				c-0.11-0.5-0.22-1.01-0.35-1.51c-0.51-1.96-1.75-3.75-2.14-5.72c-0.01-0.04-0.12-0.09-0.12-0.03c-0.02,2.68-0.03,5.37-0.02,8.06
				c-0.97-3.31-2.36-6.49-3.6-9.78c-0.02-0.06-0.2-0.11-0.18-0.01c0.15,0.82,0.27,1.64,0.38,2.46c-1.41,0.44-2.98,2.15-3.72,3.16
				c-1.22,1.69-1.97,3.53-2.46,5.42c-0.15-2.42-0.18-4.93,0.5-7.18c0.02-0.07-0.16-0.19-0.21-0.1c-0.81,1.43-1.52,3.08-2.08,4.83
				c-0.01-0.07-0.01-0.15-0.02-0.22c-0.25-2.04-0.96-4.43-0.33-6.42c0.02-0.06-0.12-0.14-0.16-0.07c-1.31,1.98-2.08,4.05-2.51,6.17
				c-0.37,0.14-0.75,0.33-1.13,0.54c-0.61-1.58-1.23-3.17-1.74-4.83c-0.02-0.08-0.22-0.15-0.2-0.03c0.22,1.94,0.37,3.88,0.46,5.83
				c-0.47,0.35-0.91,0.72-1.28,1.07c-0.27-0.35-0.56-0.69-0.86-1.02c0.62-3.23,1.57-6.42,3.2-9.53c0.03-0.06-0.11-0.16-0.16-0.09
				c-1.94,2.74-3.28,5.49-4.26,8.34c-0.71-0.72-1.49-1.42-2.3-2.13c-0.2-2.11-0.49-4.33-0.09-6.3c0.01-0.06-0.12-0.15-0.16-0.07
				c-1.56,2.7-2.4,5.78-2.79,8.86c-0.1-1.16-0.19-2.33-0.25-3.5c0-0.09-0.26-0.2-0.27-0.07c-0.16,2.42-0.63,4.84-1.11,7.27
				c-0.63-4.11-1.6-8.12-3.14-12.19c-0.03-0.09-0.27-0.15-0.24-0.01c0.68,3.21,0.63,6.56,0.49,9.91c-0.55-1.1-1.14-2.19-1.65-3.33
				c-0.03-0.07-0.2-0.12-0.19-0.01c0.01,0.34,0.02,0.68,0.02,1.02c-0.03-0.01-0.06-0.01-0.06,0.03c-0.19,2.18-0.53,4.49-0.36,6.73
				C237.65,379.48,237.59,379.85,237.54,380.23z M266.8,367.24c0.34,2.69,0.48,5.42,0.62,8.12c-0.21-0.46-0.45-0.92-0.68-1.37
				c0.12-0.41,0.26-0.81,0.41-1.22c0.02-0.06-0.11-0.17-0.16-0.09c-0.16,0.27-0.33,0.54-0.51,0.8c-0.39-0.77-0.8-1.55-1.22-2.34
				C265.49,369.69,265.84,368.04,266.8,367.24z M264.99,373.09c0.02-0.11,0.04-0.23,0.06-0.36c0.1,0.84,0.14,1.69,0.21,2.53
				c-0.29,0.42-0.58,0.85-0.83,1.29C264.59,375.4,264.76,374.24,264.99,373.09z M249.26,374.69c-0.48,1.69-0.86,3.42-1.18,5.21
				c-0.2-2.39-0.33-4.79-0.42-7.19c-0.01-0.38-0.04-0.77-0.08-1.17C248.2,372.55,248.76,373.6,249.26,374.69z"/>
			<path class="st7" d="M146.21,372.89c0.13-0.89,0.27-1.77,0.44-2.65c0.31-1.55,0.37-4.82,1.93-5.95c0.05-0.04-0.04-0.11-0.09-0.1
				c-1.42,0.42-3.02,2.15-3.77,3.17c-0.34,0.47-0.64,0.96-0.91,1.45c0.07,0.3,0.12,0.61,0.14,0.92
				C145.17,370.41,145.92,371.59,146.21,372.89z"/>
			<path class="st7" d="M237.26,368.37c0.01-0.07-0.15-0.16-0.18-0.07c-0.99,3.12-2,6.16-2.62,9.27c-0.63-4.02-1.7-7.88-2.97-11.89
				c-0.02-0.07-0.19-0.11-0.18-0.01c0.57,4.36,0.61,8.75,0.54,13.13c-0.11-0.5-0.22-1.01-0.35-1.51c-0.51-1.96-1.75-3.75-2.14-5.72
				c-0.01-0.04-0.12-0.09-0.12-0.03c-0.02,2.68-0.03,5.37-0.02,8.06c-0.67-2.28-1.54-4.51-2.43-6.75c0.01-0.03,0.02-0.06,0.03-0.08
				c0.02-0.05-0.05-0.11-0.11-0.12c-0.37-0.94-0.74-1.88-1.1-2.83c-0.02-0.06-0.2-0.11-0.18-0.01c0.24,1.3,0.41,2.61,0.55,3.93
				c-0.58,0.85-1.2,1.67-1.72,2.54c-0.03-0.06-0.07-0.13-0.1-0.19c0.14-1,0.29-2,0.49-3c0.31-1.55,0.37-4.82,1.93-5.95
				c0.05-0.04-0.04-0.11-0.09-0.1c-1.42,0.42-3.02,2.15-3.77,3.17c-1.06,1.46-1.76,3.04-2.25,4.67c0.05-0.46,0.1-0.93,0.17-1.4
				c0.22-1.48,0.45-2.95,0.87-4.4c0.2-0.78,0.47-1.55,0.81-2.3c0.19-0.39,0.43-0.76,0.72-1.1c0.01,0.02,0.07,0.06,0.09,0.02
				c0.01-0.01,0.02-0.03,0.03-0.04c0.05-0.06-0.07-0.13-0.13-0.11c-1.8,0.37-3.35,2.07-4.28,3.62c0.46-2.02,1.12-4.01,2.47-5.91
				c0.05-0.07-0.09-0.19-0.18-0.15c-1.13,0.45-2.08,1.03-2.88,1.69c-1.67,0.8-3.42,2.27-4.2,3.22c-0.15,0.19-0.29,0.38-0.43,0.57
				c0.59-4.07,1.58-8.1,3.63-12.02c0.03-0.06-0.1-0.16-0.16-0.09c-3.48,4.91-5.03,9.84-5.99,15.34c-0.2-2.39-0.33-4.79-0.42-7.19
				c-0.1-2.61-0.76-5.66-0.24-8.24c0.01-0.06-0.12-0.15-0.16-0.07c-1.56,2.7-2.4,5.78-2.79,8.86c-0.1-1.16-0.19-2.33-0.25-3.5
				c-0.01-0.09-0.26-0.2-0.27-0.07c-0.16,2.42-0.63,4.84-1.11,7.27c-0.63-4.11-1.6-8.12-3.14-12.19c-0.03-0.09-0.27-0.15-0.24-0.01
				c1.16,5.47,0.19,11.37,0.3,16.91c0.02,0.88,0.03,1.76,0.03,2.64c-0.08-0.66-0.18-1.33-0.31-1.98c-0.4-1.98-1.02-3.92-1.2-5.93
				c-0.01-0.11-0.31-0.24-0.32-0.08c-0.11,1.92-0.38,3.82-0.66,5.73c-0.36-4.55-0.62-9.16-0.03-13.67c0.01-0.07-0.15-0.16-0.18-0.07
				c-0.99,3.12-2,6.16-2.62,9.27c-0.63-4.02-1.7-7.88-2.97-11.89c-0.02-0.07-0.19-0.11-0.18-0.01c0.57,4.36,0.61,8.75,0.54,13.13
				c-0.11-0.5-0.22-1.01-0.35-1.51c-0.51-1.96-1.75-3.75-2.14-5.72c-0.01-0.04-0.12-0.09-0.12-0.03c-0.02,2.68-0.03,5.37-0.02,8.06
				c-0.97-3.31-2.36-6.49-3.61-9.78c-0.02-0.06-0.2-0.11-0.18-0.01c0.15,0.82,0.27,1.64,0.38,2.46c-1.41,0.44-2.98,2.14-3.72,3.16
				c-1.22,1.69-1.97,3.53-2.46,5.42c-0.15-2.42-0.18-4.93,0.5-7.18c0.02-0.07-0.16-0.19-0.21-0.1c-0.81,1.43-1.53,3.08-2.08,4.83
				c-0.01-0.07-0.01-0.15-0.02-0.22c-0.25-2.04-0.96-4.43-0.33-6.42c0.02-0.06-0.12-0.14-0.16-0.07c-1.31,1.98-2.08,4.05-2.51,6.17
				c-0.37,0.14-0.75,0.33-1.13,0.54c-0.61-1.58-1.23-3.17-1.74-4.83c-0.02-0.08-0.22-0.15-0.2-0.03c0.22,1.94,0.37,3.88,0.46,5.83
				c-0.47,0.35-0.91,0.72-1.28,1.07c-0.27-0.35-0.56-0.69-0.86-1.02c0.62-3.23,1.57-6.42,3.21-9.53c0.03-0.06-0.11-0.16-0.16-0.09
				c-1.94,2.74-3.28,5.49-4.26,8.34c-0.71-0.72-1.49-1.42-2.3-2.13c-0.2-2.11-0.49-4.33-0.09-6.3c0.01-0.06-0.12-0.15-0.16-0.07
				c-1.56,2.7-2.4,5.78-2.79,8.86c-0.1-1.16-0.19-2.33-0.25-3.5c-0.01-0.09-0.26-0.2-0.27-0.07c-0.16,2.42-0.63,4.84-1.11,7.27
				c-0.63-4.11-1.6-8.12-3.14-12.19c-0.03-0.09-0.27-0.15-0.24-0.01c1.06,4.99,0.34,10.35,0.3,15.46c-0.27-0.03-0.53-0.06-0.79-0.09
				c-0.3-1.23-0.58-2.47-0.69-3.73c-0.01-0.11-0.31-0.24-0.32-0.08c-0.07,1.23-0.21,2.45-0.37,3.67c-0.15-0.01-0.3-0.03-0.44-0.04
				c-0.26-3.87-0.38-7.76,0.12-11.57c0.01-0.07-0.15-0.16-0.18-0.07c-0.99,3.12-2,6.16-2.62,9.27c-0.63-4.02-1.7-7.88-2.97-11.89
				c-0.02-0.07-0.19-0.11-0.18-0.01c0.57,4.36,0.61,8.75,0.54,13.13c-0.11-0.5-0.22-1.01-0.35-1.51c-0.51-1.96-1.75-3.75-2.14-5.72
				c-0.01-0.04-0.12-0.09-0.12-0.03c-0.02,2.68-0.03,5.37-0.02,8.06c-0.67-2.28-1.54-4.51-2.43-6.75c0.01-0.03,0.02-0.06,0.03-0.08
				c0.02-0.05-0.05-0.11-0.11-0.12c-0.37-0.94-0.74-1.88-1.1-2.83c-0.02-0.06-0.2-0.11-0.18-0.01c0.24,1.3,0.41,2.61,0.55,3.93
				c-0.5,0.73-1.02,1.45-1.49,2.18c0.49,0.33,0.9,0.74,1.22,1.22c0.1-0.69,0.23-1.39,0.4-2.08c0.1,1.13,0.17,2.27,0.23,3.41
				c0.08,0.26,0.13,0.53,0.18,0.8c1.03,0.97,1.53,2.39,1.53,3.8h87.12C236.88,376.27,236.75,372.28,237.26,368.37z M170.07,377.05
				c-0.2-2.39-0.33-4.79-0.42-7.19c-0.02-0.38-0.04-0.77-0.08-1.17c0.61,1,1.17,2.06,1.68,3.15
				C170.76,373.53,170.39,375.26,170.07,377.05z M186.42,373.7c0.16-1.16,0.33-2.31,0.56-3.46c0.02-0.11,0.04-0.23,0.06-0.36
				c0.1,0.84,0.14,1.69,0.21,2.53C186.95,372.83,186.67,373.25,186.42,373.7z M188.73,371.13c0.12-0.41,0.26-0.81,0.41-1.22
				c0.02-0.06-0.11-0.17-0.16-0.09c-0.16,0.27-0.33,0.54-0.51,0.8c-0.39-0.77-0.8-1.55-1.22-2.34c0.21-1.46,0.57-3.1,1.53-3.91
				c0.34,2.69,0.48,5.42,0.62,8.12C189.19,372.05,188.95,371.59,188.73,371.13z M225.82,379.29c-0.1-0.2-0.2-0.41-0.3-0.61
				c0.12-1.21,0.3-2.42,0.59-3.61c0.1,1.18,0.18,2.37,0.24,3.56C226.17,378.85,226,379.07,225.82,379.29z"/>
		</g>
		<path class="st8" d="M161.05,374.44c0.01-0.05,0.01-0.1,0.02-0.15c0,0.07,0.01,0.13,0.01,0.2
			C161.07,374.47,161.06,374.46,161.05,374.44z"/>
	</g>
	<path class="st7" d="M389.44,446.87h-198.9l-36.7-63.56v2.41c0.69,0.74,1.12,1.7,1.27,2.71c1.35,0.93,2.04,2.53,2.04,4.15
		c2.03,0.98,2.89,3.27,2.57,5.38c2.07,0.79,3.06,2.89,2.96,4.94c2.56,0.84,3.58,3.64,3.03,6.02c2.26,0.67,3.36,2.82,3.31,4.94
		c2.03,0.67,3.09,2.56,3.16,4.5c0.61,0.73,1,1.63,1.14,2.58c1.9,0.71,3.37,2.35,3.29,4.27c1.53,1.05,2.19,2.97,2.01,4.78
		c1.77,0.83,2.65,2.67,2.66,4.52c2.16,0.86,3.1,3.15,2.86,5.29c2.32,0.74,3.38,3.07,3.18,5.26c0.69,0.62,1.16,1.44,1.41,2.33h203.13
		c-0.07-1.3,0.29-2.63,1.09-3.63c0.48-1.38,1.52-2.55,3.13-2.97c0.01-0.2,0.04-0.4,0.07-0.6c-0.73-2.58,0.41-5.76,3.42-6.43
		c-0.41-2.54,0.9-5.4,3.92-5.86c-0.23-2.14,0.74-4.42,2.9-5.27c0.1-0.2,0.19-0.41,0.29-0.61c-0.64-2.43,0.37-5.37,3.02-6.22
		c2.7-5.23,5.73-10.29,8.69-15.38c0.04-0.07,0.09-0.14,0.13-0.21c-0.18-1.01,0.05-2.14,0.87-3.27c3.09-4.29,5.71-9,8.27-13.75
		c0-0.07,0.02-0.14,0.02-0.21c0.04-1.58,0.68-2.77,1.61-3.57v-1.55L389.44,446.87z"/>
	<polygon class="st7" points="429.29,375.95 429.29,377.85 389.44,446.87 190.54,446.87 153.84,383.31 153.84,375.95 	"/>
	<g>
		<g>
			<path class="st2" d="M301.53,276.41c-4.65-4.22-10.31-5.97-16.06-5.78c-0.6-2.61-1.95-5.09-3.55-6.55
				c-1.43-1.3-3.3-2.18-5.24-2.52c-0.02-13.49-10.19-26.83-22.28-31.77c-11.99-4.9-24.58-2.64-33.94,4.79
				c-6.65-3.89-17.02-0.43-22.04,4.59c-4.61,4.6-6.85,12.28-5.22,18.77c-2.12-0.47-4.37,0.36-5.79,2.37
				c-0.79,1.12-1.19,2.62-1.19,4.13c-11.91-1.99-23.24,11.44-26.05,21.81c-2.6,9.57,1.6,22.66,11.6,25.72
				c1.5,6.08,6.22,11.82,11.59,14.22c4.43,1.99,12.04,1.18,16.68-2.22c1.44,2.58,4.22,4.72,7.28,4.3c1.19-0.16,2.74-0.95,3.73-2.03
				c2.67,1.99,5.98,3.33,9.11,4.34c6.37,2.07,15.11,2.83,21.95,0.4c0.65,0.54,1.34,1.01,2.06,1.4c3.51,1.89,7.53,0.12,10.01-2.89
				c2.57,1.95,5.75,2.95,9.34,2.34c6.02-1.03,9.74-5.24,11.91-10.34c12.61,2.13,26.56-6.22,31.51-18.97
				C310.53,293.3,309.03,283.19,301.53,276.41z"/>
			<path class="st3" d="M302.69,309.96c-10.15,5.1-18.99-2.41-18.99-2.41c-10.59,9.41-20.95-1.17-20.95-1.17
				c-9.18,4.71-15.07-6.34-15.07-6.34c-19.78,12.03-25.66-5.75-25.66-5.75s-10.36,9.5-17.42-3.21c-7.06-12.71,6.83-20.82,6.83-20.82
				s-9.18,1.03-11.54-16.62c-1.81-13.58,8.07-18.94,12.73-20.69c-5.32,0.33-10.89,2.93-14.18,6.21c-4.61,4.6-6.85,12.28-5.22,18.77
				c-2.12-0.47-4.37,0.36-5.79,2.37c-0.79,1.12-1.19,2.62-1.19,4.13c-11.91-1.99-23.24,11.44-26.05,21.81
				c-2.6,9.57,1.6,22.66,11.6,25.72c1.5,6.08,6.22,11.82,11.59,14.22c4.43,1.99,12.04,1.18,16.68-2.22c1.44,2.58,4.22,4.72,7.28,4.3
				c1.19-0.16,2.74-0.95,3.73-2.03c2.67,1.99,5.98,3.33,9.11,4.34c6.37,2.07,15.11,2.83,21.95,0.4c0.65,0.54,1.34,1.01,2.06,1.4
				c3.51,1.89,7.53,0.12,10.01-2.89c2.57,1.95,5.75,2.95,9.34,2.34c6.02-1.03,9.74-5.24,11.91-10.34
				C285.38,323.16,296.14,318.33,302.69,309.96z"/>
		</g>
		<g>
			<path class="st4" d="M202.62,300.65c1.89-0.41,4-1.36,5.98-1.19c1.96,0.16,3.27,1.08,4.58,2.15
				c4.61,5.99,10.33,10.94,12.77,18.46c3.19,9.82,0.02,21.99-1.52,31.87c-1.66,10.63-4,21.08-6.2,31.61
				c-0.93,4.44-1.73,8.92-2.3,13.42c-0.41,3.17-1.44,7.85-0.75,11.36h24.47c0.73-4.1-1-8.64-1.37-12.77
				c-0.44-4.91-0.52-9.84-0.46-14.76c0.12-10.29,0.75-20.55,0.36-30.85c-0.07-1.75-0.16-3.49-0.26-5.24
				c0.14-1.62,0.32-3.24,0.54-4.89c0-0.03,0.01-0.06,0.01-0.09c0.82-5.88,3.31-11.4,6.97-16.08c3.89-4.98,8.32-9.99,10.77-15.52
				c1.37-2.02,2.62-4.14,4.02-6.14c3.41-4.88,7.87-6.37,13.46-7.51c6.02-1.23,12.6-2.84,14.25-9.5c0.1-0.42-0.51-0.72-0.73-0.31
				c-4.48,8.51-15.67,5.48-23.04,8.8c-1.09,0.49-2.04,1.1-2.92,1.8c2.44-6.75,4.18-13.77,5.33-20.9c0.11-0.66-0.85-0.96-1.02-0.28
				c-4.28,16.97-13.43,32.7-25.11,45.67c-1.61,1.78-3.03,3.54-4.31,5.32c-0.18-1.5-0.36-3-0.56-4.5c-0.7-5.14-1.67-10.27-2.13-15.43
				c-0.22-2.45-0.1-4.78,0.13-7.1c0.38-1.29,0.91-2.52,1.64-3.66c2.96-4.59,7.62-7.94,10.61-12.59c3.21-5,5.14-10.19,6.45-15.97
				c0.12-0.53-0.6-0.7-0.79-0.22c-1.7,4.23-4.04,8.33-6.81,12.06c0.02-0.19,0.05-0.39,0.06-0.57c0.7-7-1.09-13.4,1.35-20.24
				c0.16-0.46-0.48-0.63-0.73-0.31c-3.03,4-3.48,9.46-3.69,14.34c-0.13,3.05-0.02,6.12-0.76,9.11c-0.35,1.42-1.08,2.69-1.72,3.98
				c-3.02,2.9-6.42,5.36-8.55,8.94c-0.39-3.26-1.3-6.5-1.51-9.81c-0.25-3.96-0.03-7.85,0.82-11.74c1.44-6.68,6.59-12.97,6.21-19.89
				c-0.03-0.46-0.74-0.61-0.84-0.11c-0.96,4.69-3.68,8.23-5.99,12.31c-1.98,3.5-3.27,7.26-3.9,11.23c-0.2,1.24-0.34,2.58-0.41,3.97
				c-0.12-0.19-0.23-0.38-0.36-0.57c-4.1-5.81-11.56-9.02-13.87-16.09c-0.19-0.58-1.03-0.34-0.91,0.25
				c1.29,6.33,6.28,9.79,10.09,14.61c4.91,6.22,5.15,14.35,7.46,21.63c0.28,4.43,0.54,8.86,0.72,13.29c-1.62-2.8-3.65-5.42-5.9-8.03
				c-6.11-7.09-11.19-14.42-12.79-23.85c-0.09-0.53-1.01-0.42-0.95,0.13c0.62,6,1.95,11.52,4.53,16.74c-1.41-0.68-2.89-1.08-4.43-1
				c-2.39,0.13-4.66,1.11-6.94,1.89c-2.22-1.54-4.48-2.88-6.51-4.75c-2.31-2.13-4.34-4.43-6.22-6.94c-0.09-0.12-0.34-0.06-0.27,0.11
				c1.83,4.71,5.33,9.5,9.73,12.44c-4.12,0.71-8.22,0.31-12.16-1.1c-0.31-0.11-0.5,0.33-0.22,0.48
				C191.25,300.88,196.79,301.91,202.62,300.65z"/>
			<g>
				<path class="st5" d="M227.43,298.7c0.28,4.43,0.54,8.86,0.72,13.29c-0.05-0.08-0.1-0.16-0.15-0.24c0.1,0.65,0.15,1.02,0.15,1.02
					l2.33,3.58c0,0,0.31-5.65,0-10.52c-0.31-4.87-2.83-16.17-4.08-19.46c-1.26-3.3-2.76-8.61-8.63-12.87
					c-3.21-2.32-5.95-6.88-7.78-10.62c1.43,6.05,6.27,9.47,9.98,14.18C224.88,283.29,225.12,291.42,227.43,298.7z"/>
				<path class="st5" d="M229.86,321.53c-1.73-4.55-11.61-18.68-13.81-20.56c-2.2-1.88-4.85-3.9-12.56-1.1
					c-5.51,2.01-11.97,0.4-15.19-0.68c4.56,1.94,9.33,2.54,14.33,1.46c1.89-0.41,4-1.36,5.98-1.19c1.96,0.16,3.27,1.08,4.58,2.15
					c4.61,5.99,10.33,10.94,12.77,18.46c3.19,9.82,0.02,21.99-1.52,31.87c-1.66,10.63-4,21.08-6.2,31.61
					c-0.93,4.44-1.73,8.92-2.3,13.42c-0.41,3.17-1.44,7.85-0.75,11.36h16.26c-2.79-25.11-1.43-50.54-0.49-62.78
					C231.9,333.3,231.58,326.09,229.86,321.53z"/>
				<path class="st5" d="M265.68,279.33c-0.43,0.27-0.98,0.84-0.98,0.84l1.26-6.46c-0.18,0.02-0.33,0.13-0.39,0.37
					c-4.28,16.97-13.43,32.7-25.11,45.67c-1.61,1.78-3.03,3.54-4.31,5.32l0.78,4.61c0,0,14.92-17.73,18.21-24.64
					c3.29-6.9,7.52-18.65,10.04-23.29C265.34,280.95,265.52,280.14,265.68,279.33z"/>
				<path class="st5" d="M287.8,284.58c-0.86,1.66-2.17,3.88-3.87,5.04c-2.83,1.93-9.02,1.58-13.42,4.41
					c-4.4,2.83-8.54,0.44-11.63,9.99c0,0,0,0,0,0.01c0.44-0.68,0.89-1.36,1.35-2.03c3.41-4.88,7.87-6.37,13.46-7.51
					c6.02-1.23,12.6-2.84,14.25-9.5C287.98,284.81,287.91,284.67,287.8,284.58z"/>
				<path class="st5" d="M228.48,268.6c1.41-4.83,3.53-7.3,5.64-10.95c1.59-2.76,1.46-4.95,1.66-6.59c-0.2-0.04-0.41,0.04-0.47,0.29
					c-0.96,4.69-3.68,8.23-5.99,12.31c-1.98,3.5-3.27,7.26-3.9,11.23c-0.19,1.22-0.33,2.54-0.4,3.9l1.57,2.17
					C226.6,280.96,227.07,273.42,228.48,268.6z"/>
				<path class="st5" d="M252.27,265.82c0.06-0.27-0.09-0.44-0.29-0.49c-0.53,2.67-1.6,7.02-4.2,10.81
					c-3.88,5.65-10.12,11.89-12.6,14.95c-2.47,3.06-1.79,8.97-1.79,8.97l0,0c0.04-0.67,0.1-1.34,0.16-2
					c0.38-1.29,0.91-2.52,1.64-3.66c2.96-4.59,7.62-7.94,10.61-12.59C249.04,276.79,250.97,271.6,252.27,265.82z"/>
				<path class="st5" d="M243.32,272.01c0.35-6.12-0.29-10.8,1.68-14.96c-2.7,3.94-3.13,9.15-3.33,13.83
					c-0.13,3.05-0.02,6.12-0.76,9.11c-0.31,1.24-0.9,2.37-1.48,3.5l3.53-5.35C242.96,278.13,242.96,278.13,243.32,272.01z"/>
			</g>
		</g>
	</g>
	<g>
		<path class="st10" d="M320.4,283.47c-8.91-8.42-9.27-22.64-1.46-33.7c3.89-5.51,9.48-10.8,16.4-11.01
			c1.17-5.49,4.32-10.44,8.76-13.9c3.68-2.86,9.28-5.59,14.09-4.42c0.67,0.16,1.31,0.39,1.92,0.67c1.77-4.08,4.8-7.33,9.95-7.47
			c4.32-0.12,8.28,3.25,9.79,7.33c6.22-3.36,14.87-1.74,20.62,3.92c6.32,6.22,9.89,18.14,6.81,27.1
			c12.84,2.04,21.66,14.07,20.25,27.48c-0.74,7.01-3.99,14.28-9.48,18.87c-0.2,0.17-0.42,0.31-0.63,0.46
			c1.3,4.21,0.82,9.09-1.57,12.98c-2.85,4.63-6.83,6.48-11.03,6.49c-1.07,6.61-6.16,12.34-12.47,15.11
			c-7.26,3.18-14.37,0.39-19.19-4.94c-4.09,4.73-10.73,7.74-16.5,6.77c-8.44-1.41-12.32-9.12-13.03-17.03
			c-7.32-0.33-15.58-4.49-20.05-8.74c-4.84-4.61-7.84-10.26-6.43-17.03C317.81,289.31,318.86,286.23,320.4,283.47z"/>
		<g>
			<path class="st2" d="M300.15,255.2c2.19-4.39,7.12-7.87,12.47-9.39c3.44-11.34,18.63-16.82,30.11-15.37
				c10.62,1.34,20.3,10.7,21.21,21.43c4.1,1.57,7.81,4.85,9.69,8.57c3.19,6.31,3.35,14.95,0.12,21.56c1.5,3.02,1.54,6.58-0.91,10
				c-1.04,1.45-2.75,2.64-4.72,3.47c-0.48,2.8-1.67,5.57-3.75,8.1c-5.76,7.05-13.81,7.39-20.09,2.97c-4.87,5-12.26,7.26-19.08,5.7
				c-6.89-1.57-12.92-6.83-15.3-13.51c-1.12-3.16-1.45-6.84-0.49-9.95c-1.96-0.99-3.65-2.4-4.56-3.93
				c-1.38-2.31-0.99-4.96,0.35-7.18C298.86,272.29,295.85,263.8,300.15,255.2z"/>
			<path class="st3" d="M364.38,303.56c-5.76,7.05-13.81,7.39-20.09,2.97c-4.87,5-12.26,7.26-19.08,5.7
				c-6.89-1.57-12.92-6.83-15.3-13.51c-1.12-3.16-1.45-6.84-0.49-9.95c-1.96-0.99-3.65-2.4-4.56-3.93
				c-0.64-1.07-0.88-2.22-0.84-3.36c7.09,5.16,16.39,2,16.39,2s0.57,8.63,10.19,12.61s9.52-13.93,9.52-13.93s11.04,8.32,16.57-3.43
				c4.78-10.15-4.64-17.97-4.64-17.97c3.21-0.19,6.82-2.48,5.31-15.87c-0.46-4.06-3.88-8.68-5.95-11.5
				c6.76,3.84,11.91,10.8,12.56,18.47c4.1,1.57,7.81,4.85,9.69,8.57c3.19,6.31,3.35,14.95,0.12,21.56c1.5,3.02,1.54,6.58-0.91,10
				c-1.04,1.45-2.75,2.64-4.72,3.47C367.64,298.26,366.45,301.02,364.38,303.56z"/>
		</g>
		<g>
			<path class="st2" d="M376.19,262.03c0.93-5.44,4.47-10.89,8.68-13.26c1.65-0.93,3.47-1.48,5.33-1.7
				c1.74-10.41,9.84-18.91,21.85-17.86c4.37,0.38,8.11,1.62,11.24,3.51c8.66,3.73,15.48,12.71,15.28,22.87
				c5.82,1.3,10.67,5.99,12.14,12.25c1.48,6.32,0.03,15.68-5.02,20.55c2.04,2.93,2.63,6.98,1.39,10.63
				c-1.24,3.65-5.65,7.03-9.54,6.88c-0.49,9.53-9.54,18.81-19.15,20.17c-13.04,1.84-24.01-6.68-27.45-18.26
				c-3.28,0.15-6.87-1.13-9.12-3.16c-2.88-2.59-3.25-6.23-2.15-9.58c-9.11-3-17.62-10.08-18.68-19.67
				C359.91,265.64,368.13,261.53,376.19,262.03z"/>
			<path class="st3" d="M392.94,296.86c11.61,16.7,24.55-0.44,24.55-0.44c16.51,3.04,18.91-10.59,18.91-10.59
				c10.87-0.36,13.86-9.82,14.64-16.16c0.85,6.19-0.76,14.31-5.35,18.73c2.04,2.93,2.63,6.98,1.39,10.63
				c-1.24,3.65-5.65,7.03-9.54,6.88c-0.49,9.53-9.54,18.81-19.15,20.17c-13.04,1.84-24.01-6.68-27.45-18.26
				c-3.28,0.15-6.87-1.13-9.12-3.16c-2.35-2.12-3.01-4.94-2.58-7.72C384.42,303.37,392.94,296.86,392.94,296.86z"/>
		</g>
		<g>
			<path class="st4" d="M406.47,300.28c-13.32,9.55-30.11,9.58-44.49,16.36c-14.7,10.66-23.06,29.26-24.01,48.12
				c-1.31,25.97,4.95,54.76,23.52,73.63h-52.62c4.7-7.86,8.03-16.06,10.12-24.61c1.44-7.97,1.25-15.89,1.24-24.05
				c-0.01-5.49,0.13-11.55,0.71-17.65c-0.09-17.85,5.54-36.21,12.11-52.14c4.63-11.22,9.01-23.92,1.35-34.94
				c-4.27-6.15-10.48-11.43-10.18-19.53c0.01-0.34,0.48-0.32,0.52,0c1.22,9.79,11.89,14.33,15.83,22.93
				c1.17,2.55,1.82,5.2,2.08,7.89c1.62-7.32,2.34-14.85,1.28-22.91c-0.04-0.32,0.47-0.44,0.6-0.16c7.52,15.83,0.57,32.98-5.2,48.27
				c-0.49,2.2-0.95,4.4-1.4,6.6c7.67-9.4,19.7-15.98,30.49-19.69c6-2.07,12.16-3.65,18.29-5.28c6.69-1.77,13.95-3.44,14.61-11.81
				c0.44-5.56-1.67-11.11-1.76-16.69c-0.09-5.72,1.12-11.31,3.01-16.67c0.07-0.2,0.36-0.12,0.32,0.09
				c-1.62,7.85-1.31,15.1,0.28,22.92c0.81,3.97,2.01,8.16,1.55,12.26c-0.23,2-0.82,3.67-1.66,5.1c13.3-8.15,23.15-21.74,25.9-37.37
				c0.04-0.24,0.46-0.19,0.43,0.06C427.43,276.81,419.51,290.93,406.47,300.28z"/>
			<path class="st5" d="M402.04,263.58c0.18-1.83,0.45-3.67,0.83-5.56c0-0.02-0.01-0.03-0.01-0.05l-0.31-0.04
				C402.56,257.94,402.3,260.27,402.04,263.58z M333.68,414.06c-0.44-17.47-7.3-32.51-4.87-52.19c2.43-19.68,9.95-28.08,16.14-36.04
				c6.19-7.96,14.37-11.94,20.57-13.27c6.19-1.33,30.07-10.84,33.17-12.16c3.1-1.33,6.09-10.19,3.86-16.36
				c-1.36-3.78-1.05-12.71-0.61-19.07c-0.36,5.32,0.1,10.51,1.21,15.99c0.81,3.97,2.01,8.16,1.55,12.26c-0.23,2-0.82,3.67-1.66,5.1
				c13.3-8.15,23.15-21.74,25.9-37.37c0.04-0.24,0.46-0.19,0.43,0.06c-1.95,15.81-9.87,29.93-22.91,39.28
				c-13.32,9.55-30.11,9.58-44.49,16.36c-14.7,10.66-23.06,29.26-24.01,48.12c-1.31,25.97,4.95,54.76,23.52,73.63h-30.9
				C332.24,431.94,333.91,423.09,333.68,414.06z M337.91,328.08l-5.5,7.14c0,0,1-4.81,2.32-9.79c1.33-4.98,5.64-15.59,9.79-25.54
				c4.15-9.95,0-26.69,0-26.69c7.52,15.83,0.57,32.98-5.2,48.27C338.82,323.68,338.36,325.88,337.91,328.08z"/>
		</g>
	</g>
	<g>
		<path class="st11" d="M182.03,425.06h78.84c2.49-8.8,10.71-23.71,10.71-23.71c-9.48-0.06-11.43,8.29-11.43,8.29
			c-0.77-7.89,4.85-13.92,4.85-13.92c-6.15,0.72-8.8,12.29-8.8,12.29c-1-15.92,6.89-20.24,6.89-20.24
			c-6.07,0.01-9.29,10.3-9.83,12.75c-0.02-2.15-1.16-7.47-1.16-7.47c-1.57-7.21-4.62-10.74-4.62-10.74
			c0.96,3.39,2.38,11.4,2.45,14.76c-3.95-9.8-8.51-9.53-8.23-9.25c2.18,2.2,5.25,9.63,5.99,13.13c-3.74-9.32-9.15-9.73-9.15-9.73
			c3.15,2.3,4.56,6.87,5.13,9.55c-2.3-3.79-6.38-6.97-10.01-8.23c-0.45-0.16,2.86,3.75,4.23,5.49c-1.97-1.2-4.2-2.07-6.26-2.04
			c2.71,2.1,4.92,4.91,5.65,8.32c0.11,0.49-0.95-1.77-3.34-3.35c-1.72-1.13-2.95-1.23-4.37-1.07c-0.07,0.14,4.73,3.07,4.49,6.46
			c-0.54-0.83-1.21-1.77-1.95-2.16c-0.29-0.15-0.48-0.17-0.63-0.11c-0.15,2.27-0.86,4.44-1.99,6.43c-0.06,0.11-0.25,0.1-0.28-0.04
			c-0.37-1.84-0.3-3.68,0.19-5.49c0.28-1.03,0.6-2.36,1.53-3.01c-0.02,0-0.04,0-0.05,0c-2.49,0.43-3.86,2.65-4.49,5.02
			c-0.2,0.26-0.3,0.42-0.3,0.42c0-2.68,1.62-5.18,1.62-5.18c-2.32-0.23-3.76,3.2-3.76,3.2c0-5.36,3.55-9.32,3.55-9.32
			c-5.09-1.22-7.13,7.8-7.13,7.8c0-7.16-4.18-12.52-4.18-12.52c0.74,2.61,0.93,5.75,0.94,8.2c-0.52-1.82-1.3-3.57-2.22-5.14
			c-1.64-2.36-3.95-3.95-6.52-5.1c0.9,1.64,1.65,3.38,2.28,5.18c-1.18-1.62-2.52-3.07-4.21-4.02c-0.33-0.18,1.68,5.35,2.46,7.94
			c-0.02-0.02-0.04-0.04-0.06-0.06c-0.1-0.23-0.2-0.44-0.28-0.61c-1.08-2.31-2.89-4.71-5.27-5.81c-0.25-0.12,2.88,6.03,0.64,10.18
			c0.2-5.92-3.34-10.87-3.33-10.61c0.09,2.89,1.57,7.89-4.56,14.83c-0.32-7.32,2.62-14.12,3.97-16.84c-3.86,1.78-5.44,5.19-6.7,9.04
			c-0.87,2.64-1.48,5.38-1.9,8.12c1.51-13.17-2.99-21.63-4.93-24.59c0.24,1.51,0.93,4.33,1.61,6.37c0.47,2.52,1.15,7.62,1.29,10.07
			c-1.23-4.38-2.51-6.65-3.75-8.22c-0.66-0.62-1.4-1.19-2.18-1.66c1.78,2.69,2.76,5.57,3.27,8.54c-0.61-1.1-1.28-2.15-2.03-3.12
			c-2.09-2.04-4.68-3.25-7.44-4.05c0.79,0.95,1.59,1.87,2.33,2.83c1.38,1.66,2.64,3.4,3.38,5.63c0.98,2.93,1.53,5.88,2.05,8.86
			c-1.3-3.41-3.57-6.6-6.55-8.55c-1.39-0.91-5.35-3.66-7.58-3.32c4.79,3.58,7.89,8.17,9.75,13.41
			C181.06,409.9,181.59,418.92,182.03,425.06z"/>
		<path class="st11" d="M182.03,425.06h78.84c2.49-8.8,10.71-23.71,10.71-23.71c-9.48-0.06-11.43,8.29-11.43,8.29
			c-0.77-7.89,4.85-13.92,4.85-13.92c-6.15,0.72-8.8,12.29-8.8,12.29c-1-15.92,6.89-20.24,6.89-20.24
			c-6.07,0.01-9.29,10.3-9.83,12.75c-0.02-2.15-1.16-7.47-1.16-7.47c-1.57-7.21-4.62-10.74-4.62-10.74
			c0.96,3.39,2.38,11.4,2.45,14.76c-3.95-9.8-8.51-9.53-8.23-9.25c2.18,2.2,5.25,9.63,5.99,13.13c-3.74-9.32-9.15-9.73-9.15-9.73
			c3.15,2.3,4.56,6.87,5.13,9.55c-2.3-3.79-6.38-6.97-10.01-8.23c-0.45-0.16,2.86,3.75,4.23,5.49c-1.97-1.2-4.2-2.07-6.26-2.04
			c2.71,2.1,4.92,4.91,5.65,8.32c0.11,0.49-0.95-1.77-3.34-3.35c-1.72-1.13-2.95-1.23-4.37-1.07c-0.07,0.14,4.73,3.07,4.49,6.46
			c-0.54-0.83-1.21-1.77-1.95-2.16c-0.29-0.15-0.48-0.17-0.63-0.11c-0.15,2.27-0.86,4.44-1.99,6.43c-0.06,0.11-0.25,0.1-0.28-0.04
			c-0.37-1.84-0.3-3.68,0.19-5.49c0.28-1.03,0.6-2.36,1.53-3.01c-0.02,0-0.04,0-0.05,0c-2.49,0.43-3.86,2.65-4.49,5.02
			c-0.2,0.26-0.3,0.42-0.3,0.42c0-2.68,1.62-5.18,1.62-5.18c-2.32-0.23-3.76,3.2-3.76,3.2c0-5.36,3.55-9.32,3.55-9.32
			c-5.09-1.22-7.13,7.8-7.13,7.8c0-7.16-4.18-12.52-4.18-12.52c0.74,2.61,0.93,5.75,0.94,8.2c-0.52-1.82-1.3-3.57-2.22-5.14
			c-1.64-2.36-3.95-3.95-6.52-5.1c0.9,1.64,1.65,3.38,2.28,5.18c-1.18-1.62-2.52-3.07-4.21-4.02c-0.33-0.18,1.68,5.35,2.46,7.94
			c-0.02-0.02-0.04-0.04-0.06-0.06c-0.1-0.23-0.2-0.44-0.28-0.61c-1.08-2.31-2.89-4.71-5.27-5.81c-0.25-0.12,2.88,6.03,0.64,10.18
			c0.2-5.92-3.34-10.87-3.33-10.61c0.09,2.89,1.57,7.89-4.56,14.83c-0.32-7.32,2.62-14.12,3.97-16.84c-3.86,1.78-5.44,5.19-6.7,9.04
			c-0.87,2.64-1.48,5.38-1.9,8.12c1.51-13.17-2.99-21.63-4.93-24.59c0.24,1.51,0.93,4.33,1.61,6.37c0.47,2.52,1.15,7.62,1.29,10.07
			c-1.23-4.38-2.51-6.65-3.75-8.22c-0.66-0.62-1.4-1.19-2.18-1.66c1.78,2.69,2.76,5.57,3.27,8.54c-0.61-1.1-1.28-2.15-2.03-3.12
			c-2.09-2.04-4.68-3.25-7.44-4.05c0.79,0.95,1.59,1.87,2.33,2.83c1.38,1.66,2.64,3.4,3.38,5.63c0.98,2.93,1.53,5.88,2.05,8.86
			c-1.3-3.41-3.57-6.6-6.55-8.55c-1.39-0.91-5.35-3.66-7.58-3.32c4.79,3.58,7.89,8.17,9.75,13.41
			C181.06,409.9,181.59,418.92,182.03,425.06z"/>
		<g>
			<g class="st12">
				<path class="st11" d="M210.17,415.17c-0.57,0.89-1.57,2.18-1.27,3.3c0.05,0.2-0.26,0.29-0.32,0.09c-0.31-1.17,0.6-2.47,1.19-3.4
					c0.74-1.15,1.43-2.32,2.35-3.33c0.45-1.2,0.96-2.38,1.58-3.52c0.58-1.08,1.23-2.11,1.92-3.12c0.37-0.54,0.76-1.06,1.23-1.5
					c-1.49,0.38-2.95,0.91-4.23,1.78c-1.14,0.78-2.1,1.79-2.93,2.89c-0.67,1.44-1.25,2.92-1.77,4.43c-0.84,2.45-1.56,4.95-2.01,7.5
					c-0.24,1.37-0.44,2.74-0.49,4.13c-0.01,0.21-0.01,0.43-0.02,0.65h3.86c-0.01-0.11-0.01-0.23-0.01-0.33
					c-0.01-0.79,0-1.56,0.12-2.34c0.39-2.55,0.97-5.07,1.72-7.54c0.21-0.7,0.44-1.39,0.68-2.08
					C211.2,413.53,210.7,414.35,210.17,415.17z"/>
				<path class="st11" d="M214.41,417.13c1.31-3.85,3.52-7.07,6.63-9.66c-0.72-0.01-1.42,0.3-2.09,0.54
					c-0.76,0.28-1.52,0.57-2.24,0.93c-1.49,0.74-2.92,1.63-4.08,2.83c-0.08,0.09-0.16,0.18-0.24,0.27c-0.54,1.43-0.99,2.9-1.4,4.38
					c-0.32,1.2-0.62,2.4-0.86,3.62c-0.22,1.11-0.51,2.28-0.54,3.41c-0.01,0.49,0.04,1.05,0.06,1.62h3.59
					C213.09,422.37,213.56,419.63,214.41,417.13z"/>
				<path class="st11" d="M221.99,423.6c0.04,0.21-0.28,0.29-0.32,0.09c-0.25-1.39,0.28-2.79,0.99-4.04
					c-0.05-0.64-0.13-1.28-0.26-1.92c-0.41-2.16-1.43-4.02-2.56-5.85c0.5,2.21,0.32,4.69-0.02,6.86c-0.21,1.37-0.58,2.71-0.81,4.08
					c-0.12,0.74-0.22,1.55-0.55,2.24h3.9c0.29-1.58,0.41-3.2,0.33-4.8C222.15,421.31,221.78,422.46,221.99,423.6z"/>
				<path class="st11" d="M224.93,425.06c0-1.27,0.14-2.55,0.35-3.78c0.23-1.3,0.51-2.62,1.02-3.85c0.45-1.07,1.01-2.08,1.58-3.08
					c-1.65,0.94-2.9,2.39-3.98,3.94c-0.31,0.45-0.65,0.95-0.95,1.47c0.12,1.77,0.03,3.54-0.27,5.29L224.93,425.06L224.93,425.06z"/>
				<path class="st11" d="M234.33,425.06h0.29c-0.06-0.33-0.13-0.66-0.2-1C234.4,424.39,234.37,424.72,234.33,425.06z"/>
				<path class="st11" d="M234.12,422.82c-1.02-3.83-2.84-7.34-6.07-9.85c0.12,0.28,0.23,0.55,0.34,0.83
					c0.07,0.03,0.12,0.11,0.08,0.2c0.67,1.66,1.26,3.33,1.76,5.06c0.35,1.21,0.64,2.42,0.73,3.68c0.06,0.77,0.04,1.55,0.06,2.33H234
					C234.1,424.32,234.13,423.57,234.12,422.82z"/>
				<path class="st11" d="M237.42,420.26c-0.21-1.82-0.5-3.63-0.67-5.45c-0.31-3.37-0.26-6.88,0.36-10.23
					c-1.45,2.75-1.88,5.99-2.05,9.06c-0.05,0.85-0.06,1.71-0.06,2.56c1.12,2.81,1.61,5.84,1.78,8.86h1.61
					C237.85,423.51,237.61,421.89,237.42,420.26z"/>
				<path class="st11" d="M255.4,424.09c0.07,0.2-0.25,0.29-0.32,0.09c-0.23-0.68-0.24-1.39-0.23-2.1
					c-0.05-0.08-0.09-0.16-0.13-0.24c-0.07-0.12-0.14-0.24-0.22-0.37c-0.77-1.15-1.54-2.31-2.25-3.49c-0.4-0.6-0.8-1.21-1.18-1.83
					c-0.05-0.07-0.02-0.15,0.03-0.19c-0.48-0.88-0.92-1.79-1.3-2.71c-1.71-4.08-2.46-8.39-2.06-12.79
					c-0.05,0.06-0.09,0.12-0.14,0.18c0.02,0.11,0.05,0.22,0.07,0.32c-0.04-0.09-0.07-0.18-0.11-0.27c-1.02,1.32-1.5,3.07-1.86,4.66
					c-0.42,1.85-0.77,3.73-1.02,5.61c-0.62,4.61-0.79,9.46,0.58,13.96c0.02,0.07,0,0.12-0.04,0.15h11.14
					c-0.4-0.8-0.78-1.61-1.2-2.41C255.18,423.14,255.24,423.63,255.4,424.09z"/>
				<path class="st11" d="M269.75,402.28c-1.08,0.71-2.07,1.53-2.95,2.47c-1.82,1.95-3.3,4.23-4.41,6.65
					c-1.97,4.32-2.79,8.95-2.87,13.65h1.35c0.84-2.99,2.35-6.67,3.96-10.24c0.16-0.54,0.32-1.08,0.5-1.62
					c0.78-2.35,1.79-4.59,2.88-6.81c0.83-1.7,1.64-3.64,3.01-5C270.68,401.66,270.18,402,269.75,402.28z"/>
				<path class="st11" d="M258.05,417.23c-0.23-2.69-0.53-5.31-1.46-7.86c-0.91-2.47-2.18-4.96-3.88-6.99
					c-0.82-0.98-1.74-1.89-2.79-2.64c-0.75-0.54-1.59-1.21-2.52-1.4c0.6,0.86,1.38,1.57,2.02,2.4c0.65,0.83,1.15,1.83,1.61,2.77
					c0.98,2.01,1.77,4.13,2.35,6.29c0.63,2.34,1.09,4.73,1.41,7.13c0.16,1.18,0.3,2.37,0.35,3.57c0.02,0.43,0.01,0.88,0,1.34
					c0.53,0.79,1.07,1.58,1.6,2.37c0.12,0.18-0.17,0.34-0.28,0.17c-0.11-0.17-0.23-0.34-0.35-0.52c0.2,0.4,0.39,0.8,0.6,1.2h1.37
					C258.4,422.46,258.28,419.83,258.05,417.23z"/>
				<path class="st11" d="M238.79,413.51c-0.26,2.2-0.3,4.41-0.14,6.62c0.12,1.63,0.25,3.34,0.73,4.93h3.74
					c-1.32-3.27-2.01-6.8-2.23-10.31c-0.24-3.82-0.15-7.88,0.85-11.63C240.1,406.3,239.19,410.04,238.79,413.51z"/>
				<path class="st11" d="M235.88,424.14c0.05,0.21-0.27,0.29-0.32,0.09c-0.57-2.63-0.87-5.33-0.89-8.03
					c-0.48-1.15-1.09-2.27-1.74-3.34c-0.46-0.76-1.24-2.3-2.21-2.66c0.52,1.16,1.26,2.19,1.67,3.4c0.5,1.48,0.98,2.97,1.33,4.49
					c0.35,1.51,0.63,3.07,0.69,4.62c0.21,0.77,0.39,1.56,0.53,2.35h1.52c-0.15-2.68-0.53-5.4-1.43-7.92
					C235.11,419.49,235.39,421.84,235.88,424.14z"/>
				<path class="st11" d="M208.55,410.02c-0.98,1.54-1.78,3.16-2.62,4.77c-0.75,1.44-1.67,3.13-1.49,4.81c0.02,0.21-0.3,0.21-0.33,0
					c-0.19-1.66,0.68-3.34,1.43-4.77c0.92-1.76,1.78-3.56,2.88-5.22c0.31-0.47,0.64-0.94,0.98-1.39c0.43-0.94,0.9-1.87,1.42-2.77
					c0.63-1.08,1.3-2.14,2.06-3.13c0.64-0.84,1.43-1.57,2.05-2.43c-1.51-0.09-3.17,0.98-4.42,1.69c-1.56,0.89-2.97,2-4.19,3.32
					c-1.31,1.42-2.37,3-3.28,4.69c-0.19,0.83-0.35,1.65-0.51,2.43c-0.56,2.88-0.99,5.8-1.24,8.72c-0.12,1.4-0.03,2.89-0.21,4.31
					h3.98c0.02-0.5,0.03-1.01,0.07-1.51c0.1-1.22,0.28-2.45,0.52-3.65c0.51-2.65,1.25-5.25,2.16-7.79c0.29-0.8,0.6-1.6,0.92-2.39
					C208.68,409.81,208.61,409.92,208.55,410.02z"/>
				<path class="st11" d="M200.73,414.85c-0.07,0.2-0.39,0.11-0.32-0.09c0.68-1.82,1.45-3.65,2.38-5.38
					c0.85-3.62,2.1-7.55,4.8-10.11c-1.27,0.6-2.39,1.41-3.41,2.35c-0.08,0.19-0.16,0.37-0.26,0.55c0-0.1,0-0.21,0-0.31
					c-1.1,1.06-2.06,2.27-2.95,3.54c0,0,0,0,0,0c-0.1,0.18-0.21,0.36-0.3,0.54c-0.33,0.65-0.66,1.31-0.95,1.98
					c-0.6,1.4-1.04,2.86-1.34,4.36c-0.35,1.77-0.57,3.57-0.87,5.35c-0.09,0.68-0.17,1.35-0.25,2.03c-0.15,1.38-0.26,2.74-0.25,4.14
					c0,0.42,0.01,0.83,0,1.25h3.77c0.27-1.78,0.12-3.7,0.31-5.44c0.31-2.88,0.71-5.76,1.32-8.59c0.02-0.11,0.05-0.23,0.07-0.34
					C201.83,412.05,201.25,413.44,200.73,414.85z"/>
				<path class="st11" d="M196.83,420.67c-0.11,0.06-0.28-0.03-0.24-0.19c0.28-1.05,0.48-2.12,0.65-3.19
					c0.29-2.21,0.64-4.41,1.11-6.58c0.58-2.69,1.1-5.42,2.02-8.02c0.73-2.08,1.82-3.99,2.77-5.97c-0.07-0.22-0.14-0.43-0.21-0.63
					c-0.51,0.49-1.05,0.95-1.54,1.47c-0.42,0.45-0.78,0.95-1.1,1.47c-0.37,1.32-0.98,2.76-1.96,4.32c-0.75,1.97-1.38,4.01-1.94,6.02
					c-1.42,5.12-2.16,10.39-2.33,15.69h2.63c0.01-0.71-0.01-1.41,0-2.12C196.71,422.18,196.76,421.43,196.83,420.67z"/>
			</g>
			<path class="st13" d="M194.69,405.82c0.47-3.6,1.03-7.23,1.83-10.77c0.31-1.37,0.68-2.76,1.22-4.07c-2.28,1.9-3.45,4.62-4.43,7.6
				c-0.87,2.65-1.48,5.38-1.9,8.12c0.26-2.3,0.34-4.46,0.28-6.48c-0.6,1.87-1.02,3.8-1.34,5.73c-0.02,0.15-0.23,0.15-0.3,0.04
				c-2.17-3.61-4.4-8.61-8.42-10.3c0.17,0.27,0.33,0.55,0.48,0.83c6.95,7.73,9.67,18.45,11.31,28.51h1.34
				C193.75,418.72,193.86,412.13,194.69,405.82z"/>
			<path class="st13" d="M185.9,411.83c-1.32-2.35-2.86-4.53-4.83-6.38c-0.98-0.92-2.01-1.78-3.11-2.56
				c-0.15-0.11-0.3-0.21-0.45-0.32c1.29,1.98,2.31,4.1,3.11,6.34c0.45,0.98,0.97,10,1.41,16.14h8.68
				C189.68,420.46,188.22,415.95,185.9,411.83z"/>
		</g>
		<path class="st9" d="M270.84,409.32c-3.21,2.1-5.67,5.55-7.07,9.24c0.56-3.22,1.16-6.4,2.22-9.57c0.81-2.42,2.16-4.29,3.65-6.09
			c0.8-1.04,1.67-2.04,2.52-3.06c-2.99,0.86-5.78,2.17-8.04,4.37c-0.81,1.05-1.54,2.19-2.19,3.37c0.56-3.21,1.61-6.31,3.54-9.22
			c-0.85,0.51-1.65,1.13-2.36,1.8c-1.34,1.69-2.71,4.14-4.05,8.87c0.15-2.64,0.89-8.15,1.4-10.87c0.73-2.21,1.48-5.25,1.73-6.88
			c-2.1,3.2-6.95,12.33-5.33,26.55c-0.46-2.97-1.12-5.92-2.06-8.77c-1.36-4.15-3.06-7.84-7.23-9.76c1.45,2.93,4.62,10.29,4.28,18.19
			c-6.61-7.49-5.02-12.89-4.92-16.02c0.01-0.27-3.82,5.07-3.6,11.46c-2.42-4.48,0.96-11.12,0.69-11c-0.15,0.07-0.29,0.14-0.43,0.22
			c-0.15,0.24-0.27,0.49-0.38,0.69c-0.33,0.6-0.71,1.17-1.02,1.78c-0.8,1.56-1.34,3.24-1.6,4.98c-0.39,2.67-0.2,5.3,0.18,7.93
			c-0.1-0.28-0.19-0.56-0.27-0.85c-0.55-1.91-0.93-3.87-1.18-5.84c-0.45-3.53,0.02-6.98,1.33-10.26c0.05-0.14-0.07-0.24-0.19-0.18
			c-0.95,0.42-1.61,1.68-2.02,2.55c-1.01,2.1-1.64,4.44-2.15,6.71c-0.46,2.06-0.53,4.1-0.39,6.2c0.03,0.5,0.05,1.04,0.08,1.6
			c-0.69-1.93-1.63-3.73-2.73-5.44c0.21,0.8,0.36,1.62,0.47,2.43c0.31,2.21,0.4,4.44,0.3,6.67c-0.01,0.16-0.22,0.23-0.3,0.08
			c-1.15-2-1.95-4.17-3.44-5.97c-0.29-0.35-0.6-0.68-0.91-0.99c0.6,1.4,0.99,2.87,1.3,4.36c0.44,2.11,0.9,4.28,0.99,6.45h35.06
			c0.5-1.66,1.1-3.28,1.8-4.84c2.01-5.67,5.36-10.62,10.53-14.49C276.62,405.36,272.35,408.33,270.84,409.32z"/>
		<path class="st9" d="M226.11,416.28c-1.8,0.98-3.21,2.87-3.65,4.83c-0.04,0.17-0.3,0.17-0.34,0c-0.33-1.61-0.27-3.22-0.88-4.77
			c-0.3-0.76-0.65-1.48-1.05-2.17c-0.88-1.21-2.08-2.12-3.67-2.4c-0.02,0-0.04,0-0.06,0c1.07,0.76,1.45,2.31,1.78,3.5
			c0.57,2.1,0.65,4.25,0.22,6.39c-0.03,0.15-0.25,0.17-0.32,0.04c-1.32-2.32-2.14-4.84-2.32-7.49c-0.17-0.07-0.39-0.05-0.73,0.13
			c-0.86,0.46-1.65,1.55-2.28,2.52c-0.28-3.95,5.31-7.36,5.23-7.52c-1.66-0.18-3.08-0.07-5.09,1.25c-2.78,1.83-4.01,4.47-3.88,3.9
			c0.85-3.96,3.43-7.23,6.58-9.68c-2.41-0.04-5,0.97-7.29,2.37c1.6-2.04,5.45-6.58,4.93-6.4c-4.23,1.46-8.97,5.16-11.65,9.58
			c0.67-3.12,2.3-8.44,5.98-11.11c0,0-6.3,0.47-10.65,11.32c0.86-4.08,4.44-12.72,6.97-15.29c0.32-0.32-4.99-0.63-9.58,10.77
			c0.08-3.92,1.73-13.24,2.85-17.19c0,0-3.55,4.11-5.38,12.51c0-0.01-1.33,6.19-1.35,8.69c-0.63-2.85-4.38-14.83-11.45-14.85
			c0,0,9.18,5.03,8.02,23.56c0,0-3.08-13.47-10.24-14.31c0,0,6.55,7.02,5.65,16.21c0,0-2.27-9.71-13.31-9.65
			c0,0,8.17,4.86,9.36,14.03h45.21C223.66,421.98,224.43,418.8,226.11,416.28z"/>
		<path class="st9" d="M239.47,401.7c-2.97,4.67-3.14,9.91-2.85,15.28c0,0.06,0.1,0.01,0.1-0.03c0.02-5.23,0.5-10.46,2.79-15.24
			C239.53,401.68,239.48,401.68,239.47,401.7z"/>
		<path class="st9" d="M179.53,422.09c-1.31-4.24-4.25-9.49-8.96-10.5c-0.02,0-0.04,0.03-0.02,0.04c4.21,1.74,7.06,6.62,8.79,10.6
			C179.39,422.34,179.56,422.18,179.53,422.09z"/>
		<path class="st9" d="M177.97,405.13c-0.01-0.01-0.03,0.01-0.02,0.02c2.57,3.02,4.28,6.86,5.19,10.7c0.03,0.12,0.19,0.01,0.18-0.08
			C182.88,412.31,181.53,406.75,177.97,405.13z"/>
		<path class="st9" d="M194.82,394.06c-1.22,1.74-1.7,4.08-2.2,6.12c-0.59,2.45-0.76,5.01-0.89,7.52c-0.01,0.12,0.15,0.05,0.17-0.03
			c0.34-2.17,0.65-4.34,1.1-6.49c0.28-1.3,0.61-2.6,0.96-3.88c0.29-1.06,0.43-2.24,0.9-3.23
			C194.89,394.03,194.84,394.03,194.82,394.06z"/>
		<path class="st9" d="M204.07,401.32c-2.55,1.9-4.36,4.57-5.36,7.58c-0.07,0.21,0.21,0.17,0.27,0.02c1.18-2.78,2.92-5.47,5.11-7.56
			C204.12,401.34,204.1,401.3,204.07,401.32z"/>
		<path class="st9" d="M211.81,405.89c-5.04,1.26-7.85,7.02-8.92,11.63c-0.04,0.17,0.21,0.09,0.25-0.02
			c1.5-4.19,4.3-9.73,8.67-11.55C211.84,405.94,211.86,405.88,211.81,405.89z"/>
		<path class="st9" d="M214.05,410.72c-1.55,0.54-3.43,1.98-3.75,3.67c-0.05,0.26,0.28,0.13,0.36,0.02c1.01-1.33,1.91-2.76,3.4-3.63
			C214.1,410.76,214.11,410.7,214.05,410.72z"/>
		<path class="st9" d="M245.88,404.28c-0.98,1.31-1.38,3.28-1.67,4.86c-0.37,1.97-0.37,3.88-0.04,5.86
			c0.04,0.26,0.38,0.01,0.38-0.17c-0.05-1.81,0.05-3.51,0.26-5.3c0.2-1.64,0.44-3.73,1.13-5.24
			C245.95,404.25,245.9,404.26,245.88,404.28z"/>
		<path class="st9" d="M252.18,409.7c-0.34-2.26-0.95-4.94-2.45-6.74c-0.02-0.02-0.06,0.02-0.05,0.04c1.07,2.05,1.64,4.64,2.06,6.9
			c0.45,2.43,0.77,4.89,0.93,7.35c0.01,0.11,0.18,0.02,0.18-0.06C252.95,414.68,252.55,412.17,252.18,409.7z"/>
		<path class="st9" d="M267.45,402.71c-4.77,2.51-7.05,8.68-7.32,13.76c-0.02,0.31,0.37,0.13,0.41-0.08
			c0.83-4.83,2.66-10.71,6.92-13.63C267.48,402.74,267.48,402.69,267.45,402.71z"/>
	</g>
	<g>
		<path class="st11" d="M257.82,447.38h123.27c3.89-13.77,16.74-37.08,16.74-37.08c-14.83-0.09-17.88,12.96-17.88,12.96
			c-1.21-12.34,7.59-21.77,7.59-21.77c-9.61,1.13-13.76,19.22-13.76,19.22c-1.56-24.89,10.77-31.64,10.77-31.64
			c-9.49,0.02-14.53,16.11-15.38,19.94c-0.03-3.36-1.81-11.68-1.82-11.67c-2.45-11.28-7.23-16.8-7.23-16.8
			c1.51,5.31,3.72,17.82,3.83,23.08c-6.17-15.32-13.3-14.9-12.87-14.47c3.41,3.45,8.21,15.05,9.36,20.53
			c-5.85-14.57-14.31-15.21-14.31-15.21c4.93,3.6,7.13,10.74,8.03,14.93c-3.6-5.93-9.97-10.9-15.65-12.86
			c-0.71-0.24,4.47,5.86,6.62,8.59c-3.07-1.88-6.56-3.23-9.79-3.18c4.24,3.29,7.7,7.68,8.84,13c0.16,0.77-1.48-2.78-5.22-5.23
			c-2.7-1.77-4.61-1.92-6.84-1.68c-0.11,0.22,7.4,4.8,7.02,10.1c-0.84-1.3-1.9-2.77-3.06-3.38c-0.45-0.24-0.76-0.27-0.98-0.18
			c-0.24,3.56-1.35,6.94-3.12,10.06c-0.1,0.17-0.39,0.15-0.43-0.06c-0.57-2.87-0.46-5.75,0.3-8.58c0.43-1.61,0.94-3.69,2.39-4.71
			c-0.03,0-0.06,0-0.09,0c-3.89,0.68-6.04,4.14-7.02,7.84c-0.31,0.4-0.47,0.66-0.47,0.66c0-4.19,2.53-8.11,2.53-8.11
			c-3.62-0.36-5.88,5.01-5.88,5.01c0-8.37,5.55-14.57,5.55-14.57c-7.96-1.91-11.14,12.2-11.14,12.2c0-11.2-6.53-19.58-6.53-19.58
			c1.16,4.07,1.46,8.99,1.47,12.82c-0.82-2.85-2.03-5.59-3.47-8.04c-2.57-3.68-6.17-6.17-10.2-7.97c1.41,2.56,2.59,5.28,3.56,8.11
			c-1.84-2.53-3.94-4.8-6.58-6.29c-0.51-0.29,2.63,8.37,3.85,12.41c-0.03-0.03-0.07-0.06-0.1-0.09c-0.16-0.36-0.31-0.68-0.43-0.95
			c-1.69-3.61-4.52-7.36-8.23-9.08c-0.4-0.18,4.5,9.43,0.99,15.92c0.32-9.25-5.22-16.99-5.21-16.59c0.13,4.52,2.45,12.34-7.13,23.19
			c-0.49-11.44,4.09-22.08,6.2-26.33c-6.04,2.78-8.5,8.12-10.47,14.13c-1.36,4.14-2.31,8.41-2.98,12.7
			c2.36-20.59-4.67-33.81-7.71-38.44c0.37,2.36,1.45,6.77,2.51,9.96c0.73,3.94,1.81,11.92,2.02,15.74
			c-1.92-6.85-3.92-10.41-5.86-12.85c-1.03-0.97-2.19-1.86-3.41-2.6c2.79,4.21,4.31,8.7,5.12,13.35c-0.95-1.71-2-3.36-3.18-4.88
			c-3.26-3.19-7.31-5.08-11.63-6.33c1.23,1.48,2.49,2.92,3.64,4.42c2.16,2.6,4.12,5.31,5.29,8.81c1.53,4.58,2.39,9.19,3.21,13.85
			c-2.03-5.34-5.59-10.33-10.24-13.37c-2.18-1.43-8.37-5.73-11.86-5.18c7.49,5.59,12.33,12.77,15.24,20.97
			C256.32,423.68,257.14,437.78,257.82,447.38z"/>
		<path class="st11" d="M257.82,447.38h123.27c3.89-13.77,16.74-37.08,16.74-37.08c-14.83-0.09-17.88,12.96-17.88,12.96
			c-1.21-12.34,7.59-21.77,7.59-21.77c-9.61,1.13-13.76,19.22-13.76,19.22c-1.56-24.89,10.77-31.64,10.77-31.64
			c-9.49,0.02-14.53,16.11-15.38,19.94c-0.03-3.36-1.81-11.68-1.82-11.67c-2.45-11.28-7.23-16.8-7.23-16.8
			c1.51,5.31,3.72,17.82,3.83,23.08c-6.17-15.32-13.3-14.9-12.87-14.47c3.41,3.45,8.21,15.05,9.36,20.53
			c-5.85-14.57-14.31-15.21-14.31-15.21c4.93,3.6,7.13,10.74,8.03,14.93c-3.6-5.93-9.97-10.9-15.65-12.86
			c-0.71-0.24,4.47,5.86,6.62,8.59c-3.07-1.88-6.56-3.23-9.79-3.18c4.24,3.29,7.7,7.68,8.84,13c0.16,0.77-1.48-2.78-5.22-5.23
			c-2.7-1.77-4.61-1.92-6.84-1.68c-0.11,0.22,7.4,4.8,7.02,10.1c-0.84-1.3-1.9-2.77-3.06-3.38c-0.45-0.24-0.76-0.27-0.98-0.18
			c-0.24,3.56-1.35,6.94-3.12,10.06c-0.1,0.17-0.39,0.15-0.43-0.06c-0.57-2.87-0.46-5.75,0.3-8.58c0.43-1.61,0.94-3.69,2.39-4.71
			c-0.03,0-0.06,0-0.09,0c-3.89,0.68-6.04,4.14-7.02,7.84c-0.31,0.4-0.47,0.66-0.47,0.66c0-4.19,2.53-8.11,2.53-8.11
			c-3.62-0.36-5.88,5.01-5.88,5.01c0-8.37,5.55-14.57,5.55-14.57c-7.96-1.91-11.14,12.2-11.14,12.2c0-11.2-6.53-19.58-6.53-19.58
			c1.16,4.07,1.46,8.99,1.47,12.82c-0.82-2.85-2.03-5.59-3.47-8.04c-2.57-3.68-6.17-6.17-10.2-7.97c1.41,2.56,2.59,5.28,3.56,8.11
			c-1.84-2.53-3.94-4.8-6.58-6.29c-0.51-0.29,2.63,8.37,3.85,12.41c-0.03-0.03-0.07-0.06-0.1-0.09c-0.16-0.36-0.31-0.68-0.43-0.95
			c-1.69-3.61-4.52-7.36-8.23-9.08c-0.4-0.18,4.5,9.43,0.99,15.92c0.32-9.25-5.22-16.99-5.21-16.59c0.13,4.52,2.45,12.34-7.13,23.19
			c-0.49-11.44,4.09-22.08,6.2-26.33c-6.04,2.78-8.5,8.12-10.47,14.13c-1.36,4.14-2.31,8.41-2.98,12.7
			c2.36-20.59-4.67-33.81-7.71-38.44c0.37,2.36,1.45,6.77,2.51,9.96c0.73,3.94,1.81,11.92,2.02,15.74
			c-1.92-6.85-3.92-10.41-5.86-12.85c-1.03-0.97-2.19-1.86-3.41-2.6c2.79,4.21,4.31,8.7,5.12,13.35c-0.95-1.71-2-3.36-3.18-4.88
			c-3.26-3.19-7.31-5.08-11.63-6.33c1.23,1.48,2.49,2.92,3.64,4.42c2.16,2.6,4.12,5.31,5.29,8.81c1.53,4.58,2.39,9.19,3.21,13.85
			c-2.03-5.34-5.59-10.33-10.24-13.37c-2.18-1.43-8.37-5.73-11.86-5.18c7.49,5.59,12.33,12.77,15.24,20.97
			C256.32,423.68,257.14,437.78,257.82,447.38z"/>
		<g>
			<g class="st12">
				<path class="st11" d="M301.82,431.91c-0.9,1.39-2.45,3.42-1.98,5.17c0.09,0.32-0.41,0.45-0.49,0.14
					c-0.49-1.83,0.93-3.86,1.87-5.31c1.16-1.8,2.24-3.62,3.67-5.21c0.71-1.88,1.51-3.73,2.47-5.5c0.91-1.68,1.93-3.3,3-4.88
					c0.58-0.85,1.19-1.65,1.93-2.34c-2.32,0.6-4.62,1.42-6.61,2.78c-1.79,1.23-3.28,2.8-4.58,4.52c-1.04,2.25-1.95,4.57-2.76,6.92
					c-1.31,3.83-2.44,7.74-3.15,11.73c-0.38,2.14-0.69,4.28-0.77,6.45c-0.01,0.34-0.02,0.67-0.03,1.01h6.03
					c-0.01-0.18-0.01-0.35-0.02-0.52c-0.01-1.24,0-2.43,0.19-3.66c0.62-3.99,1.51-7.93,2.7-11.79c0.33-1.09,0.69-2.17,1.06-3.25
					C303.44,429.36,302.65,430.63,301.82,431.91z"/>
				<path class="st11" d="M308.46,434.98c2.05-6.02,5.5-11.05,10.36-15.1c-1.12-0.01-2.23,0.46-3.27,0.84
					c-1.19,0.43-2.37,0.88-3.51,1.45c-2.33,1.16-4.57,2.54-6.37,4.43c-0.13,0.14-0.25,0.28-0.38,0.42
					c-0.85,2.24-1.55,4.53-2.18,6.84c-0.51,1.87-0.97,3.76-1.35,5.66c-0.35,1.73-0.8,3.56-0.85,5.33c-0.02,0.77,0.05,1.64,0.09,2.53
					h5.61C306.39,443.18,307.13,438.9,308.46,434.98z"/>
				<path class="st11" d="M320.3,445.09c0.06,0.32-0.43,0.46-0.49,0.14c-0.39-2.17,0.43-4.37,1.54-6.32
					c-0.08-1.01-0.21-2.01-0.4-2.99c-0.64-3.37-2.23-6.29-4-9.15c0.78,3.46,0.5,7.33-0.02,10.73c-0.33,2.15-0.91,4.24-1.27,6.38
					c-0.19,1.15-0.35,2.42-0.86,3.49h6.09c0.45-2.47,0.64-5,0.52-7.51C320.55,441.52,319.98,443.32,320.3,445.09z"/>
				<path class="st11" d="M324.9,447.38c0-1.99,0.22-3.98,0.55-5.91c0.35-2.04,0.79-4.1,1.6-6.02c0.7-1.67,1.57-3.25,2.47-4.81
					c-2.57,1.46-4.53,3.74-6.22,6.16c-0.49,0.71-1.01,1.48-1.48,2.3c0.19,2.77,0.04,5.54-0.43,8.28L324.9,447.38L324.9,447.38z"/>
				<path class="st11" d="M339.6,447.38h0.45c-0.1-0.52-0.2-1.04-0.32-1.56C339.71,446.34,339.66,446.86,339.6,447.38z"/>
				<path class="st11" d="M339.26,443.88c-1.59-5.98-4.44-11.48-9.49-15.41c0.18,0.43,0.35,0.86,0.53,1.3
					c0.11,0.05,0.19,0.18,0.13,0.32c1.04,2.59,1.97,5.2,2.76,7.91c0.55,1.88,1,3.78,1.15,5.75c0.09,1.21,0.07,2.42,0.1,3.64h4.66
					C339.24,446.22,339.29,445.05,339.26,443.88z"/>
				<path class="st11" d="M344.44,439.87c-0.33-2.84-0.78-5.68-1.04-8.53c-0.48-5.27-0.4-10.76,0.57-15.99
					c-2.27,4.3-2.95,9.37-3.2,14.16c-0.07,1.33-0.1,2.67-0.09,4.01c1.75,4.39,2.51,9.13,2.78,13.85h2.52
					C345.11,444.96,344.73,442.42,344.44,439.87z"/>
				<path class="st11" d="M372.54,445.86c0.11,0.31-0.38,0.45-0.49,0.14c-0.37-1.06-0.38-2.17-0.37-3.28
					c-0.07-0.13-0.14-0.25-0.21-0.38c-0.11-0.19-0.23-0.38-0.34-0.58c-1.21-1.8-2.4-3.61-3.52-5.46c-0.63-0.95-1.25-1.9-1.85-2.86
					c-0.07-0.12-0.03-0.23,0.04-0.3c-0.74-1.38-1.43-2.79-2.04-4.24c-2.68-6.38-3.84-13.12-3.22-20c-0.08,0.09-0.14,0.19-0.21,0.28
					c0.04,0.17,0.08,0.34,0.11,0.5c-0.06-0.14-0.12-0.28-0.17-0.42c-1.59,2.07-2.34,4.79-2.91,7.28c-0.66,2.89-1.2,5.82-1.59,8.76
					c-0.97,7.21-1.23,14.8,0.91,21.83c0.03,0.1,0,0.18-0.06,0.24h17.41c-0.63-1.25-1.22-2.52-1.87-3.77
					C372.2,444.38,372.3,445.15,372.54,445.86z"/>
				<path class="st11" d="M394.98,411.76c-1.68,1.11-3.23,2.4-4.61,3.87c-2.85,3.05-5.17,6.61-6.9,10.4
					c-3.09,6.75-4.36,14-4.49,21.35h2.11c1.32-4.67,3.67-10.43,6.2-16.02c0.25-0.85,0.5-1.69,0.78-2.53
					c1.21-3.67,2.79-7.18,4.5-10.65c1.31-2.66,2.56-5.69,4.71-7.82C396.44,410.79,395.65,411.32,394.98,411.76z"/>
				<path class="st11" d="M376.69,435.14c-0.36-4.2-0.82-8.3-2.29-12.29c-1.42-3.86-3.41-7.76-6.06-10.93
					c-1.29-1.54-2.72-2.95-4.36-4.13c-1.17-0.84-2.49-1.9-3.94-2.19c0.93,1.34,2.15,2.45,3.16,3.75c1.01,1.3,1.8,2.86,2.52,4.34
					c1.52,3.14,2.77,6.46,3.67,9.84c0.98,3.66,1.7,7.39,2.21,11.15c0.25,1.85,0.47,3.71,0.55,5.58c0.03,0.67,0.01,1.38,0,2.09
					c0.83,1.24,1.67,2.47,2.49,3.71c0.18,0.28-0.26,0.53-0.44,0.26c-0.18-0.27-0.36-0.54-0.54-0.81c0.31,0.63,0.62,1.25,0.93,1.87
					h2.15C377.24,443.32,377.04,439.21,376.69,435.14z"/>
				<path class="st11" d="M346.57,429.32c-0.4,3.43-0.48,6.9-0.22,10.35c0.19,2.55,0.4,5.23,1.14,7.71h5.85
					c-2.06-5.12-3.14-10.63-3.49-16.12c-0.38-5.98-0.24-12.33,1.33-18.18C348.62,418.04,347.2,423.89,346.57,429.32z"/>
				<path class="st11" d="M342.03,445.94c0.07,0.32-0.42,0.46-0.49,0.14c-0.89-4.11-1.37-8.34-1.39-12.56
					c-0.76-1.8-1.71-3.55-2.73-5.22c-0.73-1.19-1.94-3.6-3.46-4.16c0.81,1.81,1.97,3.43,2.61,5.32c0.78,2.31,1.54,4.64,2.08,7.02
					c0.54,2.37,0.99,4.79,1.09,7.22c0.32,1.21,0.6,2.44,0.83,3.68h2.38c-0.23-4.2-0.83-8.44-2.24-12.38
					C340.82,438.67,341.25,442.34,342.03,445.94z"/>
				<path class="st11" d="M299.29,423.87c-1.52,2.4-2.79,4.95-4.1,7.46c-1.17,2.26-2.62,4.89-2.32,7.52c0.04,0.33-0.48,0.33-0.51,0
					c-0.29-2.6,1.06-5.23,2.23-7.46c1.43-2.75,2.78-5.57,4.51-8.16c0.49-0.73,1-1.47,1.53-2.18c0.68-1.47,1.41-2.92,2.22-4.32
					c0.98-1.69,2.03-3.35,3.22-4.9c1.01-1.32,2.23-2.46,3.21-3.8c-2.36-0.15-4.95,1.53-6.91,2.64c-2.44,1.39-4.65,3.13-6.55,5.19
					c-2.05,2.21-3.71,4.7-5.12,7.33c-0.29,1.3-0.55,2.58-0.79,3.81c-0.88,4.5-1.55,9.07-1.93,13.64c-0.18,2.2-0.04,4.51-0.32,6.74
					h6.22c0.03-0.79,0.05-1.58,0.11-2.36c0.15-1.91,0.44-3.83,0.81-5.71c0.8-4.14,1.96-8.21,3.38-12.18
					c0.45-1.26,0.93-2.51,1.44-3.74C299.5,423.54,299.39,423.71,299.29,423.87z"/>
				<path class="st11" d="M287.06,431.42c-0.11,0.31-0.61,0.17-0.49-0.13c1.07-2.85,2.26-5.71,3.71-8.41
					c1.33-5.66,3.29-11.8,7.51-15.8c-1.99,0.93-3.74,2.2-5.33,3.67c-0.12,0.29-0.25,0.58-0.4,0.86c0.01-0.16,0-0.32,0.01-0.48
					c-1.72,1.66-3.22,3.56-4.61,5.54c0,0,0,0,0,0c-0.16,0.28-0.32,0.56-0.47,0.85c-0.52,1.02-1.04,2.05-1.49,3.1
					c-0.94,2.2-1.63,4.48-2.09,6.82c-0.55,2.77-0.89,5.57-1.36,8.36c-0.14,1.06-0.27,2.11-0.38,3.17c-0.24,2.16-0.41,4.29-0.39,6.47
					c0.01,0.65,0.01,1.3,0,1.95h5.89c0.42-2.79,0.19-5.78,0.48-8.5c0.49-4.5,1.1-9,2.06-13.43c0.04-0.17,0.08-0.35,0.11-0.53
					C288.79,427.03,287.89,429.22,287.06,431.42z"/>
				<path class="st11" d="M280.97,440.52c-0.17,0.09-0.44-0.05-0.37-0.29c0.43-1.65,0.74-3.31,1.01-4.99
					c0.46-3.45,1.01-6.89,1.74-10.3c0.91-4.2,1.72-8.48,3.16-12.54c1.15-3.25,2.85-6.24,4.33-9.33c-0.1-0.34-0.21-0.67-0.32-0.99
					c-0.79,0.77-1.64,1.48-2.41,2.29c-0.66,0.7-1.22,1.48-1.72,2.3c-0.57,2.06-1.53,4.31-3.07,6.75c-1.17,3.09-2.16,6.26-3.04,9.41
					c-2.23,8.01-3.38,16.24-3.64,24.53h4.12c0.01-1.1-0.01-2.21,0-3.31C280.77,442.88,280.86,441.7,280.97,440.52z"/>
			</g>
			<path class="st13" d="M277.61,417.3c0.73-5.63,1.61-11.3,2.86-16.84c0.48-2.14,1.07-4.31,1.9-6.36
				c-3.56,2.97-5.39,7.23-6.92,11.89c-1.36,4.14-2.31,8.41-2.98,12.7c0.41-3.6,0.53-6.98,0.44-10.12c-0.93,2.92-1.59,5.93-2.09,8.96
				c-0.04,0.23-0.36,0.23-0.47,0.06c-3.39-5.65-6.87-13.46-13.16-16.1c0.26,0.43,0.51,0.86,0.75,1.31
				c10.87,12.08,15.11,28.84,17.69,44.58h2.1C276.16,437.47,276.33,427.17,277.61,417.3z"/>
			<path class="st13" d="M263.88,426.7c-2.07-3.67-4.47-7.08-7.55-9.97c-1.53-1.44-3.15-2.78-4.86-4c-0.23-0.17-0.47-0.34-0.71-0.51
				c2.01,3.09,3.61,6.41,4.85,9.92c0.7,1.53,1.52,15.64,2.2,25.23h13.57C269.8,440.19,267.5,433.14,263.88,426.7z"/>
		</g>
		<path class="st9" d="M407.6,417.24c-3.8,0.68-8.91,4.21-10.91,5.52c-5.03,3.29-8.87,8.68-11.06,14.44
			c0.88-5.03,1.82-10.01,3.47-14.96c1.26-3.78,3.38-6.71,5.71-9.51c1.25-1.62,2.6-3.18,3.93-4.78c-4.67,1.35-9.04,3.39-12.57,6.84
			c-1.27,1.64-2.4,3.42-3.43,5.27c0.88-5.02,2.52-9.87,5.53-14.41c-1.32,0.8-2.57,1.76-3.69,2.81c-2.09,2.64-4.24,6.48-6.32,13.87
			c0.23-4.13,1.39-12.75,2.18-17c1.15-3.45,2.31-8.21,2.71-10.76c-3.28,5-10.87,19.28-8.33,41.52c-0.71-4.64-1.75-9.25-3.21-13.72
			c-2.13-6.49-4.79-12.25-11.31-15.26c2.27,4.59,7.23,16.08,6.7,28.43c-10.34-11.72-7.84-20.16-7.7-25.04
			c0.01-0.43-5.97,7.93-5.63,17.92c-3.79-7.01,1.5-17.39,1.07-17.19c-0.23,0.11-0.46,0.22-0.68,0.34c-0.23,0.38-0.43,0.77-0.6,1.08
			c-0.52,0.94-1.11,1.83-1.6,2.79c-1.25,2.45-2.1,5.07-2.5,7.79c-0.61,4.18-0.3,8.29,0.28,12.4c-0.15-0.43-0.3-0.87-0.43-1.32
			c-0.86-2.98-1.46-6.05-1.85-9.13c-0.7-5.52,0.03-10.92,2.08-16.04c0.09-0.21-0.1-0.37-0.3-0.28c-1.48,0.66-2.51,2.63-3.16,3.99
			c-1.57,3.28-2.56,6.94-3.36,10.49c-0.73,3.22-0.83,6.4-0.61,9.69c0.05,0.78,0.08,1.63,0.12,2.51c-1.08-3.02-2.55-5.83-4.26-8.51
			c0.32,1.26,0.56,2.54,0.73,3.79c0.48,3.46,0.62,6.95,0.48,10.43c-0.01,0.25-0.35,0.36-0.48,0.13c-1.8-3.13-3.06-6.53-5.38-9.34
			c-0.45-0.55-0.93-1.06-1.42-1.55c0.94,2.19,1.55,4.49,2.04,6.82c0.69,3.3,1.41,6.69,1.54,10.08h54.82
			c0.79-2.6,1.71-5.13,2.82-7.56c2.75-7.75,7.09-14.65,13.55-20.29C406.73,418.69,407.07,417.9,407.6,417.24z"/>
		<path class="st9" d="M326.75,433.65c-2.81,1.52-5.01,4.49-5.71,7.55c-0.06,0.26-0.48,0.27-0.53,0c-0.51-2.51-0.42-5.03-1.37-7.46
			c-0.46-1.18-1.01-2.31-1.64-3.4c-1.38-1.9-3.25-3.31-5.74-3.75c-0.03,0-0.07,0-0.1,0c1.68,1.19,2.27,3.61,2.78,5.48
			c0.88,3.29,1.01,6.65,0.35,9.99c-0.05,0.24-0.39,0.26-0.5,0.07c-2.06-3.62-3.35-7.57-3.63-11.7c-0.26-0.11-0.62-0.07-1.14,0.2
			c-1.35,0.71-2.58,2.42-3.56,3.93c-0.44-6.17,8.31-11.5,8.18-11.76c-2.59-0.27-4.82-0.11-7.96,1.96c-4.35,2.86-6.26,6.99-6.07,6.09
			c1.33-6.19,5.36-11.31,10.29-15.13c-3.76-0.06-7.82,1.52-11.4,3.7c2.5-3.18,8.53-10.28,7.7-10c-6.61,2.28-14.03,8.07-18.22,14.97
			c1.05-4.88,3.6-13.19,9.35-17.38c0,0-9.85,0.74-16.66,17.7c1.34-6.37,6.94-19.89,10.9-23.9c0.5-0.51-7.8-0.99-14.98,16.84
			c0.13-6.13,2.7-20.69,4.46-26.87c0,0-5.56,6.42-8.41,19.56c0-0.01-2.08,9.67-2.11,13.59c-0.99-4.46-6.85-23.19-17.9-23.22
			c0,0,14.35,7.86,12.54,36.84c0,0-4.82-21.06-16.02-22.37c0,0,10.24,10.98,8.83,25.34c0,0-3.55-15.19-20.81-15.09
			c0,0,12.78,7.6,14.63,21.94h70.68C322.91,442.57,324.12,437.59,326.75,433.65z"/>
		<path class="st9" d="M347.63,410.86c-4.64,7.3-4.91,15.49-4.46,23.89c0,0.1,0.16,0.02,0.16-0.05c0.04-8.17,0.78-16.35,4.37-23.82
			C347.73,410.83,347.65,410.83,347.63,410.86z"/>
		<path class="st9" d="M253.91,442.73c-2.04-6.62-6.65-14.84-14.01-16.41c-0.02,0-0.05,0.04-0.03,0.05
			c6.58,2.71,11.04,10.35,13.74,16.57C253.7,443.12,253.96,442.88,253.91,442.73z"/>
		<path class="st9" d="M251.48,416.23c-0.02-0.01-0.04,0.02-0.03,0.04c4.02,4.72,6.7,10.73,8.12,16.73c0.04,0.19,0.3,0.02,0.29-0.13
			C259.15,427.44,257.05,418.76,251.48,416.23z"/>
		<path class="st9" d="M277.83,398.91c-1.9,2.72-2.67,6.38-3.43,9.57c-0.92,3.83-1.19,7.84-1.39,11.76
			c-0.01,0.19,0.24,0.08,0.26-0.05c0.53-3.4,1.01-6.78,1.73-10.14c0.43-2.04,0.96-4.06,1.51-6.07c0.45-1.66,0.67-3.5,1.41-5.05
			C277.94,398.87,277.85,398.87,277.83,398.91z"/>
		<path class="st9" d="M292.29,410.27c-3.99,2.97-6.82,7.15-8.38,11.84c-0.11,0.34,0.32,0.26,0.42,0.03c1.85-4.34,4.57-8.55,8-11.82
			C292.37,410.29,292.34,410.24,292.29,410.27z"/>
		<path class="st9" d="M304.4,417.41c-7.88,1.97-12.27,10.97-13.95,18.18c-0.06,0.27,0.33,0.14,0.4-0.03
			c2.35-6.55,6.72-15.21,13.56-18.06C304.44,417.49,304.46,417.4,304.4,417.41z"/>
		<path class="st9" d="M307.9,424.95c-2.43,0.84-5.36,3.09-5.87,5.74c-0.08,0.41,0.44,0.21,0.57,0.04c1.57-2.09,2.99-4.32,5.31-5.68
			C307.97,425.03,307.98,424.92,307.9,424.95z"/>
		<path class="st9" d="M357.66,414.89c-1.54,2.04-2.15,5.13-2.62,7.6c-0.58,3.09-0.57,6.07-0.07,9.16c0.07,0.41,0.59,0.02,0.59-0.26
			c-0.08-2.83,0.07-5.48,0.41-8.28c0.31-2.57,0.68-5.84,1.77-8.2C357.77,414.84,357.69,414.85,357.66,414.89z"/>
		<path class="st9" d="M367.51,423.36c-0.53-3.53-1.49-7.73-3.83-10.54c-0.03-0.03-0.09,0.03-0.07,0.06
			c1.67,3.21,2.57,7.25,3.23,10.78c0.71,3.8,1.2,7.65,1.46,11.5c0.01,0.18,0.28,0.03,0.29-0.09
			C368.72,431.15,368.09,427.23,367.51,423.36z"/>
		<path class="st9" d="M391.38,412.44c-7.46,3.92-11.02,13.58-11.44,21.52c-0.03,0.48,0.58,0.2,0.64-0.13
			c1.3-7.56,4.16-16.74,10.82-21.32C391.44,412.48,391.43,412.41,391.38,412.44z"/>
	</g>
	<polygon class="st14" points="387.72,451.87 185.14,451.09 84.52,275.25 186.49,100.2 389.07,100.99 489.69,276.82 	"/>
</g>
<g id="WIFI">
	<g>
		<g id="XMLID_16_">
			<path id="XMLID_20_" class="st15" d="M278.14,201.09c-5.52,5.14-5.52,13.47,0,18.61c5.52,5.13,14.47,5.13,19.99,0
				c5.52-5.14,5.52-13.47,0-18.61C292.6,195.95,283.66,195.95,278.14,201.09z"/>
			<path id="XMLID_19_" class="st15" d="M288.13,169.8c-11.64,0-22.59,4.22-30.82,11.89c-3.23,3.01-3.23,7.88,0,10.89
				c3.23,3.01,8.46,3.01,11.7,0c5.1-4.76,11.9-7.38,19.13-7.38c7.23,0,14.02,2.62,19.13,7.38c1.62,1.5,3.74,2.26,5.85,2.26
				c2.12,0,4.23-0.75,5.85-2.26c3.23-3.01,3.23-7.88,0-10.89C310.72,174.02,299.77,169.8,288.13,169.8z"/>
			<path id="XMLID_18_" class="st15" d="M288.13,144.44c-18.92,0-36.71,6.86-50.09,19.32c-3.23,3.01-3.23,7.88,0,10.89
				c3.23,3.01,8.47,3.01,11.7,0c10.25-9.55,23.89-14.81,38.39-14.81c14.49,0,28.13,5.26,38.39,14.81c1.61,1.5,3.74,2.26,5.85,2.26
				c2.12,0,4.23-0.75,5.85-2.26c3.23-3.01,3.23-7.88,0-10.89C324.83,151.3,307.05,144.44,288.13,144.44z"/>
			<path id="XMLID_17_" class="st15" d="M357.52,145.79c-18.53-17.26-43.17-26.76-69.39-26.76s-50.85,9.5-69.39,26.76
				c-3.23,3.01-3.23,7.89,0,10.89c1.62,1.5,3.73,2.26,5.85,2.26c2.12,0,4.24-0.75,5.85-2.26c15.41-14.35,35.9-22.25,57.69-22.25
				c21.79,0,42.28,7.9,57.69,22.25c3.23,3.01,8.46,3.01,11.7,0C360.74,153.67,360.74,148.8,357.52,145.79z"/>
		</g>
	</g>
</g>
</svg>
